<svg width="132" height="98" viewBox="0 0 132 98" fill="none" xmlns="http://www.w3.org/2000/svg">
<path d="M118.661 90.4868H109.936V90.5527H118.661V90.4868Z" fill="#EBEBEB"/>
<path d="M87.3986 91.2034H85.1094V91.2692H87.3986V91.2034Z" fill="#EBEBEB"/>
<path d="M109.674 88.0422H104.619V88.1081H109.674V88.0422Z" fill="#EBEBEB"/>
<path d="M25.3396 88.4849H13.9619V88.5507H25.3396V88.4849Z" fill="#EBEBEB"/>
<path d="M29.355 88.4849H27.6875V88.5507H29.355V88.4849Z" fill="#EBEBEB"/>
<path d="M59.4548 89.5964H34.7764V89.6623H59.4548V89.5964Z" fill="#EBEBEB"/>
<path d="M62.9431 74.4991H12.074C11.6751 74.4991 11.2925 74.3406 11.0104 74.0585C10.7283 73.7764 10.5698 73.3938 10.5698 72.9949V1.49103C10.5733 1.09438 10.7333 0.715156 11.015 0.435905C11.2967 0.156654 11.6774 -1.5207e-05 12.074 1.10709e-09H62.9431C63.1406 1.10709e-09 63.3362 0.0389071 63.5187 0.114501C63.7012 0.190094 63.8671 0.300893 64.0067 0.440572C64.1464 0.580251 64.2572 0.746073 64.3328 0.928572C64.4084 1.11107 64.4473 1.30667 64.4473 1.50421V72.9949C64.4473 73.1924 64.4084 73.388 64.3328 73.5705C64.2572 73.753 64.1464 73.9188 64.0067 74.0585C63.8671 74.1982 63.7012 74.309 63.5187 74.3846C63.3362 74.4602 63.1406 74.4991 62.9431 74.4991ZM12.074 0.052687C11.6928 0.0533833 11.3273 0.205146 11.0577 0.474738C10.7881 0.74433 10.6364 1.10978 10.6357 1.49103V72.9949C10.6364 73.3761 10.7881 73.7416 11.0577 74.0112C11.3273 74.2807 11.6928 74.4325 12.074 74.4332H62.9431C63.3244 74.4325 63.6898 74.2807 63.9594 74.0112C64.229 73.7416 64.3807 73.3761 64.3814 72.9949V1.49103C64.3807 1.10978 64.229 0.74433 63.9594 0.474738C63.6898 0.205146 63.3244 0.0533833 62.9431 0.052687H12.074Z" fill="#EBEBEB"/>
<path d="M119.926 74.4991H69.0569C68.658 74.4991 68.2754 74.3406 67.9933 74.0585C67.7112 73.7764 67.5527 73.3938 67.5527 72.9949V1.49103C67.5562 1.09438 67.7162 0.715156 67.9979 0.435905C68.2797 0.156654 68.6603 -1.5207e-05 69.0569 1.10709e-09H119.926C120.325 1.1071e-09 120.708 0.158479 120.99 0.440572C121.272 0.722665 121.43 1.10527 121.43 1.50421V72.9949C121.43 73.3938 121.272 73.7764 120.99 74.0585C120.708 74.3406 120.325 74.4991 119.926 74.4991ZM69.0569 0.052687C68.6757 0.0533833 68.3102 0.205146 68.0406 0.474738C67.7711 0.74433 67.6193 1.10978 67.6186 1.49103V72.9949C67.6193 73.3761 67.7711 73.7416 68.0406 74.0112C68.3102 74.2807 68.6757 74.4325 69.0569 74.4332H119.926C120.307 74.4325 120.673 74.2807 120.942 74.0112C121.212 73.7416 121.364 73.3761 121.364 72.9949V1.49103C121.364 1.10978 121.212 0.74433 120.942 0.474738C120.673 0.205146 120.307 0.0533833 119.926 0.052687H69.0569Z" fill="#EBEBEB"/>
<path d="M131.859 86.2483H0.141602V86.3141H131.859V86.2483Z" fill="#EBEBEB"/>
<path d="M31.5788 68.427C31.3575 65.8822 28.76 64.9312 25.6805 65.1999C22.601 65.4686 20.2116 66.8569 20.4276 69.4017L31.5788 68.427Z" fill="#F0F0F0"/>
<path d="M25.5797 64.038C27.0075 63.9116 27.4633 62.705 27.3395 61.2772C27.2157 59.8494 26.5492 58.7404 25.1266 58.8642C23.7041 58.988 23.2431 60.1972 23.3669 61.625C23.4907 63.0528 24.1519 64.1618 25.5797 64.038Z" fill="#F0F0F0"/>
<path d="M89.7356 14.2255C89.7606 14.5079 89.7012 14.7914 89.5651 15.0401C89.4289 15.2888 89.222 15.4915 88.9706 15.6225C88.7192 15.7536 88.4345 15.8072 88.1527 15.7764C87.8708 15.7457 87.6044 15.632 87.3872 15.4498C87.1699 15.2676 87.0116 15.0251 86.9323 14.7529C86.8529 14.4807 86.8561 14.191 86.9414 13.9206C87.0267 13.6502 87.1903 13.4112 87.4115 13.2338C87.6327 13.0564 87.9015 12.9486 88.184 12.9241C88.5622 12.8912 88.9381 13.0098 89.229 13.2538C89.5199 13.4978 89.7021 13.8472 89.7356 14.2255Z" fill="#F5F5F5"/>
<path d="M97.6578 13.5248C97.6822 13.8066 97.6226 14.0894 97.4863 14.3373C97.3501 14.5853 97.1434 14.7873 96.8924 14.9177C96.6414 15.0482 96.3573 15.1013 96.0761 15.0703C95.7949 15.0394 95.5292 14.9257 95.3126 14.7437C95.0959 14.5617 94.9382 14.3196 94.8592 14.048C94.7802 13.7763 94.7835 13.4873 94.8687 13.2176C94.9539 12.9478 95.1172 12.7094 95.338 12.5324C95.5587 12.3555 95.8269 12.2479 96.1088 12.2234C96.4866 12.1913 96.8618 12.3102 97.1521 12.5541C97.4425 12.798 97.6243 13.1471 97.6578 13.5248Z" fill="#F5F5F5"/>
<path d="M105.582 12.8319C105.607 13.1143 105.547 13.3978 105.411 13.6465C105.275 13.8952 105.068 14.0979 104.817 14.229C104.565 14.3601 104.281 14.4136 103.999 14.3829C103.717 14.3521 103.451 14.2384 103.233 14.0562C103.016 13.874 102.858 13.6315 102.778 13.3593C102.699 13.0871 102.702 12.7975 102.788 12.5271C102.873 12.2567 103.036 12.0177 103.258 11.8403C103.479 11.6629 103.748 11.5551 104.03 11.5305C104.408 11.4976 104.784 11.6162 105.075 11.8602C105.366 12.1042 105.548 12.4537 105.582 12.8319Z" fill="#F5F5F5"/>
<path d="M90.4426 22.2919C90.4676 22.5743 90.4083 22.8578 90.2721 23.1065C90.1359 23.3552 89.929 23.5579 89.6776 23.6889C89.4262 23.82 89.1416 23.8736 88.8597 23.8428C88.5778 23.8121 88.3114 23.6984 88.0942 23.5162C87.877 23.334 87.7186 23.0915 87.6393 22.8193C87.5599 22.5471 87.5631 22.2574 87.6484 21.987C87.7337 21.7166 87.8973 21.4776 88.1185 21.3002C88.3397 21.1229 88.6085 21.0151 88.891 20.9905C89.2693 20.9576 89.6451 21.0762 89.936 21.3202C90.2269 21.5642 90.4091 21.9136 90.4426 22.2919Z" fill="#F5F5F5"/>
<path d="M98.3648 21.6017C98.3893 21.8835 98.3296 22.1663 98.1934 22.4142C98.0571 22.6622 97.8504 22.8641 97.5994 22.9946C97.3484 23.1251 97.0643 23.1782 96.7831 23.1472C96.5019 23.1162 96.2362 23.0026 96.0196 22.8206C95.803 22.6386 95.6452 22.3965 95.5662 22.1248C95.4872 21.8532 95.4905 21.5642 95.5757 21.2944C95.661 21.0247 95.8243 20.7862 96.045 20.6093C96.2657 20.4323 96.534 20.3248 96.8158 20.3003C97.003 20.284 97.1915 20.3048 97.3706 20.3614C97.5498 20.418 97.716 20.5093 97.8599 20.6301C98.0037 20.751 98.1223 20.899 98.209 21.0657C98.2956 21.2324 98.3486 21.4145 98.3648 21.6017Z" fill="#F5F5F5"/>
<path d="M106.286 20.9061C106.311 21.1885 106.252 21.472 106.115 21.7207C105.979 21.9694 105.772 22.1721 105.521 22.3032C105.269 22.4343 104.985 22.4878 104.703 22.4571C104.421 22.4263 104.155 22.3127 103.937 22.1305C103.72 21.9483 103.562 21.7057 103.483 21.4335C103.403 21.1613 103.406 20.8717 103.492 20.6013C103.577 20.3309 103.741 20.0919 103.962 19.9145C104.183 19.7371 104.452 19.6293 104.734 19.6048C105.113 19.5719 105.488 19.6904 105.779 19.9344C106.07 20.1784 106.252 20.5279 106.286 20.9061Z" fill="#F5F5F5"/>
<path d="M91.1475 30.3687C91.172 30.6506 91.1123 30.9333 90.9761 31.1813C90.8399 31.4292 90.6332 31.6312 90.3821 31.7617C90.1311 31.8922 89.847 31.9453 89.5658 31.9143C89.2846 31.8833 89.0189 31.7696 88.8023 31.5877C88.5857 31.4057 88.4279 31.1636 88.3489 30.8919C88.2699 30.6203 88.2732 30.3313 88.3584 30.0615C88.4437 29.7917 88.607 29.5533 88.8277 29.3764C89.0484 29.1994 89.3167 29.0919 89.5985 29.0674C89.7858 29.0507 89.9744 29.0712 90.1537 29.1277C90.333 29.1842 90.4994 29.2755 90.6433 29.3964C90.7872 29.5173 90.9058 29.6654 90.9924 29.8323C91.0789 29.9991 91.1316 30.1814 91.1475 30.3687Z" fill="#F5F5F5"/>
<path d="M99.0715 29.6732C99.0965 29.9556 99.0372 30.2391 98.901 30.4878C98.7648 30.7365 98.5579 30.9392 98.3065 31.0703C98.0551 31.2014 97.7705 31.2549 97.4886 31.2242C97.2067 31.1934 96.9403 31.0798 96.7231 30.8976C96.5059 30.7154 96.3476 30.4728 96.2682 30.2006C96.1889 29.9284 96.192 29.6388 96.2773 29.3684C96.3626 29.098 96.5262 28.859 96.7474 28.6816C96.9686 28.5042 97.2374 28.3964 97.5199 28.3718C97.8982 28.339 98.274 28.4575 98.5649 28.7015C98.8559 28.9455 99.038 29.295 99.0715 29.6732Z" fill="#F5F5F5"/>
<path d="M106.993 28.9777C107.018 29.2601 106.959 29.5436 106.822 29.7923C106.686 30.041 106.479 30.2437 106.228 30.3747C105.976 30.5058 105.692 30.5594 105.41 30.5286C105.128 30.4979 104.862 30.3842 104.644 30.202C104.427 30.0198 104.269 29.7773 104.19 29.505C104.11 29.2328 104.113 28.9432 104.199 28.6728C104.284 28.4024 104.448 28.1634 104.669 27.986C104.89 27.8086 105.159 27.7008 105.441 27.6763C105.82 27.6434 106.195 27.762 106.486 28.006C106.777 28.25 106.959 28.5994 106.993 28.9777Z" fill="#F5F5F5"/>
<path d="M105.281 29.4468L89.0059 30.8693L103.437 13.3352L88.6555 14.6286C88.6142 14.6326 88.5726 14.6283 88.533 14.6159C88.4935 14.6035 88.4568 14.5834 88.4251 14.5566C88.3934 14.5299 88.3674 14.4971 88.3486 14.4601C88.3299 14.4232 88.3186 14.3828 88.3157 14.3415C88.3084 14.2587 88.3342 14.1764 88.3876 14.1127C88.4409 14.0489 88.5174 14.009 88.6002 14.0016L104.878 12.5791L90.4442 30.1133L105.231 28.8198C105.314 28.8132 105.397 28.8396 105.461 28.8933C105.525 28.947 105.565 29.0237 105.573 29.1069C105.576 29.1485 105.571 29.1902 105.558 29.2298C105.546 29.2694 105.525 29.3061 105.498 29.3377C105.471 29.3692 105.437 29.3951 105.4 29.4139C105.363 29.4326 105.322 29.4438 105.281 29.4468Z" fill="#E6E6E6"/>
<path d="M105.531 60.7504C105.506 60.6737 105.459 60.6061 105.396 60.556C105.332 60.5058 105.256 60.4754 105.175 60.4686C104.468 60.4359 103.798 60.1399 103.297 59.6387C102.646 58.9828 102.264 57.9896 102.201 56.8095C102.195 56.703 102.149 56.6028 102.071 56.5294C101.994 56.456 101.892 56.4148 101.785 56.4143C101.727 56.4146 101.67 56.4266 101.617 56.4495C101.565 56.4724 101.517 56.5058 101.477 56.5476C101.438 56.5895 101.407 56.6389 101.387 56.693C101.367 56.747 101.358 56.8046 101.361 56.8621C101.435 58.2478 101.904 59.4333 102.702 60.2315C103.327 60.8576 104.156 61.2381 105.038 61.3036H105.099C105.168 61.3089 105.238 61.297 105.301 61.2689C105.365 61.2409 105.42 61.1975 105.463 61.1428C105.506 61.088 105.535 61.0236 105.546 60.9551C105.558 60.8867 105.553 60.8163 105.531 60.7504Z" fill="#F0F0F0"/>
<path d="M104.689 65.8058C101.198 65.5002 98.6796 63.1214 97.8841 59.407C97.8714 59.3512 97.8701 59.2935 97.8804 59.2372C97.8906 59.1809 97.9122 59.1273 97.9437 59.0796C97.9752 59.0318 98.016 58.991 98.0637 58.9594C98.1114 58.9278 98.165 58.9063 98.2212 58.896C98.3279 58.877 98.4377 58.8998 98.5279 58.9597C98.6182 59.0195 98.6819 59.1118 98.706 59.2174C99.4199 62.5551 101.659 64.6941 104.765 64.9655C108.169 65.2632 111.822 63.024 112.478 57.3812C112.49 57.2712 112.544 57.17 112.629 57.0995C112.714 57.0291 112.824 56.9949 112.934 57.0045C112.99 57.0091 113.044 57.0248 113.094 57.0508C113.143 57.0767 113.187 57.1124 113.223 57.1556C113.259 57.1988 113.285 57.2488 113.301 57.3025C113.317 57.3561 113.322 57.4125 113.316 57.4681C112.686 62.7895 109.188 66.1983 104.689 65.8058Z" fill="#F0F0F0"/>
<path d="M98.1013 55.7056C98.0455 55.7011 97.9912 55.6853 97.9415 55.6594C97.8919 55.6334 97.848 55.5978 97.8124 55.5545C97.7768 55.5113 97.7502 55.4614 97.7342 55.4077C97.7182 55.354 97.7132 55.2977 97.7194 55.242C98.3463 49.9206 101.845 46.5092 106.342 46.9043C110.293 47.2494 112.941 50.1999 113.354 54.644C113.358 54.6998 113.352 54.7559 113.334 54.809C113.316 54.8621 113.288 54.9112 113.252 54.9534C113.215 54.9956 113.17 55.03 113.12 55.0547C113.069 55.0794 113.015 55.0938 112.959 55.0971C112.849 55.1022 112.741 55.0644 112.659 54.9917C112.576 54.9189 112.525 54.8169 112.516 54.7072C112.134 50.703 109.771 48.0503 106.27 47.7447C102.88 47.447 99.2104 49.6836 98.5571 55.321C98.5524 55.3762 98.537 55.4299 98.5115 55.4792C98.4861 55.5284 98.4512 55.5721 98.4089 55.6078C98.3666 55.6435 98.3176 55.6705 98.2649 55.6873C98.2121 55.7041 98.1565 55.7103 98.1013 55.7056Z" fill="#F0F0F0"/>
<path d="M104.86 63.548C104.234 63.4978 103.621 63.3447 103.045 63.0949C102.991 63.0714 102.943 63.0369 102.903 62.9938C102.863 62.9507 102.833 62.8998 102.814 62.8443C102.795 62.7889 102.788 62.7301 102.792 62.6716C102.797 62.6132 102.814 62.5564 102.842 62.5048C102.891 62.4143 102.973 62.3453 103.07 62.3112C103.167 62.2771 103.274 62.2804 103.369 62.3204C103.918 62.5563 104.505 62.6919 105.102 62.7208C107.681 62.8683 110.405 61.0401 110.674 56.625C110.837 53.9037 109.905 51.7067 108.166 50.6556C108.076 50.6011 108.01 50.515 107.98 50.4141C107.95 50.3132 107.959 50.2048 108.005 50.1102C108.032 50.058 108.068 50.0117 108.113 49.9742C108.158 49.9367 108.21 49.9088 108.266 49.8922C108.322 49.8757 108.381 49.8708 108.439 49.878C108.497 49.8851 108.553 49.9041 108.603 49.9337C110.619 51.1508 111.699 53.6218 111.514 56.675C111.251 60.9321 108.601 63.7667 105.052 63.5638L104.86 63.548Z" fill="#F0F0F0"/>
<path d="M101.108 60.9218C101.06 60.9546 101.005 60.9771 100.948 60.9878C100.89 60.9986 100.831 60.9974 100.774 60.9843C100.717 60.9712 100.663 60.9465 100.616 60.9117C100.569 60.8769 100.529 60.8328 100.5 60.7821C99.7191 59.3303 99.3759 57.6832 99.512 56.0403C99.7597 51.965 102.202 49.1911 105.518 49.1436C105.577 49.1425 105.635 49.1534 105.689 49.1757C105.743 49.198 105.792 49.2312 105.832 49.2732C105.873 49.3153 105.904 49.3652 105.924 49.42C105.945 49.4748 105.954 49.5331 105.95 49.5915C105.944 49.6968 105.898 49.7959 105.822 49.8691C105.746 49.9422 105.645 49.9842 105.539 49.9866C103.079 50.034 100.608 51.8939 100.355 56.0904C100.227 57.5733 100.533 59.0614 101.235 60.3738C101.288 60.4649 101.304 60.5727 101.281 60.6753C101.257 60.778 101.196 60.8679 101.108 60.927V60.9218Z" fill="#F0F0F0"/>
<path d="M106.866 60.5899C106.826 60.4962 106.821 60.3912 106.853 60.2944C106.884 60.1975 106.95 60.1153 107.037 60.063C108.146 59.3965 108.826 57.9977 108.836 56.3091C108.836 54.9577 108.454 53.8144 107.733 53.0899C107.452 52.8122 107.118 52.5946 106.751 52.4506C106.384 52.3065 105.991 52.239 105.596 52.2522C104.298 52.2522 103.244 52.9661 102.662 54.22C102.617 54.3154 102.538 54.3902 102.44 54.4298C102.342 54.4693 102.233 54.4706 102.135 54.4334C102.08 54.4131 102.03 54.3815 101.987 54.3408C101.945 54.3001 101.912 54.2511 101.89 54.1969C101.867 54.1427 101.857 54.0845 101.858 54.0259C101.859 53.9673 101.873 53.9096 101.898 53.8565C102.619 52.3207 103.971 51.4118 105.586 51.4092C106.092 51.3962 106.595 51.4856 107.065 51.6721C107.536 51.8586 107.963 52.1384 108.323 52.4946C109.205 53.3797 109.685 54.7364 109.674 56.317C109.658 58.3059 108.821 59.9761 107.456 60.7954C107.404 60.8236 107.347 60.8406 107.289 60.8455C107.23 60.8503 107.171 60.8428 107.115 60.8235C107.06 60.8041 107.009 60.7733 106.966 60.7331C106.923 60.6929 106.889 60.6441 106.866 60.5899Z" fill="#F0F0F0"/>
<path d="M103.83 57.4787C103.774 57.5017 103.713 57.5121 103.652 57.5095C103.592 57.5068 103.532 57.4911 103.478 57.4633C103.424 57.4355 103.377 57.3964 103.339 57.3486C103.302 57.3008 103.275 57.2454 103.261 57.1863C103.232 57.073 103.211 56.9545 103.192 56.8333C102.953 55.2527 103.801 53.8855 105.163 53.6405C105.48 53.5715 105.809 53.5778 106.123 53.6587C106.437 53.7397 106.728 53.8932 106.973 54.1068C107.018 54.1475 107.054 54.1981 107.078 54.2547C107.102 54.3113 107.112 54.3725 107.109 54.4338C107.106 54.495 107.089 54.5547 107.059 54.6085C107.03 54.6622 106.988 54.7087 106.938 54.7443L106.912 54.7627C106.833 54.8177 106.737 54.8437 106.642 54.8365C106.546 54.8293 106.455 54.7893 106.385 54.7232C106.237 54.5985 106.063 54.5097 105.875 54.464C105.687 54.4183 105.491 54.4169 105.302 54.4598C104.264 54.6468 103.869 55.7269 104.017 56.6963C104.033 56.7912 104.048 56.8834 104.072 56.9598C104.098 57.059 104.086 57.164 104.04 57.2556C103.994 57.3471 103.917 57.4189 103.822 57.4576L103.83 57.4787Z" fill="#F0F0F0"/>
<path d="M105.224 59.1014C105.158 59.0949 105.094 59.0716 105.039 59.0336C104.984 58.9956 104.94 58.9443 104.911 58.8844C104.881 58.8246 104.867 58.7582 104.871 58.6915C104.874 58.6248 104.894 58.5601 104.929 58.5034L104.966 58.4454C105.004 58.3851 105.058 58.3362 105.121 58.3042C105.185 58.2721 105.256 58.2581 105.327 58.2637C105.459 58.2712 105.592 58.2633 105.722 58.24C106.629 58.0766 107.039 57.2337 107.039 56.3749C107.037 56.2717 107.072 56.1711 107.138 56.0917C107.203 56.0122 107.296 55.9593 107.398 55.9428C107.456 55.9339 107.516 55.9374 107.573 55.953C107.63 55.9687 107.683 55.9961 107.729 56.0337C107.774 56.0712 107.812 56.1179 107.838 56.1708C107.865 56.2237 107.88 56.2815 107.882 56.3406C107.906 57.7157 107.092 58.8511 105.872 59.0698C105.659 59.1093 105.441 59.1199 105.224 59.1014Z" fill="#F0F0F0"/>
<path d="M105.413 57.5444C105.201 57.5265 104.999 57.4425 104.836 57.304C104.674 57.1656 104.559 56.9798 104.507 56.7726C104.492 56.7141 104.492 56.653 104.505 56.5942C104.519 56.5354 104.546 56.4807 104.585 56.4346C104.624 56.3885 104.673 56.3523 104.729 56.3291C104.785 56.3059 104.845 56.2962 104.905 56.301H105.003C105.076 56.3087 105.146 56.3378 105.204 56.3846C105.261 56.4313 105.304 56.4938 105.327 56.5645C105.336 56.6012 105.356 56.6341 105.385 56.6587C105.414 56.6832 105.45 56.6982 105.487 56.7014C105.69 56.7199 105.724 56.438 105.73 56.3695C105.742 56.267 105.723 56.1631 105.674 56.0718C105.602 55.984 105.564 55.8723 105.569 55.7584C105.576 55.6747 105.607 55.5948 105.659 55.5292C105.712 55.4635 105.783 55.415 105.863 55.3898C105.943 55.3646 106.029 55.3639 106.109 55.3878C106.19 55.4117 106.261 55.4591 106.314 55.5239C106.52 55.7837 106.615 56.1141 106.578 56.4433C106.509 57.1361 106.022 57.5971 105.413 57.5444Z" fill="#F0F0F0"/>
<path d="M97.4887 48.1162C97.4336 48.1115 97.38 48.096 97.3309 48.0706C97.2819 48.0451 97.2383 48.0102 97.2028 47.9678C97.1673 47.9255 97.1405 47.8765 97.1241 47.8237C97.1076 47.771 97.1017 47.7155 97.1067 47.6604L97.4255 44.0066L101.079 44.328C101.134 44.3326 101.188 44.3481 101.237 44.3736C101.286 44.399 101.33 44.4339 101.365 44.4763C101.401 44.5187 101.428 44.5676 101.444 44.6204C101.46 44.6732 101.466 44.7287 101.461 44.7837C101.457 44.8389 101.441 44.8926 101.416 44.9418C101.39 44.991 101.355 45.0348 101.313 45.0705C101.271 45.1062 101.222 45.1332 101.169 45.15C101.116 45.1668 101.061 45.173 101.006 45.1683L98.1921 44.9207L97.9471 47.7342C97.9421 47.7894 97.9263 47.8431 97.9006 47.8921C97.8749 47.9412 97.8397 47.9848 97.7971 48.0202C97.7546 48.0557 97.7054 48.0824 97.6525 48.0989C97.5996 48.1154 97.5439 48.1212 97.4887 48.1162Z" fill="#F0F0F0"/>
<path d="M114.858 49.6361C114.803 49.6315 114.749 49.616 114.7 49.5905C114.651 49.5651 114.607 49.5301 114.572 49.4878C114.536 49.4454 114.509 49.3964 114.493 49.3437C114.476 49.2909 114.471 49.2354 114.476 49.1804L114.721 46.3669L111.907 46.1219C111.852 46.1169 111.798 46.1011 111.749 46.0754C111.7 46.0497 111.657 46.0145 111.621 45.9719C111.586 45.9294 111.559 45.8802 111.542 45.8273C111.526 45.7744 111.52 45.7187 111.525 45.6635C111.53 45.6084 111.545 45.5548 111.571 45.5058C111.596 45.4567 111.631 45.4131 111.674 45.3776C111.716 45.3421 111.765 45.3153 111.818 45.2989C111.87 45.2824 111.926 45.2765 111.981 45.2815L115.635 45.6003L115.316 49.262C115.304 49.3721 115.249 49.473 115.163 49.543C115.078 49.613 114.968 49.6464 114.858 49.6361Z" fill="#F0F0F0"/>
<path d="M113.563 69.2832L109.909 68.9644C109.854 68.9595 109.8 68.9437 109.751 68.9179C109.702 68.8922 109.659 68.857 109.623 68.8145C109.588 68.7719 109.561 68.7227 109.544 68.6698C109.528 68.6169 109.522 68.5612 109.527 68.5061C109.532 68.451 109.547 68.3974 109.573 68.3483C109.598 68.2992 109.633 68.2557 109.675 68.2202C109.718 68.1847 109.767 68.1579 109.82 68.1414C109.872 68.1249 109.928 68.119 109.983 68.1241L112.796 68.3691L113.041 65.5582C113.046 65.5028 113.062 65.4488 113.087 65.3995C113.113 65.3501 113.148 65.3062 113.19 65.2705C113.233 65.2347 113.282 65.2078 113.335 65.1911C113.389 65.1745 113.444 65.1686 113.5 65.1736C113.555 65.1783 113.608 65.1937 113.658 65.2192C113.707 65.2447 113.75 65.2796 113.786 65.3219C113.821 65.3643 113.848 65.4133 113.864 65.4661C113.881 65.5188 113.887 65.5743 113.882 65.6294L113.563 69.2832Z" fill="#F0F0F0"/>
<path d="M99.0069 68.0028L95.353 67.6814L95.6718 64.0302C95.6825 63.9188 95.7365 63.8161 95.8223 63.7441C95.908 63.6722 96.0186 63.6368 96.1302 63.6456C96.1854 63.6506 96.239 63.6664 96.2881 63.6921C96.3372 63.7178 96.3807 63.753 96.4162 63.7956C96.4517 63.8382 96.4784 63.8873 96.4949 63.9402C96.5114 63.9931 96.5172 64.0488 96.5121 64.104L96.2671 66.9122L99.078 67.1598C99.1332 67.1645 99.1869 67.1799 99.2361 67.2054C99.2853 67.2308 99.329 67.2657 99.3647 67.308C99.4005 67.3503 99.4275 67.3993 99.4443 67.452C99.4611 67.5048 99.4673 67.5604 99.4626 67.6156C99.4532 67.7272 99.4 67.8306 99.3146 67.9032C99.2292 67.9757 99.1186 68.0116 99.0069 68.0028Z" fill="#F0F0F0"/>
<path d="M19.8289 60.0971C19.7602 60.1022 19.6923 60.0803 19.6396 60.036C19.5869 59.9917 19.5537 59.9285 19.547 59.86L19.3521 57.6155L21.5965 57.418C21.6652 57.4128 21.7331 57.4348 21.7858 57.4791C21.8384 57.5234 21.8717 57.5866 21.8784 57.6551C21.8828 57.7233 21.8606 57.7905 21.8163 57.8426C21.7721 57.8947 21.7093 57.9276 21.6413 57.9343L19.9132 58.0871L20.0633 59.8152C20.0685 59.8835 20.0469 59.951 20.0032 60.0036C19.9594 60.0563 19.8969 60.0898 19.8289 60.0971Z" fill="#E0E0E0"/>
<path d="M30.5069 59.1621C30.4387 59.1673 30.3711 59.1457 30.3185 59.1019C30.2659 59.0582 30.2324 58.9957 30.2251 58.9276L30.0749 57.1969L28.3441 57.3497C28.2755 57.3548 28.2076 57.3329 28.1549 57.2886C28.1022 57.2442 28.069 57.1811 28.0623 57.1126C28.0571 57.0439 28.079 56.976 28.1234 56.9233C28.1677 56.8706 28.2308 56.8374 28.2994 56.8307L30.5438 56.6357L30.7414 58.8802C30.7466 58.9484 30.725 59.016 30.6812 59.0686C30.6375 59.1212 30.575 59.1547 30.5069 59.1621Z" fill="#E0E0E0"/>
<path d="M31.6142 68.8326L29.3671 69.0302C29.2984 69.0354 29.2305 69.0134 29.1778 68.9691C29.1251 68.9248 29.0919 68.8616 29.0852 68.7931C29.0801 68.7245 29.102 68.6566 29.1463 68.6039C29.1906 68.5512 29.2538 68.518 29.3223 68.5113L31.0504 68.3611L30.9003 66.633C30.8951 66.5647 30.9167 66.4972 30.9604 66.4446C31.0042 66.3919 31.0667 66.3584 31.1347 66.3511C31.203 66.3459 31.2705 66.3675 31.3231 66.4112C31.3758 66.455 31.4093 66.5175 31.4166 66.5856L31.6142 68.8326Z" fill="#E0E0E0"/>
<path d="M22.6642 69.6149L20.4276 69.8099L20.23 67.5628C20.2256 67.4946 20.2479 67.4273 20.2921 67.3752C20.3364 67.3231 20.3991 67.2902 20.4671 67.2835C20.5349 67.2791 20.6018 67.301 20.6539 67.3446C20.7059 67.3883 20.739 67.4504 20.7464 67.518L20.8992 69.2487L22.6273 69.096C22.6959 69.0908 22.7639 69.1127 22.8166 69.157C22.8692 69.2014 22.9025 69.2645 22.9092 69.333C22.9117 69.3677 22.9073 69.4024 22.8964 69.4353C22.8854 69.4683 22.868 69.4987 22.8453 69.5249C22.8225 69.5511 22.7948 69.5725 22.7637 69.588C22.7326 69.6034 22.6988 69.6126 22.6642 69.6149Z" fill="#E0E0E0"/>
<path d="M30.327 22.6553L21.7443 23.3929L21.5678 21.3829C21.5549 20.4236 21.9052 19.4949 22.5485 18.7831C23.1917 18.0713 24.0803 17.629 25.036 17.545C25.9917 17.461 26.9438 17.7415 27.7013 18.3302C28.4589 18.9189 28.9658 19.7722 29.1205 20.719L29.2206 21.8887L30.4613 21.7807L30.3586 20.611C30.3008 19.9513 30.1137 19.3094 29.8078 18.722C29.502 18.1346 29.0835 17.6132 28.5761 17.1876C28.0688 16.762 27.4826 16.4404 26.851 16.2413C26.2193 16.0422 25.5547 15.9695 24.895 16.0273C23.5626 16.144 22.3312 16.7851 21.4716 17.8098C21.0459 18.3171 20.7244 18.9033 20.5253 19.5349C20.3262 20.1665 20.2535 20.8312 20.3112 21.4909L20.4877 23.5141C19.999 23.6097 19.5629 23.8827 19.2634 24.2805C18.9638 24.6783 18.8219 25.1728 18.865 25.669L19.4788 32.6868C19.5007 32.9517 19.5747 33.2096 19.6965 33.4458C19.8184 33.682 19.9857 33.8918 20.1889 34.0632C20.3921 34.2345 20.6271 34.364 20.8804 34.4443C21.1338 34.5246 21.4005 34.554 21.6653 34.5309L31.2885 33.6905C31.5534 33.6686 31.8113 33.5946 32.0475 33.4728C32.2837 33.3509 32.4935 33.1836 32.6649 32.9804C32.8362 32.7773 32.9657 32.5422 33.046 32.2889C33.1263 32.0355 33.1557 31.7688 33.1326 31.504L32.5188 24.4861C32.4953 24.2219 32.4199 23.965 32.297 23.7299C32.1741 23.4949 32.006 23.2863 31.8025 23.1163C31.5989 22.9463 31.3638 22.818 31.1106 22.7389C30.8574 22.6598 30.5912 22.6314 30.327 22.6553ZM26.6758 28.0636L26.8865 30.4793C26.9007 30.5765 26.8949 30.6756 26.8695 30.7705C26.844 30.8654 26.7994 30.9541 26.7385 31.0311C26.6776 31.1082 26.6015 31.172 26.5151 31.2187C26.4286 31.2653 26.3335 31.2939 26.2356 31.3025C26.1378 31.3111 26.0391 31.2996 25.9459 31.2688C25.8526 31.238 25.7665 31.1885 25.6931 31.1232C25.6196 31.058 25.5602 30.9784 25.5186 30.8895C25.4769 30.8005 25.4539 30.7039 25.4508 30.6057L25.2401 28.1874C25.0228 28.0539 24.8531 27.8553 24.7552 27.6198C24.6573 27.3843 24.6363 27.1239 24.695 26.8757C24.7537 26.6275 24.8893 26.4042 25.0823 26.2376C25.2753 26.0709 25.516 25.9694 25.7701 25.9474C26.0242 25.9255 26.2787 25.9843 26.4975 26.1155C26.7162 26.2467 26.8879 26.4435 26.9883 26.678C27.0886 26.9124 27.1124 27.1726 27.0563 27.4213C27.0002 27.6701 26.8671 27.8949 26.6758 28.0636Z" fill="#EBEBEB"/>
<path d="M45.0406 26.7095L44.1739 25.2896C43.737 25.3518 43.2936 25.3518 42.8567 25.2896L41.9874 26.7042L41.8214 26.6594C41.2581 26.511 40.7175 26.2868 40.2145 25.993L40.0669 25.9087L40.4331 24.3702C40.4402 24.3404 40.4532 24.3122 40.4712 24.2874C40.4893 24.2626 40.5121 24.2416 40.5383 24.2257C40.5645 24.2098 40.5936 24.1992 40.624 24.1946C40.6543 24.19 40.6852 24.1915 40.715 24.199C40.7747 24.2133 40.8263 24.2508 40.8584 24.3032C40.8905 24.3555 40.9005 24.4185 40.8862 24.4782L40.5964 25.6768C40.9708 25.8808 41.3655 26.045 41.774 26.1668L42.6222 24.7812L42.7777 24.8075C43.2698 24.8866 43.7713 24.8866 44.2634 24.8075L44.4162 24.7812L45.2645 26.1668C45.6734 26.046 46.0681 25.8817 46.442 25.6768L46.0653 24.0962L46.1918 24.004C46.5349 23.7565 46.8425 23.4632 47.1059 23.1321C47.1425 23.0844 47.1962 23.0528 47.2557 23.0439C47.3152 23.0351 47.3757 23.0497 47.4246 23.0846C47.4503 23.1024 47.472 23.1252 47.4885 23.1517C47.505 23.1781 47.5159 23.2077 47.5206 23.2385C47.5253 23.2693 47.5236 23.3008 47.5157 23.331C47.5078 23.3611 47.4939 23.3894 47.4747 23.4139C47.2158 23.7408 46.9177 24.0346 46.5869 24.2885L46.9742 25.9034L46.824 25.9877C46.3217 26.2811 45.782 26.5053 45.2197 26.6542L45.0406 26.7095ZM39.7139 23.6168C39.6428 23.5351 39.5717 23.4482 39.5032 23.3533L37.8883 23.7406L37.8014 23.5931C37.5097 23.089 37.2856 22.5487 37.1349 21.9861L37.0928 21.8202L38.5074 20.9508C38.4452 20.514 38.4452 20.0705 38.5074 19.6337L37.0928 18.767L37.1349 18.5984C37.2856 18.0366 37.5097 17.4972 37.8014 16.9941L37.8883 16.8439L39.5032 17.2311C39.7728 16.8783 40.0882 16.5629 40.441 16.2933L40.1486 15.071C40.1343 15.0113 40.1444 14.9483 40.1765 14.896C40.2086 14.8436 40.2601 14.8061 40.3198 14.7918C40.3492 14.7847 40.3798 14.7836 40.4096 14.7884C40.4395 14.7932 40.4681 14.8039 40.4938 14.8198C40.5195 14.8357 40.5418 14.8565 40.5594 14.8811C40.577 14.9057 40.5896 14.9335 40.5964 14.963L40.9626 16.4856L40.8362 16.5752C40.4303 16.8672 40.0745 17.2231 39.7824 17.6289L39.6902 17.7554L38.1096 17.3787C37.9048 17.7526 37.7405 18.1474 37.6196 18.5562L39.0027 19.4045L38.979 19.5573C38.891 20.0486 38.891 20.5517 38.979 21.043L39.0027 21.1985L37.6196 22.0467C37.741 22.4546 37.9052 22.8484 38.1096 23.2216L39.6902 22.8449L39.7824 22.9714C39.8643 23.0908 39.9522 23.206 40.0459 23.3165C40.0865 23.3591 40.1091 23.4157 40.1091 23.4745C40.1091 23.5334 40.0865 23.59 40.0459 23.6326C40.0234 23.6541 39.9968 23.6708 39.9677 23.6817C39.9386 23.6926 39.9076 23.6974 39.8765 23.6959C39.8455 23.6944 39.815 23.6867 39.7871 23.6731C39.7591 23.6595 39.7343 23.6403 39.7139 23.6168ZM49.1291 23.7459L48.5337 23.6036C48.474 23.5892 48.4224 23.5518 48.3903 23.4994C48.3582 23.4471 48.3482 23.3841 48.3625 23.3244C48.3768 23.2647 48.4143 23.2131 48.4667 23.181C48.519 23.1489 48.582 23.1389 48.6417 23.1531L48.9051 23.2137C49.1087 22.8404 49.2721 22.4466 49.3925 22.0388L48.0095 21.1906L48.0358 21.0351C48.1238 20.5438 48.1238 20.0407 48.0358 19.5494L48.0095 19.3966L49.3925 18.5483C49.2726 18.1395 49.1092 17.7448 48.9051 17.3708L47.3245 17.7475L47.235 17.621C46.9422 17.2158 46.5865 16.86 46.1812 16.5673L46.0548 16.4777L46.4315 14.8971C46.0575 14.6931 45.6627 14.5297 45.254 14.4098L44.3978 15.806L44.245 15.7796C43.7529 15.7006 43.2513 15.7006 42.7592 15.7796L42.6038 15.806L41.7635 14.415L41.6054 14.4625C41.5491 14.481 41.4878 14.4768 41.4347 14.4507C41.3815 14.4246 41.3406 14.3787 41.3209 14.3228C41.31 14.294 41.305 14.2632 41.3062 14.2324C41.3073 14.2016 41.3146 14.1713 41.3276 14.1433C41.3406 14.1154 41.3591 14.0903 41.3819 14.0695C41.4047 14.0488 41.4314 14.0328 41.4605 14.0225C41.5764 13.9856 41.695 13.9514 41.8109 13.9198L41.9768 13.875L42.8462 15.2923C43.2828 15.2274 43.7267 15.2274 44.1633 15.2923L45.03 13.875L45.1986 13.9198C45.7606 14.0698 46.3001 14.294 46.8029 14.5863L46.9531 14.6732L46.5659 16.2881C46.9192 16.5571 47.2346 16.8725 47.5037 17.2259L49.1185 16.8386L49.2055 16.9888C49.4982 17.4914 49.7224 18.031 49.8719 18.5931L49.9167 18.7617L48.4995 19.6284C48.5651 20.065 48.5651 20.509 48.4995 20.9456L49.9167 21.8149L49.8719 21.9809C49.7224 22.5438 49.4982 23.0842 49.2055 23.5878L49.1291 23.7459ZM43.4442 22.5499C42.8701 22.5271 42.3258 22.2889 41.9196 21.8827C41.5134 21.4765 41.2751 20.9321 41.2524 20.3581C41.2367 19.7935 41.433 19.2435 41.8026 18.8164C42.1721 18.3893 42.6882 18.116 43.2492 18.0504C43.2821 18.0463 43.3155 18.0493 43.3472 18.059C43.3789 18.0688 43.4082 18.0852 43.4331 18.1071C43.458 18.129 43.478 18.1559 43.4917 18.1861C43.5054 18.2163 43.5125 18.2491 43.5127 18.2822C43.5124 18.3383 43.4916 18.3923 43.4542 18.434C43.4168 18.4758 43.3655 18.5024 43.3098 18.5088C42.9194 18.5533 42.5545 18.7248 42.271 18.9968C41.9875 19.2688 41.8011 19.6264 41.7406 20.0146C41.68 20.4028 41.7485 20.8002 41.9356 21.1456C42.1228 21.4911 42.4181 21.7656 42.7764 21.927C43.1346 22.0883 43.5359 22.1276 43.9186 22.0388C44.3014 21.95 44.6444 21.7379 44.8949 21.4353C45.1455 21.1327 45.2898 20.7561 45.3056 20.3636C45.3215 19.971 45.208 19.5841 44.9826 19.2622C44.9501 19.2166 44.9358 19.1605 44.9427 19.1049C44.9495 19.0493 44.9769 18.9983 45.0195 18.9619C45.0441 18.9401 45.073 18.9237 45.1044 18.9139C45.1358 18.9041 45.1689 18.9011 45.2016 18.9051C45.2342 18.9091 45.2656 18.92 45.2937 18.937C45.3218 18.9541 45.346 18.9769 45.3646 19.0041C45.6042 19.3469 45.7438 19.7496 45.7677 20.1672C45.7915 20.5848 45.6988 21.0008 45.4998 21.3687C45.3008 21.7366 45.0034 22.042 44.6409 22.2506C44.2783 22.4591 43.8649 22.5628 43.4468 22.5499H43.4442Z" fill="#F0F0F0"/>
<path d="M28.6749 45.9928L28.1137 45.0787C27.8299 45.1209 27.5414 45.1209 27.2576 45.0787L26.6965 45.9928L26.5885 45.9639C26.2248 45.8679 25.8757 45.7235 25.5505 45.5345L25.4557 45.4792L25.6928 44.4834C25.7022 44.4451 25.7262 44.4121 25.7597 44.3914C25.7932 44.3707 25.8335 44.364 25.8719 44.3727C25.8911 44.3774 25.9093 44.3857 25.9252 44.3974C25.9412 44.4091 25.9547 44.4237 25.965 44.4406C25.9753 44.4575 25.9821 44.4763 25.9851 44.4958C25.9881 44.5154 25.9873 44.5353 25.9826 44.5545L25.7982 45.329C26.0398 45.4614 26.2951 45.5674 26.5595 45.6451L27.1074 44.7521L27.2049 44.7679C27.5232 44.8206 27.8481 44.8206 28.1664 44.7679L28.2639 44.7521L28.8145 45.6451C29.0774 45.5657 29.3316 45.4598 29.5732 45.329L29.3308 44.3121L29.4125 44.2515C29.6339 44.0924 29.8325 43.9036 30.0026 43.6904C30.0257 43.6591 30.0603 43.6382 30.0988 43.6323C30.1373 43.6264 30.1765 43.6359 30.208 43.6588C30.2242 43.6703 30.2379 43.685 30.2484 43.7018C30.2589 43.7187 30.266 43.7375 30.2691 43.7571C30.2723 43.7767 30.2716 43.7967 30.267 43.816C30.2624 43.8353 30.254 43.8535 30.2423 43.8696C30.0745 44.0809 29.8816 44.2711 29.668 44.436L29.9314 45.4897L29.834 45.545C29.509 45.7345 29.1599 45.8789 28.796 45.9744L28.6749 45.9928ZM25.2344 43.9934L25.0974 43.8274L24.0437 44.075L23.9884 43.9802C23.8028 43.6537 23.6619 43.3037 23.5695 42.9396L23.5405 42.8316L24.4546 42.2705C24.4125 41.9867 24.4125 41.6982 24.4546 41.4144L23.5405 40.8533L23.5695 40.7452C23.665 40.3814 23.8094 40.0323 23.9989 39.7073L24.0542 39.6098L25.108 39.8733C25.2774 39.6426 25.4747 39.4338 25.6954 39.2516L25.5084 38.4613C25.5037 38.4422 25.5028 38.4225 25.5059 38.4031C25.5089 38.3837 25.5158 38.3652 25.5261 38.3485C25.5364 38.3318 25.5499 38.3174 25.5659 38.306C25.5818 38.2946 25.5999 38.2865 25.619 38.2821C25.6574 38.2734 25.6977 38.2801 25.7312 38.3008C25.7647 38.3215 25.7888 38.3545 25.7982 38.3928L26.0352 39.3754L25.9509 39.436C25.6899 39.6233 25.4612 39.8519 25.2739 40.113L25.2133 40.1947L24.1965 39.9523C24.0657 40.1938 23.9597 40.448 23.8804 40.711L24.7734 41.2589L24.7576 41.359C24.7304 41.5174 24.7163 41.6778 24.7154 41.8385C24.7163 42.0001 24.7304 42.1613 24.7576 42.3206L24.7734 42.4181L23.8804 42.966C23.9592 43.23 24.0652 43.4851 24.1965 43.7273L25.2133 43.4823L25.2739 43.564C25.3283 43.642 25.3873 43.7168 25.4504 43.7879C25.4764 43.8153 25.4908 43.8516 25.4908 43.8893C25.4908 43.9271 25.4764 43.9634 25.4504 43.9908C25.4368 44.0058 25.4202 44.0178 25.4017 44.0261C25.3833 44.0344 25.3633 44.0389 25.343 44.0391C25.3227 44.0394 25.3026 44.0354 25.2839 44.0276C25.2653 44.0197 25.2484 44.0081 25.2344 43.9934ZM31.3171 44.075L30.9325 43.9855C30.9133 43.9808 30.8951 43.9725 30.8792 43.9608C30.8632 43.9492 30.8497 43.9345 30.8394 43.9176C30.8291 43.9007 30.8223 43.8819 30.8193 43.8624C30.8163 43.8429 30.8171 43.8229 30.8218 43.8037C30.8262 43.7846 30.8343 43.7665 30.8457 43.7506C30.8571 43.7346 30.8715 43.7211 30.8882 43.7108C30.9049 43.7005 30.9234 43.6936 30.9428 43.6906C30.9622 43.6875 30.9819 43.6884 31.001 43.6931L31.1669 43.7326C31.2993 43.4909 31.4053 43.2356 31.4831 42.9713L30.59 42.4233L30.6058 42.3258C30.633 42.1666 30.6471 42.0053 30.648 41.8438C30.6471 41.6831 30.633 41.5227 30.6058 41.3643L30.59 41.2642L31.4831 40.7163C31.4048 40.4529 31.2989 40.1986 31.1669 39.9576L30.1501 40.1999L30.0895 40.1183C29.9022 39.8572 29.6735 39.6285 29.4125 39.4412L29.3308 39.3807L29.5732 38.3638C29.3322 38.2319 29.0778 38.1259 28.8145 38.0477L28.2639 38.9407L28.1664 38.9249C27.8481 38.8722 27.5232 38.8722 27.2049 38.9249L27.1074 38.9407L26.5595 38.0477L26.4567 38.0793C26.42 38.0911 26.3802 38.088 26.3458 38.0708C26.3113 38.0535 26.2849 38.0235 26.2723 37.9871C26.2652 37.9686 26.2619 37.9489 26.2626 37.9291C26.2633 37.9093 26.268 37.8899 26.2763 37.8719C26.2847 37.854 26.2966 37.8379 26.3113 37.8247C26.326 37.8114 26.3432 37.8012 26.3619 37.7948L26.5885 37.7263L26.6965 37.7L27.2576 38.6141C27.5414 38.5719 27.8299 38.5719 28.1137 38.6141L28.6749 37.7L28.7829 37.7263C29.1464 37.8238 29.4954 37.9691 29.8208 38.1583L29.9183 38.2136L29.6548 39.2674C29.8817 39.4428 30.0853 39.6464 30.2607 39.8733L31.3145 39.6098L31.3698 39.7073C31.5592 40.0323 31.7037 40.3814 31.7992 40.7452L31.8282 40.8533L30.914 41.4144C30.9562 41.6982 30.9562 41.9867 30.914 42.2705L31.8282 42.8316L31.7992 42.9396C31.7032 43.3033 31.5588 43.6524 31.3698 43.9776L31.3171 44.075ZM27.6448 43.3032C27.2869 43.2786 26.9505 43.1231 26.7 42.8662C26.4494 42.6094 26.3023 42.2693 26.2867 41.9108C26.271 41.5524 26.388 41.2007 26.6152 40.923C26.8424 40.6453 27.1639 40.4611 27.5184 40.4054C27.5395 40.4032 27.5609 40.4054 27.5811 40.412C27.6013 40.4185 27.6199 40.4292 27.6358 40.4433C27.6517 40.4574 27.6644 40.4747 27.6732 40.494C27.682 40.5134 27.6867 40.5343 27.687 40.5556C27.6872 40.5921 27.6738 40.6274 27.6495 40.6547C27.6252 40.6819 27.5916 40.6992 27.5553 40.7031C27.3331 40.7285 27.123 40.8177 26.9503 40.9598C26.7776 41.102 26.6498 41.291 26.5821 41.5042C26.5145 41.7174 26.51 41.9456 26.5691 42.1612C26.6283 42.3769 26.7486 42.5709 26.9155 42.7198C27.0824 42.8686 27.2888 42.966 27.5098 43.0002C27.7309 43.0344 27.957 43.0039 28.1611 42.9124C28.3652 42.8209 28.5385 42.6723 28.66 42.4846C28.7815 42.2968 28.8462 42.078 28.8461 41.8543C28.8466 41.6165 28.7729 41.3844 28.6353 41.1904C28.6152 41.1605 28.6066 41.1244 28.6109 41.0886C28.6153 41.0528 28.6323 41.0197 28.659 40.9955C28.6749 40.9812 28.6936 40.9705 28.714 40.9641C28.7343 40.9576 28.7558 40.9556 28.777 40.9581C28.7981 40.9606 28.8186 40.9675 28.8368 40.9785C28.8551 40.9895 28.8708 41.0043 28.883 41.0219C29.037 41.2435 29.1266 41.5035 29.1417 41.7731C29.1569 42.0426 29.097 42.311 28.9686 42.5485C28.8403 42.786 28.6487 42.9833 28.415 43.1184C28.1813 43.2535 27.9147 43.3211 27.6448 43.3137V43.3032Z" fill="#E6E6E6"/>
<path d="M65.9991 98C94.2082 98 117.076 96.6649 117.076 95.018C117.076 93.371 94.2082 92.0359 65.9991 92.0359C37.7899 92.0359 14.9219 93.371 14.9219 95.018C14.9219 96.6649 37.7899 98 65.9991 98Z" fill="#F5F5F5"/>
<path d="M95.8878 23.9277H87.3104L81.2515 93.2767H89.8289C91.0327 93.2534 92.1865 92.7905 93.0726 91.9753C93.9587 91.16 94.5159 90.0487 94.6392 88.851L99.9316 28.3508C99.993 27.7871 99.9337 27.2168 99.7575 26.6778C99.5813 26.1388 99.2922 25.6436 98.9096 25.2251C98.527 24.8066 98.0596 24.4744 97.5386 24.2507C97.0175 24.027 96.4548 23.9169 95.8878 23.9277Z" fill="#407BFF"/>
<path d="M94.1389 23.9277H65.1085C63.9046 23.9502 62.7505 24.4125 61.8639 25.2272C60.9774 26.042 60.4195 27.153 60.2956 28.3507L55.0032 88.8509C54.9422 89.4142 55.0017 89.984 55.1778 90.5226C55.3538 91.0611 55.6424 91.556 56.0243 91.9745C56.4062 92.3931 56.8727 92.7256 57.3929 92.9501C57.9131 93.1746 58.4751 93.2859 59.0416 93.2766H88.0694C89.2717 93.2509 90.4232 92.7869 91.3075 91.972C92.1919 91.157 92.7481 90.0471 92.8718 88.8509L98.1642 28.3507C98.2254 27.7886 98.1666 27.2199 97.9914 26.6822C97.8163 26.1445 97.5289 25.6502 97.1483 25.232C96.7677 24.8138 96.3026 24.4813 95.7838 24.2564C95.265 24.0315 94.7043 23.9195 94.1389 23.9277Z" fill="#407BFF"/>
<path opacity="0.3" d="M94.1389 23.9277H65.1085C63.9046 23.9502 62.7505 24.4125 61.8639 25.2272C60.9774 26.042 60.4195 27.153 60.2956 28.3507L55.0032 88.8509C54.9422 89.4142 55.0017 89.984 55.1778 90.5226C55.3538 91.0611 55.6424 91.556 56.0243 91.9745C56.4062 92.3931 56.8727 92.7256 57.3929 92.9501C57.9131 93.1746 58.4751 93.2859 59.0416 93.2766H88.0694C89.2717 93.2509 90.4232 92.7869 91.3075 91.972C92.1919 91.157 92.7481 90.0471 92.8718 88.8509L98.1642 28.3507C98.2254 27.7886 98.1666 27.2199 97.9914 26.6822C97.8163 26.1445 97.5289 25.6502 97.1483 25.232C96.7677 24.8138 96.3026 24.4813 95.7838 24.2564C95.265 24.0315 94.7043 23.9195 94.1389 23.9277Z" fill="white"/>
<path opacity="0.4" d="M94.0164 25.3449H86.361C86.1328 25.3468 85.9103 25.4171 85.7225 25.5467C85.5346 25.6763 85.39 25.8593 85.3072 26.072C85.0053 26.8533 84.4775 27.5269 83.791 28.0069C83.1046 28.4869 82.2907 28.7515 81.4532 28.7669H76.9379C76.1492 28.7828 75.3796 28.5232 74.7617 28.0327C74.1438 27.5422 73.7163 26.8517 73.5528 26.0799C73.5092 25.8711 73.394 25.6841 73.227 25.5513C73.0601 25.4185 72.852 25.3483 72.6387 25.3528H64.986C64.1677 25.3673 63.3831 25.6812 62.7807 26.2351C62.1783 26.789 61.7997 27.5444 61.7167 28.3586L56.4217 88.8588C56.3793 89.2419 56.4191 89.6296 56.5384 89.996C56.6577 90.3625 56.8538 90.6993 57.1136 90.984C57.3733 91.2688 57.6908 91.4948 58.0449 91.6471C58.3989 91.7994 58.7814 91.8744 59.1667 91.8672H88.1971C89.0156 91.8521 89.8002 91.5377 90.4026 90.9833C91.0049 90.429 91.3834 89.6732 91.4663 88.8588L96.7587 28.3586C96.8019 27.9753 96.7628 27.5873 96.644 27.2204C96.5252 26.8534 96.3295 26.5161 96.0699 26.2308C95.8103 25.9456 95.4929 25.719 95.1388 25.5662C94.7846 25.4134 94.402 25.338 94.0164 25.3449Z" fill="white"/>
<path d="M86.7813 58.2188H66.4653C66.3257 58.2211 66.1872 58.1937 66.0589 58.1384C65.9307 58.0831 65.8157 58.0011 65.7215 57.898C65.6274 57.7949 65.5562 57.6729 65.5128 57.5402C65.4693 57.4075 65.4546 57.267 65.4695 57.1282L65.5723 55.9638C65.6025 55.6686 65.7397 55.3946 65.9582 55.1937C66.1766 54.9927 66.461 54.8787 66.7577 54.8732H87.0764C87.216 54.8709 87.3545 54.8983 87.4828 54.9536C87.611 55.0089 87.726 55.0908 87.8202 55.194C87.9143 55.2971 87.9855 55.4191 88.0289 55.5518C88.0724 55.6845 88.0871 55.825 88.0722 55.9638L87.972 57.1282C87.9412 57.4241 87.803 57.6984 87.5836 57.8994C87.3642 58.1003 87.0788 58.214 86.7813 58.2188Z" fill="white"/>
<path d="M86.3432 63.2242H66.0245C65.885 63.2265 65.7465 63.1991 65.6184 63.1438C65.4903 63.0884 65.3754 63.0065 65.2815 62.9033C65.1875 62.8001 65.1166 62.6781 65.0735 62.5454C65.0304 62.4126 65.016 62.2722 65.0314 62.1335L65.1315 60.9692C65.1622 60.6741 65.2997 60.4005 65.5179 60.1997C65.7362 59.9989 66.0204 59.8847 66.3169 59.8786H86.6356C86.7752 59.8763 86.9137 59.9037 87.0419 59.959C87.1702 60.0143 87.2852 60.0962 87.3794 60.1993C87.4735 60.3025 87.5447 60.4244 87.5881 60.5572C87.6316 60.6899 87.6463 60.8303 87.6313 60.9692L87.5286 62.1335C87.4978 62.4286 87.3604 62.7022 87.1421 62.903C86.9238 63.1039 86.6397 63.2181 86.3432 63.2242Z" fill="white"/>
<path opacity="0.1" d="M80.6081 26.4776C80.5746 26.8055 80.422 27.1096 80.1793 27.3325C79.9365 27.5554 79.6204 27.6814 79.2909 27.6868C79.1361 27.6896 78.9824 27.6594 78.8401 27.5981C78.6978 27.5369 78.5702 27.4461 78.4658 27.3317C78.3614 27.2173 78.2825 27.0819 78.2345 26.9347C78.1864 26.7874 78.1703 26.6316 78.1871 26.4776C78.2206 26.1498 78.3732 25.8456 78.616 25.6228C78.8587 25.3999 79.1748 25.2739 79.5043 25.2685C79.6592 25.2657 79.8129 25.2959 79.9551 25.3572C80.0974 25.4184 80.225 25.5092 80.3294 25.6236C80.4339 25.738 80.5127 25.8734 80.5608 26.0206C80.6088 26.1679 80.625 26.3237 80.6081 26.4776Z" fill="black"/>
<path opacity="0.1" d="M80.0629 26.4777C80.0443 26.6567 79.9609 26.8226 79.8285 26.9444C79.696 27.0662 79.5236 27.1354 79.3437 27.1389C79.259 27.1406 79.175 27.1241 79.0971 27.0906C79.0193 27.0572 78.9495 27.0075 78.8924 26.9449C78.8353 26.8823 78.7922 26.8083 78.766 26.7277C78.7398 26.6471 78.7311 26.5619 78.7405 26.4777C78.7585 26.2985 78.8417 26.1322 78.9743 26.0103C79.1069 25.8884 79.2796 25.8194 79.4597 25.8165C79.5442 25.8152 79.6281 25.832 79.7058 25.8656C79.7834 25.8992 79.853 25.9489 79.91 26.0114C79.9671 26.0739 80.0102 26.1477 80.0365 26.2281C80.0629 26.3085 80.0719 26.3936 80.0629 26.4777Z" fill="black"/>
<g opacity="0.8">
<path d="M90.4401 28.4956C90.3946 28.4963 90.3496 28.4872 90.3078 28.4692C90.2661 28.4511 90.2287 28.4243 90.1981 28.3907C90.1675 28.3571 90.1443 28.3174 90.1302 28.2742C90.116 28.2309 90.1112 28.1852 90.1161 28.14L90.174 27.4919C90.1837 27.3962 90.2282 27.3073 90.2992 27.2422C90.3701 27.1772 90.4624 27.1404 90.5587 27.1389C90.6039 27.1384 90.6487 27.1473 90.6902 27.1652C90.7318 27.1832 90.769 27.2097 90.7996 27.243C90.8302 27.2763 90.8534 27.3157 90.8677 27.3586C90.882 27.4015 90.8871 27.4469 90.8827 27.4919L90.8247 28.14C90.8151 28.236 90.7707 28.3252 90.6998 28.3907C90.629 28.4562 90.5366 28.4935 90.4401 28.4956Z" fill="white"/>
<path d="M93.2736 28.4958C93.2281 28.4964 93.1831 28.4874 93.1413 28.4693C93.0996 28.4512 93.0622 28.4245 93.0316 28.3909C93.001 28.3572 92.9778 28.3175 92.9637 28.2743C92.9495 28.2311 92.9447 28.1853 92.9496 28.1401L93.0839 26.6201C93.0936 26.5244 93.1381 26.4355 93.2091 26.3704C93.28 26.3053 93.3723 26.2686 93.4686 26.2671C93.5138 26.2665 93.5586 26.2755 93.6001 26.2934C93.6417 26.3113 93.6789 26.3378 93.7095 26.3711C93.7401 26.4045 93.7633 26.4439 93.7776 26.4868C93.7919 26.5297 93.797 26.5751 93.7926 26.6201L93.6582 28.1401C93.6486 28.2361 93.6042 28.3253 93.5333 28.3908C93.4625 28.4563 93.3701 28.4937 93.2736 28.4958Z" fill="white"/>
<path d="M91.8566 28.4957C91.8111 28.4963 91.7661 28.4873 91.7243 28.4692C91.6826 28.4511 91.6452 28.4244 91.6146 28.3908C91.584 28.3572 91.5608 28.3174 91.5467 28.2742C91.5325 28.231 91.5277 28.1853 91.5326 28.14L91.6274 27.0573C91.6371 26.9609 91.6819 26.8713 91.7533 26.8058C91.8247 26.7402 91.9177 26.7032 92.0147 26.7017C92.06 26.701 92.105 26.71 92.1467 26.7281C92.1883 26.7462 92.2255 26.773 92.2559 26.8067C92.2864 26.8404 92.3093 26.8801 92.3231 26.9234C92.3369 26.9666 92.3413 27.0123 92.3361 27.0573L92.2412 28.14C92.2316 28.2361 92.1872 28.3252 92.1163 28.3907C92.0455 28.4563 91.9531 28.4936 91.8566 28.4957Z" fill="white"/>
</g>
<g opacity="0.8">
<path d="M66.1718 28.4956H64.391C64.3654 28.4962 64.3399 28.4912 64.3164 28.4811C64.2928 28.471 64.2717 28.4559 64.2545 28.437C64.2373 28.418 64.2243 28.3955 64.2165 28.3711C64.2087 28.3467 64.2062 28.3209 64.2093 28.2954L64.2909 27.3392C64.2967 27.2849 64.3221 27.2346 64.3624 27.1977C64.4026 27.1608 64.455 27.1399 64.5096 27.139H66.2904C66.316 27.1384 66.3415 27.1434 66.365 27.1535C66.3886 27.1636 66.4097 27.1787 66.4269 27.1976C66.4441 27.2166 66.4571 27.2391 66.4649 27.2635C66.4727 27.2879 66.4752 27.3137 66.4722 27.3392L66.3879 28.2954C66.3833 28.3497 66.3586 28.4003 66.3186 28.4374C66.2787 28.4744 66.2263 28.4952 66.1718 28.4956Z" fill="white"/>
<path d="M66.9974 28.2347C66.9716 28.2352 66.9461 28.2303 66.9224 28.2202C66.8988 28.2101 66.8775 28.1951 66.8601 28.1761C66.8426 28.1572 66.8294 28.1348 66.8213 28.1104C66.8132 28.086 66.8103 28.0601 66.813 28.0345L66.8525 27.5972C66.8577 27.5427 66.8829 27.4921 66.9233 27.4551C66.9637 27.4181 67.0164 27.3974 67.0711 27.397C67.0967 27.3965 67.1222 27.4014 67.1457 27.4115C67.1693 27.4217 67.1904 27.4367 67.2076 27.4557C67.2249 27.4747 67.2378 27.4971 67.2456 27.5215C67.2534 27.546 67.2559 27.5718 67.2529 27.5972L67.216 28.0345C67.2102 28.0888 67.1848 28.1391 67.1446 28.176C67.1043 28.2129 67.0519 28.2338 66.9974 28.2347Z" fill="white"/>
</g>
<path d="M83.434 50.561C86.9789 47.1675 87.3324 41.7839 84.2236 38.5364C81.1148 35.2889 75.7209 35.4073 72.176 38.8008C68.6311 42.1943 68.2775 47.5779 71.3863 50.8254C74.4951 54.0729 79.889 53.9545 83.434 50.561Z" fill="white"/>
<path d="M77.8342 44.3569C75.6002 44.3569 73.7114 45.2078 73.5507 47.0545L73.3716 49.1066H81.4669L81.646 47.0545C81.8067 45.2078 80.0707 44.3569 77.8342 44.3569Z" fill="#407BFF"/>
<path d="M77.9081 43.5114C78.946 43.5114 79.4254 42.6711 79.515 41.6332C79.6046 40.5952 79.2753 39.7549 78.2374 39.7549C77.1994 39.7549 76.7226 40.5979 76.6304 41.6332C76.5382 42.6685 76.8701 43.5114 77.9081 43.5114Z" fill="#407BFF"/>
<path d="M85.8539 56.4749C85.3033 56.4749 84.837 56.6856 84.8002 57.1413L84.7554 57.6498H86.7548L86.7996 57.1413C86.8365 56.6856 86.4071 56.4749 85.8539 56.4749Z" fill="#407BFF"/>
<path d="M85.8717 56.2669C86.1351 56.2669 86.2458 56.0588 86.2695 55.8032C86.2932 55.5477 86.2089 55.3396 85.9534 55.3396C85.6978 55.3396 85.5793 55.5477 85.5556 55.8032C85.5319 56.0588 85.6162 56.2669 85.8717 56.2669Z" fill="#407BFF"/>
<path d="M79.7015 68.2294H71.7985C71.5842 68.2332 71.3716 68.1914 71.1747 68.1067C70.9778 68.022 70.8012 67.8964 70.6567 67.7381C70.5121 67.5799 70.4029 67.3927 70.3364 67.1889C70.2698 66.9852 70.2474 66.7696 70.2706 66.5565C70.3175 66.1036 70.5285 65.6834 70.8638 65.3752C71.1991 65.0671 71.6356 64.8923 72.0909 64.8837H79.9939C80.2081 64.8803 80.4206 64.9224 80.6173 65.0072C80.814 65.0921 80.9904 65.2177 81.1348 65.3759C81.2793 65.534 81.3885 65.7211 81.4552 65.9246C81.5219 66.1282 81.5447 66.3436 81.5219 66.5565C81.4755 67.0098 81.2647 67.4303 80.9293 67.7385C80.5938 68.0468 80.157 68.2214 79.7015 68.2294Z" fill="#407BFF"/>
<path d="M78.7429 86.8858H70.284C70.0571 86.892 69.8315 86.8491 69.6226 86.7603C69.4137 86.6714 69.2264 86.5386 69.0734 86.3709C68.9204 86.2032 68.8054 86.0045 68.7361 85.7883C68.6668 85.5721 68.6449 85.3436 68.6718 85.1182L69.2119 78.9485C69.2601 78.4699 69.4823 78.0256 69.8362 77.6999C70.1902 77.3741 70.6513 77.1894 71.1323 77.1809H79.5938C79.8201 77.1769 80.0447 77.2212 80.2525 77.3108C80.4604 77.4004 80.6468 77.5332 80.7993 77.7004C80.9518 77.8677 81.067 78.0655 81.1371 78.2807C81.2072 78.4959 81.2307 78.7236 81.206 78.9485L80.666 85.1182C80.6165 85.5968 80.3936 86.0408 80.0394 86.3664C79.6851 86.692 79.224 86.8768 78.7429 86.8858Z" fill="#407BFF"/>
<g opacity="0.6">
<path d="M76.137 80.5053C76.1508 80.3707 76.1359 80.2346 76.0932 80.1062C76.0506 79.9778 75.9811 79.8598 75.8895 79.7602C75.7978 79.6606 75.6861 79.5816 75.5616 79.5284C75.4372 79.4752 75.3029 79.449 75.1676 79.4516C74.8794 79.4557 74.6027 79.5652 74.3896 79.7593C74.1766 79.9534 74.0419 80.2188 74.0111 80.5053C73.9943 80.6656 74.0181 80.8275 74.0802 80.9762C74.1424 81.1249 74.2409 81.2555 74.3667 81.3562L74.1823 83.4821C74.1733 83.5627 74.1816 83.6442 74.2066 83.7212C74.2316 83.7983 74.2728 83.8691 74.3275 83.929C74.3821 83.9889 74.4489 84.0364 74.5233 84.0683C74.5978 84.1003 74.6782 84.116 74.7592 84.1144C74.9309 84.1107 75.0953 84.0445 75.2215 83.928C75.3476 83.8115 75.4268 83.6529 75.4442 83.4821L75.6312 81.3562C75.7723 81.2597 75.8907 81.1336 75.9781 80.9866C76.0654 80.8397 76.1197 80.6754 76.137 80.5053Z" fill="white"/>
</g>
<path d="M79.6673 78.4664H78.5767L78.8401 75.4132C78.8861 74.9895 78.8415 74.5608 78.7092 74.1556C78.5768 73.7505 78.3598 73.378 78.0726 73.0631C77.7853 72.7482 77.4344 72.498 77.043 72.3291C76.6517 72.1602 76.2289 72.0765 75.8027 72.0834C74.897 72.1011 74.029 72.4495 73.3623 73.0628C72.6956 73.6761 72.2762 74.5121 72.1832 75.4132L71.9197 78.4664H70.8291L71.0925 75.4132C71.2152 74.2174 71.7715 73.1078 72.6562 72.2939C73.5409 71.48 74.693 71.0181 75.8949 70.9955C76.4606 70.9858 77.0219 71.0966 77.5415 71.3205C78.061 71.5444 78.527 71.8763 78.9085 72.2942C79.2899 72.712 79.5781 73.2062 79.7539 73.744C79.9297 74.2818 79.9891 74.8508 79.9281 75.4132L79.6673 78.4664Z" fill="#407BFF"/>
<path d="M85.9893 61.1509L86.0235 60.8532C86.0306 60.7843 86.023 60.7145 86.0012 60.6487C85.9795 60.5828 85.9441 60.5223 85.8973 60.4711C85.8506 60.4199 85.7936 60.3791 85.73 60.3514C85.6664 60.3238 85.5976 60.3098 85.5283 60.3106C85.3807 60.3136 85.2393 60.3704 85.1307 60.4704C85.022 60.5703 84.9536 60.7064 84.9382 60.8532L84.9119 61.1457C84.8528 61.1473 84.7965 61.1704 84.7533 61.2107C84.7101 61.2509 84.6832 61.3056 84.6774 61.3643L84.6089 62.1546C84.6055 62.1822 84.608 62.2103 84.6165 62.2368C84.6249 62.2633 84.639 62.2877 84.6578 62.3082C84.6766 62.3288 84.6996 62.345 84.7253 62.3558C84.751 62.3665 84.7787 62.3716 84.8065 62.3706H85.8918C85.9506 62.3696 86.0069 62.3471 86.0502 62.3072C86.0934 62.2674 86.1205 62.2131 86.1263 62.1546L86.1948 61.3643C86.197 61.3364 86.1933 61.3083 86.1839 61.2819C86.1745 61.2555 86.1596 61.2315 86.1402 61.2113C86.1207 61.1911 86.0972 61.1753 86.0712 61.1649C86.0452 61.1545 86.0173 61.1497 85.9893 61.1509ZM85.4967 60.4502C85.5489 60.4496 85.6007 60.46 85.6487 60.4807C85.6967 60.5015 85.7397 60.5322 85.775 60.5707C85.8103 60.6092 85.8371 60.6548 85.8536 60.7044C85.8701 60.754 85.8759 60.8065 85.8708 60.8585L85.8444 61.1509H85.0278L85.0541 60.8585C85.0656 60.7483 85.1169 60.646 85.1984 60.5708C85.2798 60.4957 85.3859 60.4528 85.4967 60.4502Z" fill="#407BFF"/>
<path d="M69.6506 61.4643L69.2712 61.3853C69.2607 61.3831 69.2507 61.3786 69.2422 61.372C69.2336 61.3655 69.2267 61.3571 69.2218 61.3474C69.217 61.3378 69.2145 61.3271 69.2143 61.3164C69.2142 61.3056 69.2166 61.2949 69.2212 61.2852L69.3792 60.9111C69.3858 60.8949 69.3864 60.877 69.381 60.8604C69.3756 60.8438 69.3645 60.8297 69.3496 60.8205C69.3348 60.8114 69.3172 60.8078 69.2999 60.8104C69.2827 60.813 69.2669 60.8216 69.2554 60.8347L68.9683 61.1297C68.9614 61.1385 68.9526 61.1456 68.9425 61.1505C68.9325 61.1554 68.9215 61.1579 68.9103 61.1579C68.8992 61.1579 68.8881 61.1554 68.8781 61.1505C68.8681 61.1456 68.8593 61.1385 68.8524 61.1297L68.6179 60.8347C68.5678 60.7715 68.4598 60.8347 68.4783 60.9111L68.5705 61.2852C68.5732 61.2961 68.5736 61.3075 68.5717 61.3186C68.5698 61.3296 68.5656 61.3402 68.5594 61.3496C68.5532 61.359 68.5452 61.367 68.5357 61.3732C68.5263 61.3793 68.5157 61.3834 68.5046 61.3853L68.1121 61.4643C68.0278 61.4801 68.0173 61.5987 68.0989 61.6145L68.4783 61.6935C68.4889 61.6955 68.4989 61.7 68.5074 61.7066C68.516 61.7132 68.5228 61.7217 68.5275 61.7315C68.5321 61.7412 68.5343 61.752 68.534 61.7628C68.5337 61.7736 68.5309 61.7841 68.5257 61.7936L68.3729 62.1703C68.3663 62.1865 68.3657 62.2044 68.3711 62.221C68.3765 62.2376 68.3876 62.2517 68.4025 62.2609C68.4173 62.2701 68.435 62.2737 68.4522 62.2711C68.4695 62.2685 68.4852 62.2598 68.4967 62.2467L68.7839 61.9517C68.7913 61.9437 68.8002 61.9373 68.8102 61.933C68.8202 61.9286 68.8309 61.9264 68.8418 61.9264C68.8527 61.9264 68.8635 61.9286 68.8734 61.933C68.8834 61.9373 68.8924 61.9437 68.8998 61.9517L69.1342 62.2467C69.1843 62.3099 69.2923 62.2467 69.2712 62.1703L69.179 61.7962C69.1751 61.7739 69.1801 61.751 69.1929 61.7323C69.2057 61.7136 69.2253 61.7006 69.2475 61.6961L69.64 61.6171C69.7217 61.5987 69.7322 61.4801 69.6506 61.4643Z" fill="#263238"/>
<path d="M72.1432 61.4643L71.7639 61.3853C71.7533 61.3831 71.7434 61.3786 71.7348 61.372C71.7263 61.3655 71.7193 61.357 71.7145 61.3474C71.7097 61.3378 71.7071 61.3271 71.707 61.3164C71.7069 61.3056 71.7092 61.2949 71.7138 61.2852L71.8719 60.9111C71.8785 60.8949 71.8791 60.877 71.8737 60.8604C71.8683 60.8438 71.8572 60.8297 71.8423 60.8205C71.8275 60.8114 71.8098 60.8078 71.7926 60.8104C71.7753 60.813 71.7596 60.8216 71.7481 60.8347L71.4609 61.1297C71.454 61.1385 71.4452 61.1456 71.4352 61.1505C71.4252 61.1554 71.4141 61.1579 71.403 61.1579C71.3918 61.1579 71.3808 61.1554 71.3708 61.1505C71.3607 61.1456 71.3519 61.1385 71.345 61.1297L71.1106 60.8347C71.0605 60.7715 70.9525 60.8347 70.9736 60.9111L71.0658 61.2852C71.0681 61.2963 71.0681 61.3077 71.0659 61.3188C71.0636 61.3299 71.0592 61.3404 71.0528 61.3498C71.0464 61.3591 71.0382 61.3671 71.0287 61.3732C71.0191 61.3793 71.0085 61.3834 70.9973 61.3853L70.6048 61.4643C70.5205 61.4801 70.5099 61.5987 70.5916 61.6145L70.971 61.6935C70.9815 61.6957 70.9915 61.7002 71 61.7068C71.0086 61.7133 71.0155 61.7217 71.0203 61.7314C71.0251 61.741 71.0277 61.7516 71.0278 61.7624C71.028 61.7732 71.0256 61.7839 71.021 61.7936L70.8629 62.1677C70.8564 62.1838 70.8557 62.2018 70.8611 62.2184C70.8666 62.235 70.8777 62.2491 70.8925 62.2583C70.9074 62.2674 70.925 62.271 70.9422 62.2684C70.9595 62.2658 70.9753 62.2572 70.9868 62.2441L71.2739 61.949C71.2813 61.9411 71.2903 61.9347 71.3002 61.9303C71.3102 61.926 71.321 61.9237 71.3319 61.9237C71.3427 61.9237 71.3535 61.926 71.3635 61.9303C71.3735 61.9347 71.3824 61.9411 71.3898 61.949L71.6243 62.2441C71.6743 62.3073 71.7823 62.2441 71.7639 62.1677L71.6717 61.7936C71.6694 61.7827 71.6693 61.7715 71.6713 61.7605C71.6734 61.7496 71.6776 61.7391 71.6837 61.7298C71.6899 61.7205 71.6978 61.7125 71.707 61.7063C71.7162 61.7 71.7266 61.6957 71.7375 61.6935L72.1301 61.6145C72.2144 61.5987 72.2249 61.4801 72.1432 61.4643Z" fill="#263238"/>
<path d="M74.6328 61.4644L74.2561 61.3853C74.2452 61.3837 74.2349 61.3794 74.2261 61.373C74.2172 61.3665 74.21 61.358 74.2051 61.3482C74.2002 61.3384 74.1977 61.3276 74.1979 61.3166C74.198 61.3056 74.2008 61.2949 74.206 61.2852L74.3641 60.9111C74.3742 60.8944 74.3773 60.8743 74.3726 60.8552C74.3679 60.8362 74.3558 60.8198 74.3391 60.8097C74.3223 60.7996 74.3022 60.7965 74.2832 60.8012C74.2641 60.8059 74.2478 60.818 74.2376 60.8347L73.9531 61.1298C73.946 61.1386 73.9369 61.1457 73.9267 61.1506C73.9164 61.1555 73.9052 61.158 73.8939 61.158C73.8825 61.158 73.8713 61.1555 73.861 61.1506C73.8508 61.1457 73.8417 61.1386 73.8346 61.1298L73.6001 60.8347C73.5501 60.7715 73.4421 60.8347 73.4631 60.9111L73.5553 61.2852C73.5576 61.2961 73.5578 61.3074 73.5557 61.3183C73.5536 61.3293 73.5494 61.3397 73.5433 61.349C73.5372 61.3583 73.5293 61.3663 73.52 61.3725C73.5108 61.3788 73.5004 61.3831 73.4895 61.3853L73.097 61.4644C73.0127 61.4802 73.0021 61.5987 73.0838 61.6145L73.4605 61.6935C73.4711 61.6957 73.481 61.7002 73.4896 61.7068C73.4981 61.7133 73.5051 61.7218 73.5099 61.7314C73.5147 61.7411 73.5173 61.7517 73.5174 61.7625C73.5175 61.7732 73.5152 61.7839 73.5106 61.7936L73.3525 62.1677C73.3424 62.1845 73.3393 62.2046 73.344 62.2236C73.3487 62.2426 73.3608 62.259 73.3775 62.2691C73.3943 62.2793 73.4144 62.2823 73.4334 62.2776C73.4524 62.2729 73.4688 62.2609 73.479 62.2441L73.7635 61.9491C73.7709 61.9411 73.7798 61.9347 73.7898 61.9304C73.7998 61.926 73.8105 61.9238 73.8214 61.9238C73.8323 61.9238 73.8431 61.926 73.853 61.9304C73.863 61.9347 73.872 61.9411 73.8794 61.9491L74.1165 62.2441C74.1665 62.3073 74.2745 62.2441 74.2534 62.1677L74.1612 61.7936C74.1573 61.7717 74.1619 61.7491 74.1742 61.7304C74.1864 61.7118 74.2054 61.6986 74.2271 61.6935L74.6196 61.6145C74.6934 61.5987 74.7144 61.4802 74.6328 61.4644Z" fill="#263238"/>
<path d="M77.1291 61.4643L76.7498 61.3853C76.7392 61.3831 76.7293 61.3786 76.7207 61.372C76.7122 61.3655 76.7052 61.357 76.7004 61.3474C76.6956 61.3378 76.693 61.3271 76.6929 61.3164C76.6928 61.3056 76.6951 61.2949 76.6997 61.2852L76.8578 60.9111C76.8644 60.8949 76.865 60.877 76.8596 60.8604C76.8542 60.8438 76.843 60.8297 76.8282 60.8205C76.8134 60.8114 76.7957 60.8078 76.7785 60.8104C76.7612 60.813 76.7455 60.8216 76.734 60.8347L76.4468 61.1297C76.4399 61.1385 76.4311 61.1456 76.4211 61.1505C76.4111 61.1554 76.4 61.1579 76.3889 61.1579C76.3777 61.1579 76.3667 61.1554 76.3567 61.1505C76.3466 61.1456 76.3378 61.1385 76.3309 61.1297L76.0965 60.8347C76.0464 60.7715 75.9384 60.8347 75.9568 60.9111L76.0491 61.2852C76.0517 61.2961 76.0521 61.3075 76.0502 61.3186C76.0483 61.3296 76.0442 61.3402 76.038 61.3496C76.0318 61.359 76.0237 61.367 76.0143 61.3732C76.0049 61.3793 75.9943 61.3834 75.9832 61.3853L75.5907 61.4643C75.5064 61.4801 75.4958 61.5987 75.5907 61.6145L75.97 61.6935C75.9806 61.6955 75.9906 61.7 75.9992 61.7066C76.0077 61.7132 76.0146 61.7217 76.0192 61.7315C76.0238 61.7412 76.0261 61.752 76.0258 61.7628C76.0255 61.7736 76.0226 61.7841 76.0174 61.7936L75.862 62.1677C75.8554 62.1838 75.8548 62.2018 75.8602 62.2184C75.8656 62.235 75.8768 62.2491 75.8916 62.2583C75.9064 62.2674 75.9241 62.271 75.9413 62.2684C75.9586 62.2658 75.9743 62.2572 75.9858 62.2441L76.273 61.949C76.2804 61.9411 76.2893 61.9347 76.2993 61.9303C76.3093 61.926 76.32 61.9237 76.3309 61.9237C76.3418 61.9237 76.3526 61.926 76.3625 61.9303C76.3725 61.9347 76.3815 61.9411 76.3889 61.949L76.6233 62.2441C76.6734 62.3073 76.7814 62.2441 76.7603 62.1677L76.6681 61.7936C76.6642 61.7713 76.6692 61.7483 76.682 61.7296C76.6948 61.7109 76.7144 61.698 76.7366 61.6935L77.1291 61.6145C77.2003 61.5987 77.2108 61.4801 77.1291 61.4643Z" fill="#263238"/>
<path d="M79.6208 61.4643L79.2414 61.3853C79.2309 61.3831 79.2209 61.3786 79.2124 61.372C79.2038 61.3655 79.1969 61.357 79.1921 61.3474C79.1872 61.3378 79.1847 61.3271 79.1845 61.3164C79.1844 61.3056 79.1868 61.2949 79.1914 61.2852L79.3494 60.9111C79.356 60.8949 79.3567 60.877 79.3512 60.8604C79.3458 60.8438 79.3347 60.8297 79.3199 60.8205C79.305 60.8114 79.2874 60.8078 79.2701 60.8104C79.2529 60.813 79.2371 60.8216 79.2256 60.8347L78.9385 61.1297C78.9316 61.1385 78.9228 61.1456 78.9127 61.1505C78.9027 61.1554 78.8917 61.1579 78.8805 61.1579C78.8694 61.1579 78.8584 61.1554 78.8483 61.1505C78.8383 61.1456 78.8295 61.1385 78.8226 61.1297L78.5881 60.8347C78.5381 60.7715 78.4301 60.8347 78.4511 60.9111L78.5433 61.2852C78.5456 61.2963 78.5456 61.3077 78.5434 61.3188C78.5412 61.3299 78.5367 61.3404 78.5303 61.3498C78.5239 61.3591 78.5157 61.3671 78.5062 61.3732C78.4967 61.3793 78.486 61.3834 78.4748 61.3853L78.0823 61.4643C77.998 61.4801 77.9875 61.5987 78.0692 61.6145L78.4485 61.6935C78.4591 61.6957 78.469 61.7002 78.4775 61.7068C78.4861 61.7133 78.4931 61.7217 78.4979 61.7314C78.5027 61.741 78.5053 61.7516 78.5054 61.7624C78.5055 61.7732 78.5032 61.7839 78.4986 61.7936L78.3405 62.1677C78.3339 62.1838 78.3333 62.2018 78.3387 62.2184C78.3441 62.235 78.3552 62.2491 78.3701 62.2583C78.3849 62.2674 78.4025 62.271 78.4198 62.2684C78.437 62.2658 78.4528 62.2572 78.4643 62.2441L78.7514 61.949C78.7588 61.9411 78.7678 61.9347 78.7778 61.9303C78.7878 61.926 78.7985 61.9237 78.8094 61.9237C78.8203 61.9237 78.831 61.926 78.841 61.9303C78.851 61.9347 78.86 61.9411 78.8674 61.949L79.1018 62.2441C79.1519 62.3073 79.2599 62.2441 79.2414 62.1677L79.1492 61.7936C79.1469 61.7827 79.1468 61.7715 79.1489 61.7605C79.1509 61.7496 79.1552 61.7391 79.1613 61.7298C79.1674 61.7205 79.1753 61.7125 79.1845 61.7063C79.1938 61.7 79.2042 61.6957 79.2151 61.6935L79.6076 61.6145C79.6998 61.5987 79.6998 61.4801 79.6208 61.4643Z" fill="#263238"/>
<path d="M82.1133 61.4643L81.7339 61.3853C81.7233 61.3833 81.7133 61.3788 81.7048 61.3722C81.6962 61.3656 81.6893 61.3571 81.6847 61.3473C81.6801 61.3376 81.6779 61.3269 81.6782 61.3161C81.6785 61.3053 81.6813 61.2947 81.6865 61.2852L81.8446 60.9111C81.8496 60.9028 81.8529 60.8936 81.8544 60.884C81.8558 60.8744 81.8554 60.8647 81.8531 60.8552C81.8507 60.8458 81.8466 60.837 81.8408 60.8291C81.8351 60.8213 81.8278 60.8147 81.8195 60.8097C81.8112 60.8047 81.802 60.8014 81.7924 60.7999C81.7828 60.7985 81.7731 60.7989 81.7636 60.8012C81.7542 60.8035 81.7454 60.8077 81.7375 60.8134C81.7297 60.8192 81.7231 60.8264 81.7181 60.8347L81.4336 61.1298C81.4264 61.1386 81.4174 61.1457 81.4071 61.1506C81.3969 61.1554 81.3857 61.158 81.3743 61.158C81.363 61.158 81.3518 61.1554 81.3415 61.1506C81.3313 61.1457 81.3222 61.1386 81.3151 61.1298L81.0806 60.8347C81.0305 60.7715 80.9225 60.8347 80.9436 60.9111L81.0358 61.2852C81.0381 61.2961 81.0382 61.3074 81.0362 61.3183C81.0341 61.3293 81.0299 61.3397 81.0238 61.349C81.0176 61.3583 81.0097 61.3663 81.0005 61.3725C80.9913 61.3788 80.9809 61.3831 80.97 61.3853L80.5774 61.4643C80.4931 61.4802 80.4826 61.5987 80.5643 61.6145L80.941 61.6935C80.9515 61.6957 80.9615 61.7002 80.97 61.7068C80.9786 61.7133 80.9855 61.7218 80.9904 61.7314C80.9952 61.7411 80.9977 61.7517 80.9979 61.7624C80.998 61.7732 80.9956 61.7839 80.991 61.7936L80.833 62.1677C80.8228 62.1845 80.8198 62.2046 80.8245 62.2236C80.8292 62.2426 80.8412 62.259 80.858 62.2691C80.8748 62.2793 80.8949 62.2823 80.9139 62.2776C80.9329 62.2729 80.9493 62.2609 80.9594 62.2441L81.2439 61.9491C81.2513 61.9411 81.2603 61.9347 81.2703 61.9304C81.2802 61.926 81.291 61.9238 81.3019 61.9238C81.3128 61.9238 81.3235 61.926 81.3335 61.9304C81.3435 61.9347 81.3524 61.9411 81.3598 61.9491L81.5943 62.2441C81.6066 62.2579 81.6232 62.2671 81.6414 62.2703C81.6596 62.2734 81.6783 62.2703 81.6945 62.2615C81.7107 62.2526 81.7234 62.2385 81.7306 62.2215C81.7377 62.2044 81.7389 62.1855 81.7339 62.1677L81.6417 61.7936C81.6378 61.7717 81.6424 61.7491 81.6546 61.7304C81.6669 61.7118 81.6858 61.6986 81.7076 61.6935L82.1001 61.6145C82.1844 61.5987 82.1949 61.4802 82.1133 61.4643Z" fill="#263238"/>
<path d="M76.1045 56.0086H71.4259C71.2823 56.0111 71.1446 56.066 71.0388 56.1631C70.933 56.2602 70.8664 56.3926 70.8516 56.5355C70.844 56.6027 70.851 56.6708 70.8719 56.7351C70.8929 56.7994 70.9273 56.8585 70.973 56.9084C71.0186 56.9583 71.0744 56.9979 71.1367 57.0244C71.1989 57.051 71.266 57.0639 71.3337 57.0623H76.0123C76.1558 57.0599 76.2935 57.0049 76.3993 56.9079C76.5052 56.8108 76.5717 56.6783 76.5865 56.5355C76.5936 56.4683 76.5864 56.4005 76.5653 56.3363C76.5442 56.2722 76.5097 56.2133 76.4641 56.1635C76.4186 56.1137 76.3629 56.0741 76.3009 56.0474C76.2389 56.0207 76.172 56.0075 76.1045 56.0086Z" fill="#263238"/>
<path d="M80.8565 56.0088H78.1405C77.9972 56.0113 77.8598 56.0664 77.7545 56.1635C77.6491 56.2606 77.583 56.393 77.5689 56.5357C77.5614 56.6027 77.5682 56.6705 77.589 56.7346C77.6098 56.7987 77.644 56.8577 77.6894 56.9076C77.7348 56.9574 77.7902 56.997 77.8521 57.0238C77.914 57.0505 77.9809 57.0637 78.0483 57.0625H80.7538C80.8971 57.06 81.0344 57.005 81.1398 56.9078C81.2452 56.8107 81.3113 56.6783 81.3254 56.5357C81.3328 56.4695 81.3262 56.4026 81.3061 56.3392C81.2859 56.2758 81.2526 56.2174 81.2084 56.1677C81.1642 56.118 81.11 56.0782 81.0494 56.0508C80.9887 56.0234 80.923 56.0091 80.8565 56.0088Z" fill="#263238"/>
<path d="M84.4411 79.8891C82.7875 80.5189 81.2946 81.5088 80.0708 82.7868C79.3276 82.2099 78.4416 81.8456 77.5076 81.7331L77.3837 81.7147L77.3311 82.3364L77.3995 82.3627C78.424 82.7399 79.2904 83.453 79.8574 84.3859L79.947 84.5334L80.0444 84.3753C81.1354 82.6337 82.675 81.2178 84.5017 80.2763L84.5623 80.2447L84.5966 79.8337L84.4411 79.8891Z" fill="#263238"/>
<path opacity="0.2" d="M60.8976 28.0215C60.5619 28.6077 60.3553 29.2589 60.2917 29.9314L56.3691 74.7731H68.5082L70.9476 65.4238L70.1441 56.0719L72.5835 46.7226L71.7932 37.3734L74.2326 28.0215H60.8976Z" fill="black"/>
<path d="M70.7264 34.7391L73.1658 25.3872H42.4679L40.0311 34.7391L40.832 44.0884L38.3952 53.4376L39.196 62.7895L36.7593 72.1388H67.4546L69.894 62.7895L69.0905 53.4376L71.5299 44.0884L70.7264 34.7391Z" fill="#407BFF"/>
<path opacity="0.7" d="M70.7264 34.7391L73.1658 25.3872H42.4679L40.0311 34.7391L40.832 44.0884L38.3952 53.4376L39.196 62.7895L36.7593 72.1388H67.4546L69.894 62.7895L69.0905 53.4376L71.5299 44.0884L70.7264 34.7391Z" fill="white"/>
<path opacity="0.5" d="M70.7266 34.7391H40.0312L42.468 25.3872H73.166L70.7266 34.7391Z" fill="white"/>
<path opacity="0.5" d="M69.0889 53.4374H38.3936L40.8303 44.0881H71.5283L69.0889 53.4374Z" fill="white"/>
<path opacity="0.5" d="M67.4543 72.1386H36.7563L39.1957 62.7893H69.8937L67.4543 72.1386Z" fill="white"/>
<path opacity="0.2" d="M66.6184 38.6458C66.3035 38.7368 65.9769 38.7812 65.649 38.7775C65.2045 38.7972 64.7619 38.7067 64.3608 38.5141C64.2882 38.4711 64.2055 38.4484 64.1211 38.4482C64.0437 38.4493 63.9678 38.4692 63.8998 38.5062H63.884C63.7663 38.5722 63.6406 38.6227 63.5099 38.6564C63.2151 38.7342 62.9112 38.7723 62.6063 38.7696C62.5141 38.7696 62.4246 38.7696 62.3429 38.7696C62.1063 38.7544 61.8722 38.7129 61.6448 38.6458C61.6114 38.6359 61.5769 38.6297 61.5421 38.6274C61.4841 38.6227 61.4258 38.63 61.3709 38.6489C61.3159 38.6677 61.2654 38.6978 61.2226 38.7371C61.1798 38.7765 61.1456 38.8243 61.1221 38.8774C61.0987 38.9306 61.0865 38.9881 61.0863 39.0462V39.3307H49.137C48.9174 39.3307 48.7 39.374 48.4972 39.4581C48.2944 39.5422 48.1102 39.6655 47.9551 39.8209C47.7999 39.9762 47.677 40.1607 47.5932 40.3636C47.5094 40.5665 47.4665 40.784 47.4668 41.0035V42.6869C47.4661 42.9067 47.5088 43.1244 47.5924 43.3277C47.676 43.5309 47.799 43.7156 47.9541 43.8713C48.1093 44.0269 48.2936 44.1504 48.4966 44.2347C48.6996 44.319 48.9172 44.3623 49.137 44.3623H62.7117H62.8013C62.9462 44.4835 63.099 44.6047 63.2623 44.7285C63.4256 44.8523 63.6574 45.0236 63.8708 45.1763C63.9436 45.229 64.0312 45.2574 64.1211 45.2574C64.211 45.2574 64.2986 45.229 64.3714 45.1763C66.0784 43.9382 67.1743 43.0847 67.1743 40.7401V39.0541C67.1751 38.9867 67.1598 38.9201 67.1298 38.8597C67.0997 38.7994 67.0556 38.7471 67.0013 38.7072C66.9469 38.6672 66.8839 38.6408 66.8173 38.6302C66.7507 38.6195 66.6825 38.6249 66.6184 38.6458Z" fill="black"/>
<path d="M62.4519 38.406H48.8798C47.956 38.406 47.207 39.1549 47.207 40.0788V41.7622C47.207 42.686 47.956 43.435 48.8798 43.435H62.4519C63.3758 43.435 64.1248 42.686 64.1248 41.7622V40.0788C64.1248 39.1549 63.3758 38.406 62.4519 38.406Z" fill="#407BFF"/>
<path d="M65.3876 37.8502C64.9431 37.8692 64.5007 37.7787 64.0994 37.5868C64.028 37.543 63.946 37.5198 63.8623 37.5198C63.7786 37.5198 63.6965 37.543 63.6252 37.5868C63.223 37.7791 62.7797 37.8695 62.3344 37.8502C62.0065 37.8537 61.6799 37.8093 61.3649 37.7185C61.3015 37.6971 61.2338 37.6912 61.1676 37.7012C61.1014 37.7112 61.0385 37.7368 60.9842 37.776C60.9299 37.8151 60.8857 37.8666 60.8552 37.9263C60.8248 37.9859 60.8089 38.0519 60.8091 38.1189V39.8049C60.8091 42.1521 61.905 43.0056 63.612 44.2437C63.6848 44.2964 63.7724 44.3248 63.8623 44.3248C63.9522 44.3248 64.0397 44.2964 64.1125 44.2437C65.8196 43.0056 66.9155 42.1521 66.9155 39.8049V38.1189C66.9152 38.0518 66.899 37.9858 66.8682 37.9262C66.8375 37.8666 66.793 37.8151 66.7385 37.7761C66.684 37.737 66.621 37.7114 66.5547 37.7014C66.4884 37.6914 66.4206 37.6972 66.357 37.7185C66.042 37.8095 65.7154 37.8539 65.3876 37.8502Z" fill="#407BFF"/>
<path opacity="0.3" d="M65.3876 37.8502C64.9431 37.8692 64.5007 37.7787 64.0994 37.5868C64.028 37.543 63.946 37.5198 63.8623 37.5198C63.7786 37.5198 63.6965 37.543 63.6252 37.5868C63.223 37.7791 62.7797 37.8695 62.3344 37.8502C62.0065 37.8537 61.6799 37.8093 61.3649 37.7185C61.3015 37.6971 61.2338 37.6912 61.1676 37.7012C61.1014 37.7112 61.0385 37.7368 60.9842 37.776C60.9299 37.8151 60.8857 37.8666 60.8552 37.9263C60.8248 37.9859 60.8089 38.0519 60.8091 38.1189V39.8049C60.8091 42.1521 61.905 43.0056 63.612 44.2437C63.6848 44.2964 63.7724 44.3248 63.8623 44.3248C63.9522 44.3248 64.0397 44.2964 64.1125 44.2437C65.8196 43.0056 66.9155 42.1521 66.9155 39.8049V38.1189C66.9152 38.0518 66.899 37.9858 66.8682 37.9262C66.8375 37.8666 66.793 37.8151 66.7385 37.7761C66.684 37.737 66.621 37.7114 66.5547 37.7014C66.4884 37.6914 66.4206 37.6972 66.357 37.7185C66.042 37.8095 65.7154 37.8539 65.3876 37.8502Z" fill="white"/>
<path opacity="0.2" d="M63.6252 37.5815C63.223 37.7738 62.7797 37.8643 62.3344 37.845C62.0065 37.8483 61.68 37.8039 61.3649 37.7132C61.3015 37.6919 61.2338 37.686 61.1676 37.696C61.1014 37.706 61.0385 37.7316 60.9842 37.7708C60.9299 37.8099 60.8857 37.8614 60.8552 37.921C60.8248 37.9807 60.8089 38.0467 60.8091 38.1137V39.7996C60.8091 42.1468 61.905 43.0004 63.612 44.2385C63.6885 44.2939 63.7811 44.3226 63.8755 44.3202V37.513C63.7872 37.5113 63.7003 37.5351 63.6252 37.5815Z" fill="white"/>
<path d="M66.3111 39.3466C65.2842 39.7489 64.3696 40.3932 63.6452 41.2249C63.1399 40.8524 62.5477 40.6157 61.9249 40.5373H61.8433V40.9403L61.888 40.9561C62.5807 41.2061 63.1776 41.6667 63.5951 42.2733L63.661 42.3682L63.7163 42.2654C64.3219 41.1399 65.2442 40.2167 66.3691 39.61L66.4086 39.5916V39.3281L66.3111 39.3466Z" fill="#263238"/>
<path d="M72.623 28.0188H71.4586C71.3088 28.0216 71.1601 27.9924 71.0225 27.9332C70.8849 27.8739 70.7614 27.7861 70.6605 27.6754C70.5595 27.5647 70.4833 27.4337 70.437 27.2913C70.3906 27.1488 70.3752 26.9981 70.3917 26.8492L70.4944 25.6848C70.526 25.3681 70.6727 25.0741 70.9068 24.8584C71.1409 24.6428 71.446 24.5207 71.7642 24.5151H72.9285C73.0786 24.512 73.2275 24.5409 73.3655 24.5999C73.5034 24.659 73.6271 24.7468 73.7284 24.8575C73.8297 24.9683 73.9061 25.0994 73.9526 25.242C73.9991 25.3847 74.0146 25.5356 73.9981 25.6848L73.8953 26.8492C73.8599 27.1647 73.7116 27.4569 73.4778 27.6718C73.244 27.8868 72.9404 28.01 72.623 28.0188Z" fill="#407BFF"/>
<path d="M73.1078 25.6821L72.8549 25.4028L72.2174 25.9877L71.6853 25.4028L71.3823 25.6821L71.9171 26.2669L71.2822 26.8517L71.5351 27.1283L72.17 26.5435L72.7048 27.1283L73.0051 26.8517L72.4703 26.2669L73.1078 25.6821Z" fill="white"/>
<path d="M46.603 38.0637C47.2774 38.7987 47.9202 39.56 48.5604 40.3266C49.2005 41.0932 49.8196 41.8756 50.436 42.6606C50.4624 42.6949 50.4518 42.6817 50.4571 42.6923C50.4624 42.7028 50.4571 42.7054 50.4571 42.7081C50.4617 42.7178 50.4679 42.7267 50.4755 42.7344C50.498 42.7663 50.5265 42.7935 50.5595 42.8143C50.5926 42.8351 50.6294 42.8491 50.6678 42.8556C50.6976 42.8596 50.7277 42.8596 50.7574 42.8556C50.7732 42.8568 50.789 42.8568 50.8048 42.8556H50.8285C50.8417 42.8556 50.8285 42.8556 50.8707 42.8398L51.5293 42.4815C52.4144 42.0126 53.3074 41.5542 54.2295 41.1433L55.0013 42.0995C54.2584 42.7818 53.4839 43.638 52.7015 44.265L52.1115 44.7286C52.0748 44.7585 52.0361 44.7858 51.9955 44.8103C51.9508 44.8421 51.9042 44.8711 51.8559 44.8972C51.7606 44.9521 51.662 45.0014 51.5609 45.0447C51.3568 45.1305 51.1425 45.1898 50.9234 45.2212C50.4802 45.2863 50.0277 45.241 49.6062 45.0895C49.3918 45.0134 49.1881 44.9098 49.0003 44.7813C48.9055 44.7181 48.8159 44.6443 48.7369 44.5732C48.6921 44.5363 48.6552 44.4941 48.6131 44.4546L48.5077 44.3493C47.8096 43.6327 47.122 42.9109 46.4476 42.1759C45.7732 41.4409 45.1067 40.7007 44.4692 39.9315L46.603 38.0637Z" fill="#B55B52"/>
<path d="M53.8799 41.7229L54.4937 39.7498L56.1112 40.5559C56.1112 40.5559 55.8741 41.9942 54.6992 42.2445L53.8799 41.7229Z" fill="#B55B52"/>
<path d="M55.1402 39.2043L56.5997 39.6048L56.1097 40.5558L54.4922 39.7497L55.1402 39.2043Z" fill="#B55B52"/>
<path d="M38.099 38.6011C37.9251 39.4388 37.7091 40.2686 37.4852 41.0958C37.2613 41.923 37.0163 42.7423 36.7607 43.5616L36.6659 43.8698L36.6185 44.0226C36.6121 44.0446 36.6033 44.0658 36.5921 44.0858C36.5621 44.1705 36.5452 44.2594 36.5421 44.3492C36.5365 44.5406 36.5899 44.7291 36.6949 44.8893C36.7467 44.9595 36.804 45.0256 36.8661 45.0868L37.0848 45.3266L37.5168 45.8086C37.7987 46.1353 38.0832 46.462 38.3519 46.8044L37.4325 47.8582C37.0532 47.6421 36.6896 47.4077 36.3261 47.1759L35.786 46.8176L35.5226 46.6358C35.433 46.5726 35.3593 46.5304 35.2144 46.4119C34.699 45.9726 34.3433 45.3752 34.2028 44.7128C34.1321 44.3751 34.1152 44.0283 34.1527 43.6854C34.1527 43.6011 34.1791 43.5062 34.1923 43.4219L34.2212 43.2639L34.2766 42.9478C34.4241 42.1021 34.5821 41.2591 34.7586 40.4214C34.9351 39.5837 35.1248 38.7486 35.3487 37.9241L38.099 38.6011Z" fill="#B55B52"/>
<path d="M37.4497 46.7202L38.5351 46.1643L39.0145 48.0083C39.0145 48.0083 38.1425 48.3429 37.4681 47.9135L37.4497 46.7202Z" fill="#B55B52"/>
<path d="M40.0361 45.5715L40.0861 47.268L38.8717 48.061L38.4502 46.1985L40.0361 45.5715Z" fill="#B55B52"/>
<path d="M43.5901 29.8919C43.6164 30.0209 43.7086 30.1132 43.7929 30.0973C43.8772 30.0815 43.9272 29.9604 43.9009 29.8339C43.8746 29.7075 43.7824 29.6126 43.6981 29.6284C43.6138 29.6442 43.5637 29.7681 43.5901 29.8919Z" fill="#263238"/>
<path d="M43.6978 30.116C43.9349 30.4834 44.2212 30.8166 44.5486 31.1065C44.4724 31.1886 44.3792 31.2531 44.2754 31.2954C44.1717 31.3377 44.0599 31.3568 43.948 31.3515L43.6978 30.116Z" fill="#A02724"/>
<path d="M42.9658 29.2649C42.9506 29.2647 42.9358 29.2601 42.9231 29.2518C42.9105 29.2434 42.9005 29.2316 42.8944 29.2177C42.8883 29.2038 42.8863 29.1884 42.8887 29.1734C42.8911 29.1584 42.8977 29.1445 42.9078 29.1331C42.9903 29.0398 43.0937 28.9673 43.2095 28.9215C43.3253 28.8758 43.4503 28.858 43.5743 28.8697C43.5845 28.8716 43.5943 28.8755 43.603 28.8812C43.6117 28.8868 43.6192 28.8942 43.625 28.9027C43.6309 28.9113 43.635 28.9209 43.6372 28.9311C43.6393 28.9412 43.6394 28.9517 43.6375 28.9619C43.6359 28.972 43.6324 28.9817 43.627 28.9904C43.6216 28.9991 43.6145 29.0066 43.6061 29.0125C43.5978 29.0184 43.5883 29.0225 43.5783 29.0247C43.5683 29.0269 43.558 29.027 43.548 29.0251C43.4497 29.0157 43.3506 29.0299 43.259 29.0666C43.1673 29.1033 43.0858 29.1613 43.0211 29.2359C43.007 29.2523 42.9873 29.2626 42.9658 29.2649Z" fill="#263238"/>
<path d="M39.7917 31.728C40.0815 32.9372 40.3739 35.1527 39.3359 35.9561C39.3359 35.9561 39.7416 37.1837 42.4971 37.1837C45.5266 37.1837 43.946 36.3934 43.946 36.3934C42.2917 36.072 42.3338 34.6363 42.6289 33.6959L39.7917 31.728Z" fill="#B55B52"/>
<path d="M39.012 36.18C38.8329 35.8454 38.6327 35.4608 39.0436 35.3397C39.4968 35.2079 42.4024 34.9629 43.2586 35.2106C42.9952 35.6768 43.4404 36.2643 43.4404 36.2643L39.012 36.18Z" fill="#263238"/>
<path d="M41.4204 92.7076H43.3198L43.5094 88.8826H41.6074L41.4204 92.7076Z" fill="#B55B52"/>
<path d="M29.3579 92.1809L31.2836 92.2836L32.4533 88.5139L30.5276 88.4111L29.3579 92.1809Z" fill="#B55B52"/>
<path d="M31.2255 92.1309L29.4105 91.7384C29.3787 91.7312 29.3454 91.7351 29.3161 91.7495C29.2869 91.7639 29.2635 91.7879 29.2498 91.8174L28.6202 93.1847C28.6047 93.2179 28.597 93.2542 28.5977 93.2908C28.5984 93.3274 28.6075 93.3634 28.6243 93.3959C28.6411 93.4285 28.6651 93.4568 28.6946 93.4786C28.724 93.5004 28.758 93.5152 28.794 93.5219C29.4289 93.6483 29.745 93.6773 30.5432 93.8512C31.0332 93.9565 32.1423 94.2279 32.8193 94.378C33.4963 94.5282 33.7308 93.8749 33.4674 93.7537C32.2819 93.2136 31.7866 92.7368 31.4653 92.2916C31.4076 92.2107 31.3223 92.1535 31.2255 92.1309Z" fill="#263238"/>
<path d="M43.2201 92.5154H41.4156C41.383 92.5158 41.3515 92.5272 41.3261 92.5477C41.3008 92.5683 41.2831 92.5968 41.276 92.6287L40.9493 94.096C40.9409 94.1315 40.9407 94.1685 40.9488 94.2041C40.9568 94.2397 40.9729 94.273 40.9957 94.3015C41.0186 94.33 41.0477 94.3528 41.0807 94.3683C41.1138 94.3838 41.1499 94.3916 41.1864 94.391C41.8371 94.391 42.767 94.341 43.5969 94.341C44.5531 94.341 45.3777 94.3937 46.4946 94.3937C47.1717 94.3937 47.3613 93.7087 47.0768 93.6455C45.7834 93.3636 44.7296 93.332 43.6127 92.6445C43.4959 92.5667 43.3603 92.5221 43.2201 92.5154Z" fill="#263238"/>
<path d="M35.8947 36.5147C34.4617 37.197 34.0718 41.3329 34.0718 41.3329L37.6202 42.9715C38.22 41.9598 38.5468 40.8097 38.5686 39.6338C38.6397 37.4973 37.3621 35.8272 35.8947 36.5147Z" fill="#263238"/>
<path opacity="0.4" d="M37.811 39.0647C37.1709 40.0605 37.2315 41.5989 37.4528 42.8977L37.6108 42.9714C38.2101 41.9595 38.5368 40.8095 38.5592 39.6337C38.5592 39.5073 38.5592 39.3703 38.5592 39.257L37.811 39.0647Z" fill="black"/>
<path d="M45.7955 36.4146C45.7955 36.4146 47.5553 38.4009 45.893 50.6927H37.0601C36.9995 49.336 37.8504 42.7212 36.5332 36.3303C37.5094 36.1425 38.4967 36.0176 39.4889 35.9562C40.7401 35.885 41.9943 35.885 43.2455 35.9562C44.106 36.0434 44.9585 36.1966 45.7955 36.4146Z" fill="#407BFF"/>
<path opacity="0.6" d="M45.7955 36.4146C45.7955 36.4146 47.5553 38.4009 45.893 50.6927H37.0601C36.9995 49.336 37.8504 42.7212 36.5332 36.3303C37.5094 36.1425 38.4967 36.0176 39.4889 35.9562C40.7401 35.885 41.9943 35.885 43.2455 35.9562C44.106 36.0434 44.9585 36.1966 45.7955 36.4146Z" fill="#FAFAFA"/>
<path opacity="0.2" d="M46.5688 40.1711L46.5372 40.1422L44.7801 39.2043C44.6009 41.9098 45.8101 43.6063 46.5293 44.3466C46.6194 42.9566 46.6326 41.5626 46.5688 40.1711Z" fill="black"/>
<path opacity="0.2" d="M43.5092 88.8826L43.4118 90.8557H41.5098L41.6072 88.8826H43.5092Z" fill="black"/>
<path opacity="0.2" d="M30.5281 88.4138L32.4538 88.5139L31.8505 90.4581L29.9248 90.3553L30.5281 88.4138Z" fill="black"/>
<path d="M39.1824 30.5006C39.6065 32.0812 39.7751 33.0321 40.763 33.6907C42.2329 34.6812 44.0612 33.5432 44.1191 31.8651C44.1692 30.3557 43.4684 28.019 41.7693 27.7002C41.3942 27.626 41.0063 27.6492 40.6426 27.7676C40.279 27.8861 39.9518 28.0957 39.6924 28.3766C39.4329 28.6575 39.2497 29.0003 39.1604 29.3721C39.0712 29.7439 39.0787 30.1325 39.1824 30.5006Z" fill="#B55B52"/>
<path d="M42.7616 50.6926C42.7616 50.6926 40.8859 63.3137 39.8638 68.045C38.731 73.2347 32.6879 90.3579 32.6879 90.3579L29.7295 89.7177C29.7295 89.7177 33.5203 75.7557 34.4713 68.5166C34.8401 65.6899 35.2853 61.1404 35.8491 57.3391C36.3944 53.651 37.0661 50.6953 37.0661 50.6953L42.7616 50.6926Z" fill="#263238"/>
<path d="M33.3973 89.3699L32.8441 90.4395L29.5195 89.7177L29.7988 88.7192L33.3973 89.3699Z" fill="#407BFF"/>
<path opacity="0.6" d="M33.3973 89.3699L32.8441 90.4395L29.5195 89.7177L29.7988 88.7192L33.3973 89.3699Z" fill="white"/>
<path opacity="0.6" d="M41.5766 55.1895C39.4085 55.6137 39.6377 63.6984 39.8985 67.8554C40.5255 64.9155 41.4396 59.2622 42.0639 55.2475C41.9128 55.1731 41.7409 55.1527 41.5766 55.1895Z" fill="black"/>
<path d="M45.8935 50.6926C45.8935 50.6926 46.776 63.0423 46.5969 68.0792C46.4098 73.3189 43.9256 90.4711 43.9256 90.4711H41.128C41.128 90.4711 41.0252 73.6113 40.9014 68.477C40.7644 62.8659 40.0874 50.6899 40.0874 50.6899L45.8935 50.6926Z" fill="#263238"/>
<path d="M44.4624 89.3594C44.4756 89.3594 44.3044 90.5211 44.3044 90.5211H40.9008L40.8086 89.4832L44.4624 89.3594Z" fill="#407BFF"/>
<path opacity="0.6" d="M44.4624 89.3594C44.4756 89.3594 44.3044 90.5211 44.3044 90.5211H40.9008L40.8086 89.4832L44.4624 89.3594Z" fill="white"/>
<path d="M44.7651 38.7249C44.7651 42.0389 46.5275 43.4034 46.5275 43.4034L49.4016 40.6058C48.7213 39.4689 47.9467 38.3912 47.086 37.384C45.4237 35.4794 44.7651 36.5963 44.7651 38.7249Z" fill="#263238"/>
<path opacity="0.2" d="M44.0067 32.4656C43.9481 32.6317 43.8498 32.7809 43.7203 32.9003C43.5908 33.0196 43.4341 33.1056 43.2638 33.1505C43.0765 33.1887 42.9065 33.2862 42.7789 33.4285C42.6512 33.5708 42.5728 33.7505 42.5552 33.9408C42.8963 33.8267 43.2056 33.6336 43.4578 33.3773C43.7101 33.1209 43.8982 32.8085 44.0067 32.4656Z" fill="black"/>
<path d="M43.2638 27.3524C43.8539 26.6069 42.945 26.5621 42.945 26.5621C43.1821 25.6744 42.1178 26.1512 42.1178 26.1512C41.4803 25.2713 41.1194 26.3435 41.1194 26.3435C40.4582 25.598 40.3291 26.815 40.3291 26.815C39.6653 25.8693 39.3281 27.2339 39.3281 27.2339C38.7169 26.2513 38.3428 27.5289 38.3428 27.5289C37.081 27.0785 37.679 28.3904 37.679 28.3904C36.6042 28.4194 37.4682 29.2544 37.4682 29.2544C36.1774 29.2544 37.3154 29.9947 37.3154 29.9947C36.2907 30.6664 37.5789 30.8482 37.5789 30.8482C36.7438 32.1654 38.1795 31.6701 38.1795 31.6701C37.5973 32.9662 38.8855 32.3946 38.8855 32.3946C38.8038 33.6432 39.523 33.3034 39.8708 33.0716C39.9366 33.335 40.0631 33.5985 40.2949 33.6195C40.7453 33.6801 40.8217 32.8292 40.8217 32.8292C40.8217 32.8292 41.238 33.1559 41.5883 32.9794C41.9387 32.8029 41.807 32.3577 41.807 32.3577C41.883 32.4146 41.9755 32.4453 42.0704 32.4453C42.1654 32.4453 42.2578 32.4146 42.3339 32.3577C42.484 32.2418 42.484 31.4041 42.2943 31.109L42.9793 30.8456C42.9793 30.8456 43.4877 30.7745 43.2611 30.1027C43.1244 29.7166 43.1125 29.2973 43.2269 28.9041C44.0014 28.5405 43.3639 28.1138 43.3639 28.1138C44.2622 27.5368 43.2638 27.3524 43.2638 27.3524Z" fill="#263238"/>
<path d="M41.8766 30.5584C41.9838 30.9514 42.2182 31.2979 42.543 31.5437C42.9724 31.8651 43.2938 31.5437 43.2622 31.0616C43.2359 30.6243 42.9777 29.9315 42.5035 29.7997C42.0293 29.668 41.7633 30.0921 41.8766 30.5584Z" fill="#B55B52"/>
</svg>
