<svg width="417" height="407" viewBox="0 0 417 407" fill="none" xmlns="http://www.w3.org/2000/svg">
<path d="M311.201 326.074H106.031L122.229 310.44H295.003L311.201 326.074Z" fill="white" stroke="#263238" stroke-width="0.373549" stroke-linecap="round" stroke-linejoin="round"/>
<path d="M288.405 316.475C288.405 319.667 251.251 322.296 205.392 322.296C159.533 322.296 122.379 319.689 122.379 316.475C122.379 313.26 159.533 310.642 205.392 310.642C251.251 310.642 288.405 313.25 288.405 316.475Z" fill="#92E3A9"/>
<path opacity="0.5" d="M288.405 316.475C288.405 319.667 251.251 322.296 205.392 322.296C159.533 322.296 122.379 319.689 122.379 316.475C122.379 313.26 159.533 310.642 205.392 310.642C251.251 310.642 288.405 313.25 288.405 316.475Z" fill="white"/>
<path d="M311.201 326.074H106.031V340.559H311.201V326.074Z" fill="#263238" stroke="#263238" stroke-width="0.373549" stroke-linecap="round" stroke-linejoin="round"/>
<path d="M325.719 356.182H91.5156L106.032 340.559H311.202L325.719 356.182Z" fill="white" stroke="#263238" stroke-width="0.373549" stroke-linecap="round" stroke-linejoin="round"/>
<path d="M325.677 356.182H91.5586V371.423H325.677V356.182Z" fill="#263238" stroke="#263238" stroke-width="0.373549" stroke-linecap="round" stroke-linejoin="round"/>
<path d="M206.355 171.553V74.1399H243.424V33.1549" stroke="#263238" stroke-width="0.373549" stroke-miterlimit="10"/>
<path d="M220.836 73.6823V33.1549" stroke="#263238" stroke-width="0.373549" stroke-miterlimit="10"/>
<path d="M209.117 187.08H379.784V162.815H412.404" stroke="#263238" stroke-width="0.373549" stroke-miterlimit="10"/>
<path d="M200.754 186.24H38.4636V160.314H3.33203" stroke="#263238" stroke-width="0.373549" stroke-miterlimit="10"/>
<path d="M173.147 7.2186V44.0317H152.234V67.4457H178.171V146.085" stroke="#263238" stroke-width="0.373549" stroke-miterlimit="10"/>
<path d="M287.754 115.966V63.2631H301.973V40.6793H313.69" stroke="#263238" stroke-width="0.373549" stroke-miterlimit="10"/>
<path d="M115.432 110.953V70.7982L103.715 59.0805V29.8025" stroke="#263238" stroke-width="0.373549" stroke-miterlimit="10"/>
<path d="M319.551 134.378H348.829V115.136H368.071V104.259H384.801" stroke="#263238" stroke-width="0.373549" stroke-miterlimit="10"/>
<path d="M86.1411 141.072H55.1921V116.806H11.6953" stroke="#263238" stroke-width="0.373549" stroke-miterlimit="10"/>
<path d="M114.59 272.403V294.157H100.371V318.422H59.3752" stroke="#263238" stroke-width="0.373549" stroke-miterlimit="10"/>
<path d="M271.027 275.755V298.339H303.647V289.144H312.853V308.375H341.301" stroke="#263238" stroke-width="0.373549" stroke-miterlimit="10"/>
<path d="M245.807 33.1548C245.805 33.6259 245.663 34.0857 245.4 34.4764C245.137 34.867 244.764 35.1709 244.328 35.3497C243.892 35.5285 243.413 35.5742 242.951 35.481C242.49 35.3879 242.066 35.16 241.734 34.8262C241.401 34.4923 241.175 34.0675 241.084 33.6054C240.993 33.1432 241.041 32.6644 241.222 32.2294C241.402 31.7944 241.708 31.4228 242.1 31.1613C242.491 30.8998 242.952 30.7602 243.423 30.7602C243.737 30.7602 244.048 30.8222 244.338 30.9427C244.628 31.0632 244.891 31.2397 245.112 31.4622C245.334 31.6847 245.509 31.9488 245.629 32.2393C245.748 32.5297 245.808 32.8409 245.807 33.1548Z" fill="#263238" stroke="#263238" stroke-width="0.373549" stroke-linecap="round" stroke-linejoin="round"/>
<path d="M223.307 33.1549C223.305 33.6259 223.163 34.0858 222.9 34.4764C222.637 34.8671 222.264 35.171 221.828 35.3498C221.392 35.5286 220.913 35.5743 220.451 35.4811C219.99 35.3879 219.566 35.16 219.234 34.8262C218.901 34.4924 218.675 34.0676 218.584 33.6054C218.493 33.1433 218.541 32.6645 218.722 32.2295C218.902 31.7945 219.208 31.4228 219.6 31.1613C219.991 30.8998 220.452 30.7603 220.923 30.7603C221.237 30.7603 221.548 30.8223 221.838 30.9427C222.128 31.0632 222.391 31.2398 222.612 31.4623C222.834 31.6848 223.009 31.9488 223.129 32.2393C223.248 32.5298 223.308 32.8409 223.307 33.1549Z" fill="#263238" stroke="#263238" stroke-width="0.373549" stroke-linecap="round" stroke-linejoin="round"/>
<path d="M175.547 6.5268C175.547 7.00087 175.406 7.46426 175.143 7.85828C174.879 8.2523 174.505 8.55921 174.066 8.74014C173.628 8.92106 173.146 8.96786 172.681 8.87459C172.217 8.78133 171.79 8.55221 171.455 8.21625C171.121 7.88029 170.894 7.45262 170.803 6.98741C170.711 6.52221 170.76 6.0404 170.943 5.60303C171.126 5.16566 171.435 4.79242 171.83 4.53058C172.225 4.26874 172.689 4.13009 173.163 4.1322C173.477 4.13219 173.788 4.19421 174.078 4.31468C174.368 4.43515 174.631 4.6117 174.853 4.8342C175.074 5.0567 175.249 5.32076 175.369 5.61123C175.488 5.9017 175.548 6.21284 175.547 6.5268Z" fill="#263238" stroke="#263238" stroke-width="0.373549" stroke-linecap="round" stroke-linejoin="round"/>
<path d="M106.119 28.5998C106.117 29.0708 105.976 29.5307 105.713 29.9213C105.449 30.312 105.076 30.6159 104.64 30.7947C104.205 30.9735 103.726 31.0192 103.264 30.926C102.802 30.8328 102.378 30.6049 102.046 30.2711C101.714 29.9373 101.488 29.5125 101.397 29.0503C101.305 28.5882 101.353 28.1094 101.534 27.6744C101.715 27.2394 102.02 26.8677 102.412 26.6062C102.804 26.3447 103.264 26.2052 103.736 26.2052C104.049 26.2052 104.36 26.2672 104.65 26.3877C104.94 26.5081 105.203 26.6847 105.425 26.9072C105.647 27.1297 105.822 27.3937 105.941 27.6842C106.06 27.9747 106.121 28.2858 106.119 28.5998Z" fill="#263238" stroke="#263238" stroke-width="0.373549" stroke-linecap="round" stroke-linejoin="round"/>
<path d="M14.0822 116.807C14.0843 117.281 13.9453 117.746 13.683 118.141C13.4207 118.536 13.0468 118.845 12.6089 119.027C12.1709 119.21 11.6885 119.258 11.223 119.166C10.7575 119.074 10.3299 118.846 9.99434 118.51C9.6588 118.175 9.43052 117.747 9.33846 117.282C9.24641 116.816 9.29473 116.334 9.47729 115.896C9.65985 115.458 9.96842 115.084 10.3638 114.822C10.7593 114.559 11.2237 114.42 11.6982 114.423C12.3305 114.423 12.9368 114.674 13.3839 115.121C13.831 115.568 14.0822 116.174 14.0822 116.807Z" fill="#263238" stroke="#263238" stroke-width="0.373549" stroke-linecap="round" stroke-linejoin="round"/>
<path d="M5.78922 160.239C5.78922 160.713 5.64878 161.176 5.38565 161.57C5.12253 161.964 4.74855 162.271 4.31099 162.452C3.87343 162.633 3.39195 162.68 2.92745 162.588C2.46294 162.496 2.03626 162.268 1.70137 161.933C1.36647 161.598 1.13841 161.171 1.04601 160.707C0.953617 160.242 1.00104 159.761 1.18228 159.323C1.36352 158.886 1.67045 158.512 2.06424 158.248C2.45803 157.985 2.921 157.845 3.39461 157.845C4.0297 157.845 4.63878 158.097 5.08785 158.546C5.53693 158.995 5.78922 159.604 5.78922 160.239Z" fill="#263238" stroke="#263238" stroke-width="0.373549" stroke-linecap="round" stroke-linejoin="round"/>
<path d="M61.9689 317.964C61.9689 318.438 61.8282 318.902 61.5646 319.296C61.301 319.69 60.9264 319.997 60.4882 320.178C60.05 320.359 59.568 320.405 59.1032 320.312C58.6384 320.219 58.2118 319.99 57.8773 319.654C57.5428 319.318 57.3156 318.89 57.2244 318.425C57.1332 317.96 57.1822 317.478 57.365 317.041C57.5479 316.603 57.8565 316.23 58.2517 315.968C58.6469 315.706 59.1109 315.568 59.5849 315.57C59.8989 315.57 60.2098 315.632 60.4997 315.752C60.7896 315.873 61.0529 316.049 61.2744 316.272C61.4959 316.494 61.6713 316.758 61.7905 317.049C61.9097 317.339 61.9703 317.65 61.9689 317.964Z" fill="#263238" stroke="#263238" stroke-width="0.373549" stroke-linecap="round" stroke-linejoin="round"/>
<path d="M344.895 307.907C344.897 308.381 344.758 308.845 344.496 309.24C344.234 309.636 343.861 309.944 343.424 310.127C342.986 310.31 342.505 310.359 342.039 310.268C341.574 310.176 341.147 309.949 340.811 309.615C340.475 309.28 340.246 308.854 340.152 308.389C340.059 307.924 340.106 307.442 340.287 307.004C340.468 306.566 340.775 306.191 341.169 305.927C341.563 305.664 342.026 305.523 342.5 305.523C342.814 305.522 343.125 305.582 343.416 305.702C343.706 305.821 343.97 305.996 344.193 306.218C344.415 306.439 344.592 306.702 344.712 306.992C344.833 307.282 344.895 307.593 344.895 307.907Z" fill="#263238" stroke="#263238" stroke-width="0.373549" stroke-linecap="round" stroke-linejoin="round"/>
<path d="M415.998 162.347C415.998 162.818 415.859 163.279 415.597 163.671C415.335 164.063 414.962 164.369 414.527 164.549C414.091 164.73 413.612 164.777 413.149 164.685C412.687 164.593 412.262 164.366 411.929 164.033C411.595 163.699 411.368 163.274 411.276 162.812C411.184 162.349 411.232 161.87 411.412 161.435C411.592 160.999 411.898 160.627 412.29 160.365C412.682 160.103 413.143 159.963 413.614 159.963C414.247 159.963 414.853 160.214 415.3 160.661C415.747 161.108 415.998 161.715 415.998 162.347Z" fill="#263238" stroke="#263238" stroke-width="0.373549" stroke-linecap="round" stroke-linejoin="round"/>
<path d="M388.307 103.748C388.307 104.219 388.167 104.68 387.905 105.072C387.643 105.464 387.271 105.77 386.835 105.95C386.4 106.131 385.92 106.178 385.458 106.086C384.995 105.994 384.571 105.767 384.237 105.434C383.904 105.1 383.677 104.675 383.585 104.213C383.493 103.751 383.54 103.271 383.721 102.836C383.901 102.4 384.207 102.028 384.599 101.766C384.991 101.504 385.452 101.364 385.923 101.364C386.555 101.364 387.162 101.615 387.609 102.062C388.056 102.509 388.307 103.116 388.307 103.748Z" fill="#263238" stroke="#263238" stroke-width="0.373549" stroke-linecap="round" stroke-linejoin="round"/>
<path d="M317.619 40.6154C317.619 41.0869 317.48 41.5478 317.218 41.9398C316.956 42.3319 316.583 42.6374 316.148 42.8179C315.712 42.9983 315.233 43.0455 314.77 42.9535C314.308 42.8616 313.883 42.6345 313.55 42.3011C313.216 41.9677 312.989 41.5429 312.897 41.0805C312.805 40.618 312.853 40.1387 313.033 39.7031C313.213 39.2675 313.519 38.8951 313.911 38.6332C314.303 38.3712 314.764 38.2314 315.236 38.2314C315.868 38.2314 316.474 38.4826 316.921 38.9297C317.368 39.3767 317.619 39.9831 317.619 40.6154Z" fill="#263238" stroke="#263238" stroke-width="0.373549" stroke-linecap="round" stroke-linejoin="round"/>
<path d="M237.578 293.486V272.733H175.126V293.486C175.107 300.271 172.763 306.845 168.485 312.111L165.75 315.495H246.933L244.208 312.111C239.93 306.845 237.589 300.271 237.578 293.486Z" fill="white"/>
<mask id="mask0_1_1706" style="mask-type:luminance" maskUnits="userSpaceOnUse" x="165" y="272" width="82" height="44">
<path d="M237.578 293.486V272.733H175.126V293.486C175.107 300.271 172.763 306.845 168.485 312.111L165.75 315.495H246.933L244.208 312.111C239.93 306.845 237.589 300.271 237.578 293.486Z" fill="white"/>
</mask>
<g mask="url(#mask0_1_1706)">
<path d="M171.293 308.024H241.407C238.898 303.589 237.578 298.581 237.576 293.486V272.733H175.124V293.486C175.122 298.581 173.802 303.589 171.293 308.024Z" fill="#92E3A9"/>
<path opacity="0.3" d="M171.293 308.024H241.407C238.898 303.589 237.578 298.581 237.576 293.486V272.733H175.124V293.486C175.122 298.581 173.802 303.589 171.293 308.024Z" fill="white"/>
<path d="M171.293 286.143H241.407C238.898 281.708 237.578 276.7 237.576 271.605V250.851H175.124V271.605C175.122 276.7 173.802 281.708 171.293 286.143Z" fill="#263238"/>
</g>
<path d="M237.578 293.486V272.733H175.126V293.486C175.107 300.271 172.763 306.845 168.485 312.111L165.75 315.495H246.933L244.208 312.111C239.93 306.845 237.589 300.271 237.578 293.486Z" stroke="#263238" stroke-width="0.373549" stroke-linecap="round" stroke-linejoin="round"/>
<path d="M322.815 94.989H89.8883C84.9039 94.989 80.8633 99.0296 80.8633 104.014V270.242C80.8633 275.227 84.9039 279.267 89.8883 279.267H322.815C327.799 279.267 331.84 275.227 331.84 270.242V104.014C331.84 99.0296 327.799 94.989 322.815 94.989Z" fill="#263238" stroke="#263238" stroke-width="0.373549" stroke-linecap="round" stroke-linejoin="round"/>
<path d="M80.8633 250.628H331.84V270.243C331.84 272.636 330.889 274.932 329.196 276.624C327.504 278.317 325.208 279.268 322.815 279.268H89.8883C87.4947 279.268 85.1992 278.317 83.5066 276.624C81.8141 274.932 80.8633 272.636 80.8633 270.243V250.628Z" fill="white" stroke="#263238" stroke-width="0.373549" stroke-linecap="round" stroke-linejoin="round"/>
<path d="M319.206 106.462H93.4845V236.654H319.206V106.462Z" fill="white" stroke="#263238" stroke-width="0.373549" stroke-linecap="round" stroke-linejoin="round"/>
<path d="M210.981 269.54C211 268.621 210.745 267.716 210.248 266.943C209.751 266.169 209.034 265.56 208.19 265.195C207.346 264.83 206.412 264.725 205.508 264.892C204.604 265.06 203.77 265.493 203.113 266.137C202.456 266.78 202.005 267.605 201.819 268.505C201.632 269.406 201.718 270.342 202.066 271.193C202.413 272.045 203.006 272.774 203.77 273.287C204.533 273.8 205.432 274.074 206.351 274.074C207.566 274.085 208.736 273.614 209.604 272.764C210.471 271.914 210.967 270.755 210.981 269.54Z" fill="#263238" stroke="#263238" stroke-width="0.373549" stroke-linecap="round" stroke-linejoin="round"/>
<path d="M246.955 315.527H165.762V319.231H246.955V315.527Z" fill="white" stroke="#263238" stroke-width="0.373549" stroke-linecap="round" stroke-linejoin="round"/>
<path d="M206.691 99.7037C195.346 110.346 166.249 120.989 132.395 143.647C132.395 143.647 134.523 220.275 206.691 262.111V99.7037Z" fill="#92E3A9" stroke="#263238" stroke-width="0.373549" stroke-linecap="round" stroke-linejoin="round"/>
<path d="M206.691 99.7037C218.047 110.346 247.134 120.989 280.999 143.647C280.999 143.647 278.87 220.275 206.691 262.111V99.7037Z" fill="#263238" stroke="#263238" stroke-width="0.373549" stroke-linecap="round" stroke-linejoin="round"/>
<path d="M206.695 106.228C192.966 115.742 169.244 124.799 137.848 145.808C137.848 145.808 139.817 216.795 206.695 255.598C273.585 216.795 275.554 145.808 275.554 145.808C244.158 124.799 220.51 115.742 206.695 106.228Z" fill="#263238" stroke="#263238" stroke-width="0.373549" stroke-linecap="round" stroke-linejoin="round"/>
<path d="M275.55 145.808C244.154 124.81 220.506 115.742 206.691 106.228V255.598C273.581 216.795 275.55 145.808 275.55 145.808Z" fill="#92E3A9" stroke="#263238" stroke-width="0.373549" stroke-linecap="round" stroke-linejoin="round"/>
<path d="M332.612 183.387H80.082V199.735H332.612V183.387Z" fill="#263238" stroke="#263238" stroke-width="0.373549" stroke-linecap="round" stroke-linejoin="round"/>
<path d="M85.056 185.984C85.0623 186.32 84.9685 186.65 84.7864 186.933C84.6044 187.215 84.3424 187.437 84.0338 187.57C83.7252 187.703 83.384 187.741 83.0536 187.68C82.7233 187.618 82.4188 187.459 82.179 187.224C81.9391 186.989 81.7747 186.687 81.7068 186.358C81.6389 186.029 81.6705 185.687 81.7976 185.376C81.9247 185.065 82.1415 184.799 82.4204 184.612C82.6993 184.424 83.0277 184.324 83.3638 184.324C83.5841 184.321 83.8028 184.362 84.0073 184.444C84.2118 184.526 84.398 184.648 84.5553 184.802C84.7126 184.956 84.8378 185.14 84.9237 185.343C85.0096 185.546 85.0546 185.764 85.056 185.984Z" fill="white"/>
<path d="M82.3945 186.9C82.5798 187.094 82.8189 187.229 83.0814 187.287C83.3438 187.346 83.6176 187.324 83.8678 187.226C84.118 187.128 84.3332 186.957 84.486 186.736C84.6387 186.515 84.722 186.253 84.7253 185.984C84.7217 185.665 84.6004 185.358 84.3847 185.122C83.6816 185.669 83.0167 186.262 82.3945 186.9Z" fill="#263238"/>
<path d="M91.6981 185.984C91.7066 186.323 91.6139 186.656 91.432 186.942C91.2502 187.227 90.9873 187.452 90.677 187.587C90.3666 187.723 90.023 187.763 89.6899 187.702C89.3569 187.641 89.0495 187.482 88.8071 187.246C88.5646 187.01 88.3982 186.706 88.3289 186.375C88.2597 186.044 88.2909 185.699 88.4184 185.385C88.5459 185.072 88.7641 184.803 89.045 184.614C89.3258 184.425 89.6567 184.324 89.9953 184.324C90.2161 184.321 90.4353 184.362 90.6404 184.444C90.8455 184.526 91.0325 184.647 91.1906 184.801C91.3487 184.956 91.4749 185.139 91.562 185.342C91.6491 185.545 91.6953 185.763 91.6981 185.984Z" fill="white"/>
<path d="M89.0234 186.9C89.2087 187.094 89.4479 187.229 89.7103 187.287C89.9727 187.346 90.2465 187.324 90.4967 187.226C90.7469 187.128 90.9621 186.957 91.1149 186.736C91.2676 186.515 91.3509 186.253 91.3542 185.984C91.3506 185.665 91.2294 185.358 91.0136 185.122C90.3128 185.671 89.648 186.265 89.0234 186.9Z" fill="#263238"/>
<path d="M98.3247 185.984C98.2909 186.411 98.0974 186.81 97.7828 187.1C97.4681 187.391 97.0555 187.552 96.6272 187.552C96.1989 187.552 95.7863 187.391 95.4716 187.1C95.157 186.81 94.9635 186.411 94.9297 185.984C94.9635 185.557 95.157 185.159 95.4716 184.868C95.7863 184.577 96.1989 184.416 96.6272 184.416C97.0555 184.416 97.4681 184.577 97.7828 184.868C98.0974 185.159 98.2909 185.557 98.3247 185.984Z" fill="white"/>
<path d="M95.6602 186.9C95.7872 187.031 95.9393 187.135 96.1075 187.207C96.2757 187.278 96.4566 187.315 96.6393 187.315C96.8154 187.316 96.99 187.283 97.1533 187.217C97.3165 187.15 97.4651 187.053 97.5906 186.929C97.7161 186.806 97.8161 186.659 97.8848 186.497C97.9535 186.334 97.9895 186.16 97.9909 185.984C97.9914 185.664 97.8696 185.356 97.6503 185.122C96.9495 185.671 96.2848 186.265 95.6602 186.9Z" fill="#263238"/>
<path d="M104.955 185.984C104.961 186.32 104.867 186.65 104.685 186.933C104.503 187.215 104.241 187.437 103.932 187.57C103.624 187.703 103.283 187.741 102.952 187.68C102.622 187.618 102.317 187.459 102.078 187.224C101.838 186.989 101.673 186.687 101.605 186.358C101.538 186.029 101.569 185.687 101.696 185.376C101.823 185.065 102.04 184.799 102.319 184.612C102.598 184.424 102.926 184.324 103.262 184.324C103.483 184.321 103.701 184.362 103.906 184.444C104.11 184.526 104.297 184.648 104.454 184.802C104.611 184.956 104.736 185.14 104.822 185.343C104.908 185.546 104.953 185.764 104.955 185.984Z" fill="white"/>
<path d="M102.289 186.9C102.476 187.093 102.716 187.226 102.978 187.284C103.241 187.341 103.514 187.319 103.765 187.222C104.015 187.124 104.231 186.954 104.385 186.734C104.539 186.514 104.624 186.253 104.63 185.984C104.627 185.665 104.506 185.358 104.29 185.122C103.583 185.669 102.915 186.262 102.289 186.9Z" fill="#263238"/>
<path d="M111.591 185.984C111.597 186.32 111.504 186.65 111.321 186.933C111.139 187.215 110.877 187.437 110.569 187.57C110.26 187.703 109.919 187.741 109.589 187.68C109.258 187.618 108.954 187.459 108.714 187.224C108.474 186.989 108.31 186.687 108.242 186.358C108.174 186.029 108.206 185.687 108.333 185.376C108.46 185.065 108.677 184.799 108.955 184.612C109.234 184.424 109.563 184.324 109.899 184.324C110.119 184.321 110.338 184.362 110.542 184.444C110.747 184.526 110.933 184.648 111.09 184.802C111.248 184.956 111.373 185.14 111.459 185.343C111.545 185.546 111.59 185.764 111.591 185.984Z" fill="white"/>
<path d="M108.887 186.9C109.014 187.03 109.166 187.134 109.334 187.206C109.503 187.277 109.683 187.314 109.866 187.315C110.043 187.317 110.219 187.285 110.383 187.22C110.548 187.154 110.697 187.057 110.824 186.933C110.951 186.809 111.052 186.662 111.121 186.499C111.19 186.336 111.227 186.161 111.228 185.984C111.225 185.665 111.103 185.358 110.888 185.122C110.183 185.671 109.515 186.265 108.887 186.9Z" fill="#263238"/>
<path d="M118.22 185.984C118.226 186.32 118.133 186.65 117.95 186.933C117.768 187.215 117.506 187.437 117.198 187.57C116.889 187.703 116.548 187.741 116.218 187.68C115.887 187.618 115.583 187.459 115.343 187.224C115.103 186.989 114.939 186.687 114.871 186.358C114.803 186.029 114.835 185.687 114.962 185.376C115.089 185.065 115.306 184.799 115.584 184.612C115.863 184.424 116.192 184.324 116.528 184.324C116.748 184.321 116.967 184.362 117.171 184.444C117.376 184.526 117.562 184.648 117.719 184.802C117.877 184.956 118.002 185.14 118.088 185.343C118.174 185.546 118.219 185.764 118.22 185.984Z" fill="white"/>
<path d="M115.555 186.9C115.74 187.094 115.979 187.229 116.242 187.287C116.504 187.346 116.778 187.324 117.028 187.226C117.278 187.128 117.493 186.957 117.646 186.736C117.799 186.515 117.882 186.253 117.885 185.984C117.882 185.665 117.761 185.358 117.545 185.122C116.842 185.669 116.177 186.262 115.555 186.9Z" fill="#263238"/>
<path d="M124.847 185.984C124.855 186.323 124.762 186.656 124.58 186.942C124.399 187.227 124.136 187.452 123.825 187.587C123.515 187.723 123.171 187.763 122.838 187.702C122.505 187.641 122.198 187.482 121.955 187.246C121.713 187.01 121.547 186.706 121.477 186.375C121.408 186.044 121.439 185.699 121.567 185.385C121.694 185.072 121.913 184.803 122.193 184.614C122.474 184.425 122.805 184.324 123.144 184.324C123.365 184.321 123.584 184.362 123.789 184.444C123.994 184.526 124.181 184.647 124.339 184.801C124.497 184.956 124.623 185.139 124.71 185.342C124.798 185.545 124.844 185.763 124.847 185.984Z" fill="white"/>
<path d="M122.184 186.9C122.369 187.094 122.608 187.229 122.87 187.287C123.133 187.346 123.407 187.324 123.657 187.226C123.907 187.128 124.122 186.957 124.275 186.736C124.428 186.515 124.511 186.253 124.514 185.984C124.511 185.665 124.389 185.358 124.174 185.122C123.473 185.671 122.808 186.265 122.184 186.9Z" fill="#263238"/>
<path d="M131.49 185.984C131.496 186.32 131.402 186.65 131.22 186.933C131.038 187.215 130.776 187.437 130.467 187.57C130.159 187.703 129.818 187.741 129.487 187.68C129.157 187.618 128.852 187.459 128.613 187.224C128.373 186.989 128.208 186.687 128.14 186.358C128.072 186.029 128.104 185.687 128.231 185.376C128.358 185.065 128.575 184.799 128.854 184.612C129.133 184.424 129.461 184.324 129.797 184.324C130.018 184.321 130.236 184.362 130.441 184.444C130.645 184.526 130.832 184.648 130.989 184.802C131.146 184.956 131.271 185.14 131.357 185.343C131.443 185.546 131.488 185.764 131.49 185.984Z" fill="white"/>
<path d="M128.82 186.9C128.947 187.031 129.1 187.135 129.268 187.207C129.436 187.278 129.617 187.315 129.799 187.315C129.976 187.316 130.15 187.283 130.313 187.217C130.477 187.15 130.625 187.053 130.751 186.929C130.876 186.806 130.976 186.659 131.045 186.497C131.114 186.334 131.15 186.16 131.151 185.984C131.152 185.664 131.03 185.356 130.811 185.122C130.11 185.671 129.445 186.265 128.82 186.9Z" fill="#263238"/>
<path d="M138.118 185.984C138.125 186.32 138.031 186.65 137.849 186.933C137.667 187.215 137.405 187.437 137.096 187.57C136.788 187.703 136.446 187.741 136.116 187.68C135.786 187.618 135.481 187.459 135.241 187.224C135.002 186.989 134.837 186.687 134.769 186.358C134.701 186.029 134.733 185.687 134.86 185.376C134.987 185.065 135.204 184.799 135.483 184.612C135.762 184.424 136.09 184.324 136.426 184.324C136.647 184.321 136.865 184.362 137.07 184.444C137.274 184.526 137.461 184.648 137.618 184.802C137.775 184.956 137.9 185.14 137.986 185.343C138.072 185.546 138.117 185.764 138.118 185.984Z" fill="white"/>
<path d="M135.492 186.9C135.679 187.093 135.919 187.226 136.181 187.284C136.444 187.341 136.717 187.319 136.968 187.222C137.218 187.124 137.434 186.954 137.588 186.734C137.742 186.514 137.827 186.253 137.834 185.984C137.83 185.665 137.709 185.358 137.493 185.122C136.789 185.671 136.121 186.265 135.492 186.9Z" fill="#263238"/>
<path d="M144.755 185.984C144.762 186.32 144.668 186.65 144.486 186.933C144.304 187.215 144.042 187.437 143.733 187.57C143.424 187.703 143.083 187.741 142.753 187.68C142.423 187.618 142.118 187.459 141.878 187.224C141.638 186.989 141.474 186.687 141.406 186.358C141.338 186.029 141.37 185.687 141.497 185.376C141.624 185.065 141.841 184.799 142.12 184.612C142.399 184.424 142.727 184.324 143.063 184.324C143.283 184.321 143.502 184.362 143.706 184.444C143.911 184.526 144.097 184.648 144.255 184.802C144.412 184.956 144.537 185.14 144.623 185.343C144.709 185.546 144.754 185.764 144.755 185.984Z" fill="white"/>
<path d="M142.078 186.9C142.206 187.03 142.358 187.134 142.526 187.206C142.694 187.277 142.875 187.314 143.057 187.315C143.234 187.317 143.41 187.285 143.574 187.22C143.739 187.154 143.889 187.057 144.015 186.933C144.142 186.809 144.243 186.662 144.312 186.499C144.382 186.336 144.418 186.161 144.42 185.984C144.416 185.665 144.295 185.358 144.079 185.122C143.375 185.671 142.706 186.265 142.078 186.9Z" fill="#263238"/>
<path d="M151.38 185.984C151.387 186.32 151.293 186.65 151.111 186.933C150.929 187.215 150.667 187.437 150.358 187.57C150.049 187.703 149.708 187.741 149.378 187.68C149.048 187.618 148.743 187.459 148.503 187.224C148.263 186.989 148.099 186.687 148.031 186.358C147.963 186.029 147.995 185.687 148.122 185.376C148.249 185.065 148.466 184.799 148.745 184.612C149.024 184.424 149.352 184.324 149.688 184.324C149.908 184.321 150.127 184.362 150.331 184.444C150.536 184.526 150.722 184.648 150.879 184.802C151.037 184.956 151.162 185.14 151.248 185.343C151.334 185.546 151.379 185.764 151.38 185.984Z" fill="white"/>
<path d="M148.719 186.899C148.904 187.094 149.143 187.229 149.406 187.287C149.668 187.346 149.942 187.324 150.192 187.226C150.442 187.128 150.657 186.957 150.81 186.736C150.963 186.515 151.046 186.253 151.05 185.984C151.046 185.665 150.925 185.358 150.709 185.122C150.008 185.671 149.343 186.265 148.719 186.899Z" fill="#263238"/>
<path d="M158.022 185.984C158.031 186.323 157.938 186.657 157.756 186.943C157.573 187.229 157.31 187.453 156.999 187.588C156.688 187.724 156.344 187.763 156.01 187.701C155.677 187.64 155.369 187.48 155.127 187.242C154.885 187.005 154.72 186.701 154.652 186.368C154.584 186.036 154.616 185.691 154.746 185.378C154.875 185.064 155.095 184.797 155.377 184.609C155.659 184.421 155.991 184.322 156.33 184.324C156.55 184.321 156.769 184.362 156.974 184.444C157.178 184.526 157.364 184.648 157.522 184.802C157.679 184.956 157.804 185.14 157.89 185.343C157.976 185.546 158.021 185.764 158.022 185.984Z" fill="white"/>
<path d="M155.348 186.9C155.533 187.094 155.772 187.229 156.034 187.287C156.297 187.346 156.571 187.324 156.821 187.226C157.071 187.128 157.286 186.957 157.439 186.736C157.592 186.515 157.675 186.253 157.678 185.984C157.679 185.664 157.557 185.356 157.338 185.122C156.637 185.671 155.972 186.265 155.348 186.9Z" fill="#263238"/>
<path d="M164.65 185.984C164.656 186.32 164.562 186.65 164.38 186.933C164.198 187.215 163.936 187.437 163.628 187.57C163.319 187.703 162.978 187.741 162.647 187.68C162.317 187.618 162.013 187.459 161.773 187.224C161.533 186.989 161.368 186.687 161.301 186.358C161.233 186.029 161.264 185.687 161.391 185.376C161.518 185.065 161.735 184.799 162.014 184.612C162.293 184.424 162.621 184.324 162.958 184.324C163.178 184.321 163.397 184.362 163.601 184.444C163.806 184.526 163.992 184.648 164.149 184.802C164.306 184.956 164.432 185.14 164.517 185.343C164.603 185.546 164.648 185.764 164.65 185.984Z" fill="white"/>
<path d="M161.984 186.9C162.171 187.093 162.411 187.226 162.673 187.284C162.936 187.341 163.21 187.319 163.46 187.222C163.71 187.124 163.926 186.954 164.08 186.734C164.234 186.514 164.32 186.253 164.326 185.984C164.322 185.665 164.201 185.358 163.985 185.122C163.279 185.669 162.61 186.262 161.984 186.9Z" fill="#263238"/>
<path d="M171.283 185.984C171.289 186.32 171.195 186.65 171.013 186.933C170.831 187.215 170.569 187.437 170.26 187.57C169.952 187.703 169.611 187.741 169.28 187.68C168.95 187.618 168.645 187.459 168.406 187.224C168.166 186.989 168.001 186.687 167.933 186.358C167.865 186.029 167.897 185.687 168.024 185.376C168.151 185.065 168.368 184.799 168.647 184.612C168.926 184.424 169.254 184.324 169.59 184.324C169.811 184.321 170.029 184.362 170.234 184.444C170.438 184.526 170.625 184.648 170.782 184.802C170.939 184.956 171.064 185.14 171.15 185.343C171.236 185.546 171.281 185.764 171.283 185.984Z" fill="white"/>
<path d="M168.613 186.9C168.741 187.03 168.893 187.134 169.061 187.206C169.229 187.277 169.41 187.314 169.592 187.315C169.769 187.317 169.945 187.285 170.11 187.22C170.274 187.154 170.424 187.057 170.551 186.933C170.677 186.809 170.778 186.662 170.848 186.499C170.917 186.336 170.953 186.161 170.955 185.984C170.951 185.665 170.83 185.358 170.614 185.122C169.91 185.671 169.242 186.265 168.613 186.9Z" fill="#263238"/>
<path d="M85.0557 196.531C85.0642 196.867 84.9722 197.199 84.7915 197.483C84.6107 197.766 84.3495 197.99 84.0411 198.124C83.7328 198.259 83.3913 198.299 83.0603 198.238C82.7293 198.178 82.4238 198.02 82.1828 197.785C81.9419 197.55 81.7765 197.249 81.7076 196.92C81.6388 196.59 81.6698 196.248 81.7965 195.936C81.9232 195.625 82.14 195.358 82.4191 195.17C82.6983 194.982 83.0271 194.882 83.3635 194.881C83.583 194.879 83.8008 194.919 84.0046 195C84.2084 195.082 84.3942 195.203 84.5513 195.356C84.7084 195.509 84.8339 195.692 84.9204 195.893C85.007 196.095 85.0529 196.312 85.0557 196.531Z" fill="white"/>
<path d="M82.3945 197.457C82.5192 197.588 82.6694 197.693 82.8359 197.764C83.0025 197.836 83.1818 197.872 83.363 197.872C83.5405 197.873 83.7166 197.84 83.8811 197.773C84.0456 197.707 84.1954 197.608 84.3219 197.484C84.4484 197.359 84.5491 197.211 84.6183 197.048C84.6875 196.884 84.7239 196.709 84.7253 196.531C84.7191 196.215 84.598 195.913 84.3847 195.68C83.6816 196.226 83.0167 196.82 82.3945 197.457Z" fill="#263238"/>
<path d="M91.6978 196.531C91.7084 196.87 91.6176 197.204 91.4371 197.491C91.2565 197.778 90.9944 198.005 90.6843 198.142C90.3743 198.279 90.0303 198.32 89.6966 198.261C89.3628 198.201 89.0545 198.043 88.811 197.807C88.5675 197.571 88.3999 197.268 88.3298 196.937C88.2597 196.605 88.2901 196.26 88.4173 195.946C88.5445 195.631 88.7626 195.362 89.0436 195.173C89.3247 194.983 89.656 194.882 89.995 194.881C90.4391 194.876 90.8675 195.046 91.1866 195.355C91.5056 195.664 91.6894 196.087 91.6978 196.531Z" fill="white"/>
<path d="M89.0234 197.457C89.1481 197.588 89.2983 197.693 89.4648 197.764C89.6314 197.836 89.8107 197.872 89.9919 197.872C90.1694 197.873 90.3455 197.84 90.51 197.773C90.6745 197.707 90.8243 197.608 90.9508 197.484C91.0773 197.359 91.178 197.211 91.2472 197.048C91.3165 196.884 91.3528 196.709 91.3542 196.531C91.348 196.215 91.2269 195.913 91.0136 195.68C90.3128 196.229 89.648 196.822 89.0234 197.457Z" fill="#263238"/>
<path d="M98.3267 196.531C98.3373 196.87 98.2463 197.205 98.0652 197.492C97.8842 197.779 97.6215 198.006 97.3108 198.143C97.0001 198.28 96.6556 198.32 96.3215 198.26C95.9875 198.199 95.6791 198.041 95.4361 197.804C95.193 197.567 95.0263 197.262 94.9573 196.93C94.8884 196.598 94.9204 196.252 95.0492 195.938C95.178 195.624 95.3978 195.356 95.6803 195.167C95.9628 194.979 96.2951 194.879 96.6345 194.881C96.854 194.879 97.0718 194.919 97.2756 195C97.4794 195.082 97.6652 195.203 97.8223 195.356C97.9794 195.509 98.1049 195.692 98.1914 195.893C98.278 196.095 98.3239 196.312 98.3267 196.531Z" fill="white"/>
<path d="M95.6602 197.457C95.8461 197.652 96.0862 197.788 96.3496 197.845C96.613 197.903 96.8877 197.881 97.1383 197.781C97.3889 197.682 97.6041 197.51 97.756 197.287C97.9079 197.064 97.9897 196.801 97.9909 196.531C97.9898 196.214 97.868 195.91 97.6503 195.68C96.9495 196.229 96.2848 196.822 95.6602 197.457Z" fill="#263238"/>
<path d="M104.958 196.531C104.967 196.867 104.875 197.199 104.694 197.483C104.513 197.766 104.252 197.99 103.944 198.124C103.635 198.259 103.294 198.299 102.963 198.238C102.632 198.178 102.326 198.02 102.085 197.785C101.844 197.551 101.679 197.249 101.61 196.92C101.541 196.59 101.572 196.248 101.699 195.936C101.826 195.625 102.043 195.358 102.322 195.17C102.601 194.982 102.93 194.882 103.266 194.881C103.485 194.879 103.703 194.919 103.907 195C104.111 195.082 104.297 195.203 104.454 195.356C104.611 195.509 104.736 195.692 104.823 195.893C104.91 196.095 104.955 196.312 104.958 196.531Z" fill="white"/>
<path d="M102.289 197.457C102.476 197.651 102.717 197.785 102.981 197.842C103.244 197.898 103.519 197.876 103.769 197.777C104.02 197.678 104.236 197.506 104.389 197.285C104.542 197.063 104.626 196.801 104.63 196.531C104.624 196.215 104.503 195.913 104.29 195.68C103.583 196.226 102.915 196.82 102.289 197.457Z" fill="#263238"/>
<path d="M111.591 196.531C111.599 196.867 111.507 197.199 111.326 197.483C111.146 197.766 110.885 197.99 110.576 198.124C110.268 198.259 109.926 198.299 109.595 198.238C109.264 198.178 108.959 198.02 108.718 197.785C108.477 197.551 108.312 197.249 108.243 196.92C108.174 196.59 108.205 196.248 108.332 195.936C108.458 195.625 108.675 195.358 108.954 195.17C109.233 194.982 109.562 194.882 109.899 194.881C110.118 194.879 110.336 194.919 110.54 195C110.743 195.082 110.929 195.203 111.086 195.356C111.243 195.509 111.369 195.692 111.455 195.893C111.542 196.095 111.588 196.312 111.591 196.531Z" fill="white"/>
<path d="M108.887 197.457C109.014 197.588 109.166 197.692 109.334 197.763C109.503 197.834 109.683 197.871 109.866 197.872C110.043 197.873 110.219 197.84 110.384 197.773C110.548 197.707 110.698 197.608 110.825 197.484C110.951 197.359 111.052 197.211 111.121 197.048C111.19 196.884 111.227 196.709 111.228 196.531C111.222 196.215 111.101 195.913 110.888 195.68C110.183 196.229 109.515 196.822 108.887 197.457Z" fill="#263238"/>
<path d="M118.22 196.531C118.228 196.867 118.136 197.199 117.956 197.483C117.775 197.766 117.514 197.99 117.205 198.124C116.897 198.259 116.555 198.299 116.224 198.238C115.893 198.178 115.588 198.02 115.347 197.785C115.106 197.55 114.941 197.249 114.872 196.92C114.803 196.59 114.834 196.248 114.961 195.936C115.087 195.625 115.304 195.358 115.583 195.17C115.862 194.982 116.191 194.882 116.528 194.881C116.747 194.879 116.965 194.919 117.169 195C117.372 195.082 117.558 195.203 117.715 195.356C117.873 195.509 117.998 195.692 118.084 195.893C118.171 196.095 118.217 196.312 118.22 196.531Z" fill="white"/>
<path d="M115.555 197.457C115.679 197.588 115.83 197.693 115.996 197.764C116.163 197.836 116.342 197.872 116.523 197.872C116.701 197.873 116.877 197.84 117.041 197.773C117.206 197.707 117.356 197.608 117.482 197.484C117.609 197.359 117.709 197.211 117.778 197.048C117.848 196.884 117.884 196.709 117.885 196.531C117.879 196.215 117.758 195.913 117.545 195.68C116.842 196.226 116.177 196.82 115.555 197.457Z" fill="#263238"/>
<path d="M124.846 196.531C124.857 196.87 124.766 197.204 124.585 197.491C124.405 197.778 124.143 198.005 123.833 198.142C123.523 198.279 123.179 198.32 122.845 198.261C122.511 198.201 122.203 198.043 121.959 197.807C121.716 197.571 121.548 197.268 121.478 196.937C121.408 196.605 121.439 196.26 121.566 195.946C121.693 195.631 121.911 195.362 122.192 195.173C122.473 194.983 122.804 194.882 123.143 194.881C123.588 194.876 124.016 195.046 124.335 195.355C124.654 195.664 124.838 196.087 124.846 196.531Z" fill="white"/>
<path d="M122.184 197.457C122.308 197.588 122.458 197.693 122.625 197.764C122.792 197.836 122.971 197.872 123.152 197.872C123.33 197.873 123.506 197.84 123.67 197.773C123.835 197.707 123.984 197.608 124.111 197.484C124.237 197.359 124.338 197.211 124.407 197.048C124.477 196.884 124.513 196.709 124.514 196.531C124.508 196.215 124.387 195.913 124.174 195.68C123.473 196.229 122.808 196.822 122.184 197.457Z" fill="#263238"/>
<path d="M131.489 196.531C131.498 196.867 131.406 197.199 131.225 197.483C131.044 197.766 130.783 197.99 130.475 198.124C130.166 198.259 129.825 198.299 129.494 198.238C129.163 198.178 128.857 198.02 128.616 197.785C128.376 197.55 128.21 197.249 128.141 196.92C128.072 196.59 128.103 196.248 128.23 195.936C128.357 195.625 128.574 195.358 128.853 195.17C129.132 194.982 129.461 194.882 129.797 194.881C130.017 194.879 130.234 194.919 130.438 195C130.642 195.082 130.828 195.203 130.985 195.356C131.142 195.509 131.267 195.692 131.354 195.893C131.441 196.095 131.487 196.312 131.489 196.531Z" fill="white"/>
<path d="M128.82 197.457C129.006 197.652 129.246 197.788 129.51 197.845C129.773 197.903 130.048 197.881 130.298 197.781C130.549 197.682 130.764 197.51 130.916 197.287C131.068 197.064 131.15 196.801 131.151 196.531C131.15 196.214 131.028 195.91 130.811 195.68C130.11 196.229 129.445 196.822 128.82 197.457Z" fill="#263238"/>
<path d="M138.122 196.531C138.131 196.867 138.039 197.199 137.858 197.483C137.677 197.766 137.416 197.99 137.108 198.124C136.799 198.259 136.458 198.299 136.127 198.238C135.796 198.178 135.49 198.02 135.249 197.785C135.008 197.55 134.843 197.249 134.774 196.92C134.705 196.59 134.736 196.248 134.863 195.936C134.99 195.625 135.206 195.358 135.486 195.17C135.765 194.982 136.093 194.882 136.43 194.881C136.649 194.879 136.867 194.919 137.071 195C137.275 195.082 137.461 195.203 137.618 195.356C137.775 195.509 137.9 195.692 137.987 195.893C138.073 196.095 138.119 196.312 138.122 196.531Z" fill="white"/>
<path d="M135.492 197.457C135.68 197.651 135.92 197.785 136.184 197.842C136.447 197.898 136.722 197.876 136.972 197.777C137.223 197.678 137.439 197.506 137.592 197.285C137.745 197.063 137.829 196.801 137.834 196.531C137.827 196.215 137.706 195.913 137.493 195.68C136.789 196.229 136.121 196.822 135.492 197.457Z" fill="#263238"/>
<path d="M144.755 196.531C144.763 196.867 144.671 197.199 144.491 197.483C144.31 197.766 144.049 197.99 143.74 198.124C143.432 198.259 143.091 198.299 142.76 198.238C142.428 198.178 142.123 198.02 141.882 197.785C141.641 197.55 141.476 197.249 141.407 196.92C141.338 196.59 141.369 196.248 141.496 195.936C141.622 195.625 141.839 195.358 142.118 195.17C142.397 194.982 142.726 194.882 143.063 194.881C143.282 194.879 143.5 194.919 143.704 195C143.908 195.082 144.093 195.203 144.251 195.356C144.408 195.509 144.533 195.692 144.62 195.893C144.706 196.095 144.752 196.312 144.755 196.531Z" fill="white"/>
<path d="M142.078 197.457C142.206 197.588 142.358 197.692 142.526 197.763C142.694 197.834 142.875 197.871 143.057 197.872C143.235 197.873 143.411 197.84 143.575 197.773C143.74 197.707 143.89 197.608 144.016 197.484C144.143 197.359 144.243 197.211 144.313 197.048C144.382 196.884 144.418 196.709 144.42 196.531C144.413 196.215 144.292 195.913 144.079 195.68C143.375 196.229 142.706 196.822 142.078 197.457Z" fill="#263238"/>
<path d="M151.38 196.531C151.388 196.867 151.296 197.199 151.116 197.483C150.935 197.766 150.674 197.99 150.365 198.124C150.057 198.259 149.715 198.299 149.384 198.238C149.053 198.178 148.748 198.02 148.507 197.785C148.266 197.55 148.101 197.249 148.032 196.92C147.963 196.59 147.994 196.248 148.121 195.936C148.247 195.625 148.464 195.358 148.743 195.17C149.022 194.982 149.351 194.882 149.688 194.881C149.907 194.879 150.125 194.919 150.329 195C150.533 195.082 150.718 195.203 150.876 195.356C151.033 195.509 151.158 195.692 151.245 195.893C151.331 196.095 151.377 196.312 151.38 196.531Z" fill="white"/>
<path d="M148.719 197.457C148.843 197.588 148.994 197.693 149.16 197.764C149.327 197.836 149.506 197.872 149.687 197.872C149.865 197.873 150.041 197.84 150.205 197.773C150.37 197.707 150.52 197.608 150.646 197.484C150.773 197.359 150.873 197.211 150.943 197.047C151.012 196.884 151.048 196.708 151.05 196.531C151.043 196.215 150.922 195.913 150.709 195.68C150.008 196.229 149.343 196.822 148.719 197.457Z" fill="#263238"/>
<path d="M158.022 196.531C158.033 196.87 157.942 197.205 157.761 197.492C157.58 197.779 157.317 198.006 157.006 198.143C156.695 198.28 156.351 198.32 156.017 198.26C155.683 198.199 155.374 198.041 155.131 197.804C154.888 197.567 154.722 197.262 154.653 196.93C154.584 196.598 154.616 196.252 154.745 195.938C154.873 195.624 155.093 195.356 155.376 195.167C155.658 194.979 155.99 194.879 156.33 194.881C156.549 194.879 156.767 194.919 156.971 195C157.175 195.082 157.36 195.203 157.518 195.356C157.675 195.509 157.8 195.692 157.887 195.893C157.973 196.095 158.019 196.312 158.022 196.531Z" fill="white"/>
<path d="M155.348 197.457C155.534 197.652 155.774 197.788 156.037 197.845C156.3 197.903 156.575 197.881 156.826 197.781C157.076 197.682 157.292 197.51 157.443 197.287C157.595 197.064 157.677 196.801 157.678 196.531C157.677 196.214 157.556 195.91 157.338 195.68C156.637 196.229 155.972 196.822 155.348 197.457Z" fill="#263238"/>
<path d="M164.649 196.531C164.658 196.867 164.566 197.199 164.385 197.483C164.204 197.766 163.943 197.99 163.635 198.124C163.327 198.259 162.985 198.299 162.654 198.238C162.323 198.178 162.018 198.02 161.777 197.785C161.536 197.55 161.37 197.249 161.301 196.92C161.233 196.59 161.264 196.248 161.39 195.936C161.517 195.625 161.734 195.358 162.013 195.17C162.292 194.982 162.621 194.882 162.957 194.881C163.177 194.879 163.395 194.919 163.598 195C163.802 195.082 163.988 195.203 164.145 195.356C164.302 195.509 164.428 195.692 164.514 195.893C164.601 196.095 164.647 196.312 164.649 196.531Z" fill="white"/>
<path d="M161.984 197.457C162.172 197.651 162.412 197.785 162.676 197.842C162.939 197.898 163.214 197.876 163.465 197.777C163.715 197.678 163.931 197.506 164.084 197.285C164.238 197.063 164.322 196.801 164.326 196.531C164.32 196.215 164.199 195.913 163.985 195.68C163.279 196.226 162.61 196.82 161.984 197.457Z" fill="#263238"/>
<path d="M171.282 196.531C171.291 196.867 171.199 197.199 171.018 197.483C170.837 197.766 170.576 197.99 170.268 198.124C169.959 198.259 169.618 198.299 169.287 198.238C168.956 198.178 168.65 198.02 168.409 197.785C168.168 197.55 168.003 197.249 167.934 196.92C167.865 196.59 167.896 196.248 168.023 195.936C168.15 195.625 168.367 195.358 168.646 195.17C168.925 194.982 169.254 194.882 169.59 194.881C169.81 194.879 170.027 194.919 170.231 195C170.435 195.082 170.621 195.203 170.778 195.356C170.935 195.509 171.06 195.692 171.147 195.893C171.234 196.095 171.28 196.312 171.282 196.531Z" fill="white"/>
<path d="M168.613 197.457C168.741 197.588 168.893 197.692 169.061 197.763C169.229 197.834 169.41 197.871 169.592 197.872C169.77 197.873 169.946 197.84 170.11 197.773C170.275 197.707 170.425 197.608 170.551 197.484C170.678 197.359 170.779 197.211 170.848 197.048C170.917 196.884 170.953 196.709 170.955 196.531C170.949 196.215 170.827 195.913 170.614 195.68C169.91 196.229 169.242 196.822 168.613 197.457Z" fill="#263238"/>
<path d="M244.771 185.984C244.777 186.32 244.683 186.65 244.501 186.933C244.319 187.215 244.057 187.437 243.749 187.57C243.44 187.703 243.099 187.741 242.768 187.68C242.438 187.618 242.134 187.459 241.894 187.224C241.654 186.989 241.49 186.687 241.422 186.358C241.354 186.029 241.385 185.687 241.512 185.376C241.639 185.065 241.856 184.799 242.135 184.612C242.414 184.424 242.743 184.324 243.079 184.324C243.299 184.321 243.518 184.362 243.722 184.444C243.927 184.526 244.113 184.648 244.27 184.802C244.427 184.956 244.553 185.14 244.639 185.343C244.724 185.546 244.769 185.764 244.771 185.984Z" fill="white"/>
<path d="M242.109 186.9C242.295 187.094 242.534 187.229 242.796 187.287C243.059 187.346 243.332 187.324 243.583 187.226C243.833 187.128 244.048 186.957 244.201 186.736C244.354 186.515 244.437 186.253 244.44 185.984C244.437 185.665 244.315 185.358 244.1 185.122C243.399 185.671 242.734 186.265 242.109 186.9Z" fill="#263238"/>
<path d="M251.413 185.984C251.421 186.323 251.329 186.657 251.146 186.943C250.964 187.229 250.7 187.453 250.389 187.588C250.078 187.724 249.734 187.763 249.401 187.701C249.067 187.64 248.76 187.48 248.518 187.242C248.276 187.005 248.11 186.701 248.042 186.368C247.974 186.036 248.007 185.691 248.136 185.378C248.265 185.064 248.485 184.797 248.768 184.609C249.05 184.421 249.382 184.322 249.721 184.324C249.941 184.321 250.16 184.362 250.364 184.444C250.569 184.526 250.755 184.648 250.912 184.802C251.07 184.956 251.195 185.14 251.281 185.343C251.367 185.546 251.412 185.764 251.413 185.984Z" fill="white"/>
<path d="M248.738 186.9C248.924 187.094 249.163 187.229 249.425 187.287C249.688 187.346 249.961 187.324 250.212 187.226C250.462 187.128 250.677 186.957 250.83 186.736C250.982 186.515 251.066 186.253 251.069 185.984C251.07 185.664 250.948 185.356 250.728 185.122C250.028 185.671 249.363 186.265 248.738 186.9Z" fill="#263238"/>
<path d="M258.044 185.984C258.051 186.32 257.957 186.65 257.775 186.933C257.593 187.215 257.331 187.437 257.022 187.57C256.713 187.703 256.372 187.741 256.042 187.68C255.712 187.618 255.407 187.459 255.167 187.224C254.927 186.989 254.763 186.687 254.695 186.358C254.627 186.029 254.659 185.687 254.786 185.376C254.913 185.065 255.13 184.799 255.409 184.612C255.688 184.424 256.016 184.324 256.352 184.324C256.572 184.321 256.791 184.362 256.996 184.444C257.2 184.526 257.386 184.648 257.544 184.802C257.701 184.956 257.826 185.14 257.912 185.343C257.998 185.546 258.043 185.764 258.044 185.984Z" fill="white"/>
<path d="M255.371 186.9C255.558 187.093 255.798 187.226 256.06 187.284C256.323 187.341 256.596 187.319 256.847 187.222C257.097 187.124 257.313 186.954 257.467 186.734C257.621 186.514 257.706 186.253 257.712 185.984C257.709 185.665 257.588 185.358 257.372 185.122C256.665 185.669 255.997 186.262 255.371 186.9Z" fill="#263238"/>
<path d="M264.677 185.984C264.683 186.32 264.59 186.65 264.408 186.933C264.225 187.215 263.963 187.437 263.655 187.57C263.346 187.703 263.005 187.741 262.675 187.68C262.344 187.618 262.04 187.459 261.8 187.224C261.56 186.989 261.396 186.687 261.328 186.358C261.26 186.029 261.292 185.687 261.419 185.376C261.546 185.065 261.763 184.799 262.041 184.612C262.32 184.424 262.649 184.324 262.985 184.324C263.205 184.321 263.424 184.362 263.628 184.444C263.833 184.526 264.019 184.648 264.176 184.802C264.334 184.956 264.459 185.14 264.545 185.343C264.631 185.546 264.676 185.764 264.677 185.984Z" fill="white"/>
<path d="M262 186.9C262.127 187.03 262.28 187.134 262.448 187.206C262.616 187.277 262.797 187.314 262.979 187.315C263.156 187.317 263.332 187.285 263.496 187.22C263.661 187.154 263.811 187.057 263.937 186.933C264.064 186.809 264.165 186.662 264.234 186.499C264.304 186.336 264.34 186.161 264.341 185.984C264.338 185.665 264.217 185.358 264.001 185.122C263.297 185.671 262.628 186.265 262 186.9Z" fill="#263238"/>
<path d="M271.306 185.984C271.312 186.32 271.218 186.65 271.036 186.933C270.854 187.215 270.592 187.437 270.284 187.57C269.975 187.703 269.634 187.741 269.304 187.68C268.973 187.618 268.669 187.459 268.429 187.224C268.189 186.989 268.025 186.687 267.957 186.358C267.889 186.029 267.92 185.687 268.048 185.376C268.175 185.065 268.391 184.799 268.67 184.612C268.949 184.424 269.278 184.324 269.614 184.324C269.834 184.321 270.053 184.362 270.257 184.444C270.462 184.526 270.648 184.648 270.805 184.802C270.963 184.956 271.088 185.14 271.174 185.343C271.26 185.546 271.305 185.764 271.306 185.984Z" fill="white"/>
<path d="M268.645 186.9C268.83 187.094 269.069 187.229 269.331 187.287C269.594 187.346 269.868 187.324 270.118 187.226C270.368 187.128 270.583 186.957 270.736 186.736C270.889 186.515 270.972 186.253 270.975 185.984C270.972 185.665 270.85 185.358 270.635 185.122C269.932 185.669 269.267 186.262 268.645 186.9Z" fill="#263238"/>
<path d="M277.944 185.984C277.953 186.323 277.86 186.656 277.678 186.942C277.496 187.227 277.233 187.452 276.923 187.587C276.613 187.723 276.269 187.763 275.936 187.702C275.603 187.641 275.296 187.482 275.053 187.246C274.811 187.01 274.644 186.706 274.575 186.375C274.506 186.044 274.537 185.699 274.664 185.385C274.792 185.072 275.01 184.803 275.291 184.614C275.572 184.425 275.903 184.324 276.241 184.324C276.462 184.321 276.681 184.362 276.887 184.444C277.092 184.526 277.279 184.647 277.437 184.801C277.595 184.956 277.721 185.139 277.808 185.342C277.895 185.545 277.941 185.763 277.944 185.984Z" fill="white"/>
<path d="M275.274 186.899C275.459 187.094 275.698 187.229 275.961 187.287C276.223 187.346 276.497 187.324 276.747 187.226C276.997 187.128 277.212 186.957 277.365 186.736C277.518 186.515 277.601 186.253 277.604 185.984C277.601 185.665 277.48 185.358 277.264 185.122C276.563 185.671 275.898 186.265 275.274 186.899Z" fill="#263238"/>
<path d="M284.573 185.984C284.582 186.323 284.489 186.657 284.306 186.943C284.124 187.229 283.86 187.453 283.549 187.588C283.239 187.724 282.894 187.763 282.561 187.701C282.228 187.64 281.92 187.48 281.678 187.242C281.436 187.005 281.271 186.701 281.203 186.368C281.135 186.036 281.167 185.691 281.296 185.378C281.426 185.064 281.645 184.797 281.928 184.609C282.21 184.421 282.542 184.322 282.881 184.324C283.101 184.321 283.32 184.362 283.524 184.444C283.729 184.526 283.915 184.648 284.072 184.802C284.23 184.956 284.355 185.14 284.441 185.343C284.527 185.546 284.572 185.764 284.573 185.984Z" fill="white"/>
<path d="M281.906 186.899C282.091 187.094 282.331 187.229 282.593 187.287C282.855 187.346 283.129 187.324 283.379 187.226C283.63 187.128 283.845 186.957 283.998 186.736C284.15 186.515 284.234 186.253 284.237 185.984C284.237 185.664 284.116 185.356 283.896 185.122C283.195 185.671 282.531 186.265 281.906 186.899Z" fill="#263238"/>
<path d="M291.204 185.984C291.211 186.32 291.117 186.65 290.935 186.933C290.753 187.215 290.491 187.437 290.182 187.57C289.874 187.703 289.532 187.741 289.202 187.68C288.872 187.618 288.567 187.459 288.327 187.224C288.088 186.989 287.923 186.687 287.855 186.358C287.787 186.029 287.819 185.687 287.946 185.376C288.073 185.065 288.29 184.799 288.569 184.612C288.848 184.424 289.176 184.324 289.512 184.324C289.733 184.321 289.951 184.362 290.156 184.444C290.36 184.526 290.546 184.648 290.704 184.802C290.861 184.956 290.986 185.14 291.072 185.343C291.158 185.546 291.203 185.764 291.204 185.984Z" fill="white"/>
<path d="M288.535 186.9C288.722 187.093 288.962 187.226 289.224 187.284C289.487 187.341 289.76 187.319 290.011 187.222C290.261 187.124 290.477 186.954 290.631 186.734C290.785 186.514 290.87 186.253 290.877 185.984C290.873 185.665 290.752 185.358 290.536 185.122C289.83 185.669 289.161 186.262 288.535 186.9Z" fill="#263238"/>
<path d="M297.837 185.984C297.844 186.32 297.75 186.65 297.568 186.933C297.386 187.215 297.124 187.437 296.815 187.57C296.506 187.703 296.165 187.741 295.835 187.68C295.505 187.618 295.2 187.459 294.96 187.224C294.72 186.989 294.556 186.687 294.488 186.358C294.42 186.029 294.452 185.687 294.579 185.376C294.706 185.065 294.923 184.799 295.202 184.612C295.481 184.424 295.809 184.324 296.145 184.324C296.365 184.321 296.584 184.362 296.789 184.444C296.993 184.526 297.179 184.648 297.337 184.802C297.494 184.956 297.619 185.14 297.705 185.343C297.791 185.546 297.836 185.764 297.837 185.984Z" fill="white"/>
<path d="M295.133 186.9C295.26 187.03 295.412 187.134 295.581 187.206C295.749 187.277 295.929 187.314 296.112 187.315C296.289 187.317 296.465 187.285 296.629 187.22C296.794 187.154 296.944 187.057 297.07 186.933C297.197 186.809 297.298 186.662 297.367 186.499C297.436 186.336 297.473 186.161 297.474 185.984C297.471 185.665 297.349 185.358 297.134 185.122C296.429 185.671 295.761 186.265 295.133 186.9Z" fill="#263238"/>
<path d="M304.466 185.984C304.472 186.32 304.379 186.65 304.197 186.933C304.015 187.215 303.753 187.437 303.444 187.57C303.135 187.703 302.794 187.741 302.464 187.68C302.133 187.618 301.829 187.459 301.589 187.224C301.349 186.989 301.185 186.687 301.117 186.358C301.049 186.029 301.081 185.687 301.208 185.376C301.335 185.065 301.552 184.799 301.831 184.612C302.109 184.424 302.438 184.324 302.774 184.324C302.994 184.321 303.213 184.362 303.417 184.444C303.622 184.526 303.808 184.648 303.965 184.802C304.123 184.956 304.248 185.14 304.334 185.343C304.42 185.546 304.465 185.764 304.466 185.984Z" fill="white"/>
<path d="M301.809 186.9C301.994 187.094 302.233 187.229 302.495 187.287C302.758 187.346 303.032 187.324 303.282 187.226C303.532 187.128 303.747 186.957 303.9 186.736C304.053 186.515 304.136 186.253 304.139 185.984C304.136 185.665 304.015 185.358 303.799 185.122C303.096 185.669 302.431 186.262 301.809 186.9Z" fill="#263238"/>
<path d="M311.097 185.984C311.105 186.323 311.012 186.656 310.83 186.942C310.649 187.227 310.386 187.452 310.075 187.587C309.765 187.723 309.421 187.763 309.088 187.702C308.755 187.641 308.448 187.482 308.205 187.246C307.963 187.01 307.797 186.706 307.727 186.375C307.658 186.044 307.689 185.699 307.817 185.385C307.944 185.072 308.163 184.803 308.443 184.614C308.724 184.425 309.055 184.324 309.394 184.324C309.615 184.321 309.834 184.362 310.039 184.444C310.244 184.526 310.431 184.647 310.589 184.801C310.747 184.956 310.873 185.139 310.96 185.342C311.048 185.545 311.094 185.763 311.097 185.984Z" fill="white"/>
<path d="M308.438 186.9C308.623 187.094 308.862 187.229 309.124 187.287C309.387 187.346 309.661 187.324 309.911 187.226C310.161 187.128 310.376 186.957 310.529 186.736C310.682 186.515 310.765 186.253 310.768 185.984C310.765 185.665 310.643 185.358 310.428 185.122C309.727 185.671 309.062 186.265 308.438 186.9Z" fill="#263238"/>
<path d="M317.736 185.984C317.742 186.32 317.648 186.65 317.466 186.933C317.284 187.215 317.022 187.437 316.713 187.57C316.405 187.703 316.064 187.741 315.733 187.68C315.403 187.618 315.099 187.459 314.859 187.224C314.619 186.989 314.454 186.687 314.386 186.358C314.319 186.029 314.35 185.687 314.477 185.376C314.604 185.065 314.821 184.799 315.1 184.612C315.379 184.424 315.707 184.324 316.043 184.324C316.264 184.321 316.482 184.362 316.687 184.444C316.891 184.526 317.078 184.648 317.235 184.802C317.392 184.956 317.517 185.14 317.603 185.343C317.689 185.546 317.734 185.764 317.736 185.984Z" fill="white"/>
<path d="M315.07 186.9C315.197 187.031 315.349 187.135 315.518 187.207C315.686 187.278 315.867 187.315 316.049 187.315C316.226 187.316 316.4 187.283 316.563 187.217C316.727 187.15 316.875 187.053 317.001 186.929C317.126 186.806 317.226 186.659 317.295 186.497C317.364 186.334 317.4 186.16 317.401 185.984C317.402 185.664 317.28 185.356 317.06 185.122C316.36 185.671 315.695 186.265 315.07 186.9Z" fill="#263238"/>
<path d="M324.368 185.984C324.375 186.32 324.281 186.65 324.099 186.933C323.917 187.215 323.655 187.437 323.346 187.57C323.038 187.703 322.696 187.741 322.366 187.68C322.036 187.618 321.731 187.459 321.491 187.224C321.252 186.989 321.087 186.687 321.019 186.358C320.951 186.029 320.983 185.687 321.11 185.376C321.237 185.065 321.454 184.799 321.733 184.612C322.012 184.424 322.34 184.324 322.676 184.324C322.897 184.321 323.115 184.362 323.32 184.444C323.524 184.526 323.711 184.648 323.868 184.802C324.025 184.956 324.15 185.14 324.236 185.343C324.322 185.546 324.367 185.764 324.368 185.984Z" fill="white"/>
<path d="M321.738 186.9C321.925 187.093 322.165 187.226 322.427 187.284C322.69 187.341 322.963 187.319 323.214 187.222C323.464 187.124 323.68 186.954 323.834 186.734C323.988 186.514 324.073 186.253 324.08 185.984C324.076 185.665 323.955 185.358 323.739 185.122C323.035 185.671 322.367 186.265 321.738 186.9Z" fill="#263238"/>
<path d="M331.001 185.984C331.008 186.32 330.914 186.65 330.732 186.933C330.55 187.215 330.288 187.437 329.979 187.57C329.67 187.703 329.329 187.741 328.999 187.68C328.669 187.618 328.364 187.459 328.124 187.224C327.884 186.989 327.72 186.687 327.652 186.358C327.584 186.029 327.616 185.687 327.743 185.376C327.87 185.065 328.087 184.799 328.366 184.612C328.645 184.424 328.973 184.324 329.309 184.324C329.529 184.321 329.748 184.362 329.953 184.444C330.157 184.526 330.343 184.648 330.501 184.802C330.658 184.956 330.783 185.14 330.869 185.343C330.955 185.546 331 185.764 331.001 185.984Z" fill="white"/>
<path d="M328.324 186.9C328.452 187.03 328.604 187.134 328.772 187.206C328.94 187.277 329.121 187.314 329.303 187.315C329.48 187.317 329.656 187.285 329.821 187.22C329.985 187.154 330.135 187.057 330.262 186.933C330.388 186.809 330.489 186.662 330.558 186.499C330.628 186.336 330.664 186.161 330.666 185.984C330.662 185.665 330.541 185.358 330.325 185.122C329.621 185.671 328.953 186.265 328.324 186.9Z" fill="#263238"/>
<path d="M244.771 196.531C244.779 196.867 244.687 197.199 244.506 197.483C244.326 197.766 244.064 197.99 243.756 198.124C243.448 198.259 243.106 198.299 242.775 198.238C242.444 198.178 242.139 198.02 241.898 197.785C241.657 197.55 241.491 197.249 241.422 196.92C241.354 196.59 241.385 196.248 241.511 195.936C241.638 195.625 241.855 195.358 242.134 195.17C242.413 194.982 242.742 194.882 243.078 194.881C243.298 194.879 243.516 194.919 243.719 195C243.923 195.082 244.109 195.203 244.266 195.356C244.423 195.509 244.549 195.692 244.635 195.893C244.722 196.095 244.768 196.312 244.771 196.531Z" fill="white"/>
<path d="M242.109 197.457C242.234 197.588 242.384 197.693 242.551 197.764C242.717 197.836 242.897 197.872 243.078 197.872C243.255 197.873 243.431 197.84 243.596 197.773C243.76 197.707 243.91 197.608 244.037 197.484C244.163 197.359 244.264 197.211 244.333 197.048C244.402 196.884 244.439 196.709 244.44 196.531C244.434 196.215 244.313 195.913 244.1 195.68C243.399 196.229 242.734 196.822 242.109 197.457Z" fill="#263238"/>
<path d="M251.413 196.531C251.423 196.87 251.332 197.205 251.151 197.492C250.97 197.779 250.707 198.006 250.397 198.143C250.086 198.28 249.742 198.32 249.407 198.26C249.073 198.199 248.765 198.041 248.522 197.804C248.279 197.567 248.112 197.262 248.043 196.93C247.974 196.598 248.006 196.252 248.135 195.938C248.264 195.624 248.484 195.356 248.766 195.167C249.049 194.979 249.381 194.879 249.72 194.881C249.94 194.879 250.158 194.919 250.362 195C250.565 195.082 250.751 195.203 250.908 195.356C251.065 195.509 251.191 195.692 251.277 195.893C251.364 196.095 251.41 196.312 251.413 196.531Z" fill="white"/>
<path d="M248.738 197.457C248.924 197.652 249.164 197.788 249.428 197.845C249.691 197.903 249.966 197.881 250.216 197.781C250.467 197.682 250.682 197.51 250.834 197.287C250.986 197.064 251.068 196.801 251.069 196.531C251.068 196.214 250.946 195.91 250.728 195.68C250.028 196.229 249.363 196.822 248.738 197.457Z" fill="#263238"/>
<path d="M258.044 196.531C258.052 196.867 257.96 197.199 257.78 197.483C257.599 197.766 257.338 197.99 257.029 198.124C256.721 198.259 256.38 198.299 256.049 198.238C255.718 198.178 255.412 198.02 255.171 197.785C254.93 197.55 254.765 197.249 254.696 196.92C254.627 196.59 254.658 196.248 254.785 195.936C254.911 195.625 255.128 195.358 255.407 195.17C255.687 194.982 256.015 194.882 256.352 194.881C256.571 194.879 256.789 194.919 256.993 195C257.197 195.082 257.382 195.203 257.54 195.356C257.697 195.509 257.822 195.692 257.909 195.893C257.995 196.095 258.041 196.312 258.044 196.531Z" fill="white"/>
<path d="M255.371 197.457C255.558 197.651 255.799 197.785 256.063 197.842C256.326 197.898 256.601 197.876 256.851 197.777C257.102 197.678 257.318 197.506 257.471 197.285C257.624 197.063 257.708 196.801 257.712 196.531C257.706 196.215 257.585 195.913 257.372 195.68C256.665 196.226 255.997 196.82 255.371 197.457Z" fill="#263238"/>
<path d="M264.677 196.531C264.685 196.867 264.593 197.199 264.413 197.483C264.232 197.766 263.971 197.99 263.662 198.124C263.354 198.259 263.012 198.299 262.681 198.238C262.35 198.178 262.045 198.02 261.804 197.785C261.563 197.55 261.398 197.249 261.329 196.92C261.26 196.59 261.291 196.248 261.418 195.936C261.544 195.625 261.761 195.358 262.04 195.17C262.319 194.982 262.648 194.882 262.985 194.881C263.204 194.879 263.422 194.919 263.626 195C263.83 195.082 264.015 195.203 264.172 195.356C264.33 195.509 264.455 195.692 264.542 195.893C264.628 196.095 264.674 196.312 264.677 196.531Z" fill="white"/>
<path d="M262 197.457C262.127 197.588 262.28 197.692 262.448 197.763C262.616 197.834 262.797 197.871 262.979 197.872C263.157 197.873 263.333 197.84 263.497 197.773C263.662 197.707 263.812 197.608 263.938 197.484C264.065 197.359 264.165 197.211 264.234 197.048C264.304 196.884 264.34 196.709 264.341 196.531C264.335 196.215 264.214 195.913 264.001 195.68C263.297 196.229 262.628 196.822 262 197.457Z" fill="#263238"/>
<path d="M271.306 196.531C271.314 196.867 271.222 197.199 271.041 197.483C270.861 197.766 270.6 197.99 270.291 198.124C269.983 198.259 269.641 198.299 269.31 198.238C268.979 198.178 268.674 198.02 268.433 197.785C268.192 197.55 268.026 197.249 267.958 196.92C267.889 196.59 267.92 196.248 268.047 195.936C268.173 195.625 268.39 195.358 268.669 195.17C268.948 194.982 269.277 194.882 269.614 194.881C269.833 194.879 270.051 194.919 270.255 195C270.458 195.082 270.644 195.203 270.801 195.356C270.958 195.509 271.084 195.692 271.17 195.893C271.257 196.095 271.303 196.312 271.306 196.531Z" fill="white"/>
<path d="M268.645 197.457C268.769 197.588 268.919 197.693 269.086 197.764C269.252 197.836 269.432 197.872 269.613 197.872C269.791 197.873 269.967 197.84 270.131 197.773C270.296 197.707 270.445 197.608 270.572 197.484C270.698 197.359 270.799 197.211 270.868 197.048C270.938 196.884 270.974 196.709 270.975 196.531C270.969 196.215 270.848 195.913 270.635 195.68C269.932 196.226 269.267 196.82 268.645 197.457Z" fill="#263238"/>
<path d="M277.944 196.531C277.954 196.87 277.864 197.204 277.683 197.491C277.503 197.778 277.241 198.005 276.93 198.142C276.62 198.279 276.276 198.32 275.943 198.261C275.609 198.201 275.301 198.043 275.057 197.807C274.814 197.571 274.646 197.268 274.576 196.937C274.506 196.605 274.536 196.26 274.663 195.946C274.791 195.631 275.009 195.362 275.29 195.173C275.571 194.983 275.902 194.882 276.241 194.881C276.685 194.876 277.114 195.046 277.433 195.355C277.752 195.664 277.936 196.087 277.944 196.531Z" fill="white"/>
<path d="M275.274 197.457C275.398 197.588 275.549 197.693 275.715 197.764C275.882 197.836 276.061 197.872 276.242 197.872C276.42 197.873 276.596 197.84 276.76 197.773C276.925 197.707 277.075 197.608 277.201 197.484C277.328 197.359 277.428 197.211 277.497 197.047C277.567 196.884 277.603 196.708 277.604 196.531C277.598 196.215 277.477 195.913 277.264 195.68C276.563 196.229 275.898 196.822 275.274 197.457Z" fill="#263238"/>
<path d="M284.573 196.531C284.583 196.87 284.492 197.205 284.311 197.492C284.13 197.779 283.868 198.006 283.557 198.143C283.246 198.28 282.902 198.32 282.568 198.26C282.234 198.199 281.925 198.041 281.682 197.804C281.439 197.567 281.272 197.262 281.203 196.93C281.135 196.598 281.167 196.252 281.295 195.938C281.424 195.624 281.644 195.356 281.926 195.167C282.209 194.979 282.541 194.879 282.881 194.881C283.1 194.879 283.318 194.919 283.522 195C283.725 195.082 283.911 195.203 284.068 195.356C284.226 195.509 284.351 195.692 284.438 195.893C284.524 196.095 284.57 196.312 284.573 196.531Z" fill="white"/>
<path d="M281.906 197.457C282.092 197.652 282.332 197.788 282.596 197.845C282.859 197.903 283.134 197.881 283.384 197.781C283.635 197.682 283.85 197.509 284.002 197.287C284.154 197.064 284.236 196.801 284.237 196.531C284.236 196.214 284.114 195.91 283.896 195.68C283.195 196.229 282.531 196.822 281.906 197.457Z" fill="#263238"/>
<path d="M291.204 196.531C291.213 196.867 291.121 197.199 290.94 197.483C290.759 197.766 290.498 197.99 290.19 198.124C289.881 198.259 289.54 198.299 289.209 198.238C288.878 198.178 288.572 198.02 288.331 197.785C288.09 197.55 287.925 197.249 287.856 196.92C287.787 196.59 287.818 196.248 287.945 195.936C288.072 195.625 288.288 195.358 288.568 195.17C288.847 194.982 289.175 194.882 289.512 194.881C289.731 194.879 289.949 194.919 290.153 195C290.357 195.082 290.543 195.203 290.7 195.356C290.857 195.509 290.982 195.692 291.069 195.893C291.155 196.095 291.201 196.312 291.204 196.531Z" fill="white"/>
<path d="M288.535 197.457C288.723 197.651 288.963 197.785 289.227 197.842C289.49 197.898 289.765 197.876 290.015 197.777C290.266 197.678 290.482 197.506 290.635 197.285C290.788 197.063 290.872 196.801 290.877 196.531C290.87 196.215 290.749 195.913 290.536 195.68C289.83 196.226 289.161 196.82 288.535 197.457Z" fill="#263238"/>
<path d="M297.837 196.531C297.845 196.867 297.753 197.199 297.573 197.483C297.392 197.766 297.131 197.99 296.822 198.124C296.514 198.259 296.173 198.299 295.842 198.238C295.511 198.178 295.205 198.02 294.964 197.785C294.723 197.55 294.558 197.249 294.489 196.92C294.42 196.59 294.451 196.248 294.578 195.936C294.704 195.625 294.921 195.358 295.2 195.17C295.48 194.982 295.808 194.882 296.145 194.881C296.364 194.879 296.582 194.919 296.786 195C296.99 195.082 297.175 195.203 297.333 195.356C297.49 195.509 297.615 195.692 297.702 195.893C297.788 196.095 297.834 196.312 297.837 196.531Z" fill="white"/>
<path d="M295.133 197.457C295.26 197.588 295.412 197.692 295.581 197.763C295.749 197.834 295.929 197.871 296.112 197.872C296.289 197.873 296.465 197.84 296.63 197.773C296.795 197.707 296.944 197.608 297.071 197.484C297.197 197.359 297.298 197.211 297.367 197.048C297.436 196.884 297.473 196.709 297.474 196.531C297.468 196.215 297.347 195.913 297.134 195.68C296.429 196.229 295.761 196.822 295.133 197.457Z" fill="#263238"/>
<path d="M304.466 196.531C304.474 196.867 304.382 197.199 304.202 197.483C304.021 197.766 303.76 197.99 303.451 198.124C303.143 198.259 302.801 198.299 302.47 198.238C302.139 198.178 301.834 198.02 301.593 197.785C301.352 197.55 301.187 197.249 301.118 196.92C301.049 196.59 301.08 196.248 301.207 195.936C301.333 195.625 301.55 195.358 301.829 195.17C302.108 194.982 302.437 194.882 302.774 194.881C302.993 194.879 303.211 194.919 303.415 195C303.619 195.082 303.804 195.203 303.961 195.356C304.119 195.509 304.244 195.692 304.331 195.893C304.417 196.095 304.463 196.312 304.466 196.531Z" fill="white"/>
<path d="M301.809 197.457C301.933 197.588 302.083 197.693 302.25 197.764C302.417 197.836 302.596 197.872 302.777 197.872C302.955 197.873 303.131 197.84 303.295 197.773C303.46 197.707 303.609 197.608 303.736 197.484C303.862 197.359 303.963 197.211 304.032 197.048C304.102 196.884 304.138 196.709 304.139 196.531C304.133 196.215 304.012 195.913 303.799 195.68C303.096 196.226 302.431 196.82 301.809 197.457Z" fill="#263238"/>
<path d="M311.096 196.531C311.107 196.87 311.016 197.204 310.836 197.491C310.655 197.778 310.393 198.005 310.083 198.142C309.773 198.279 309.429 198.32 309.095 198.261C308.761 198.201 308.453 198.043 308.209 197.807C307.966 197.571 307.798 197.268 307.728 196.937C307.658 196.605 307.689 196.26 307.816 195.946C307.943 195.631 308.161 195.362 308.442 195.173C308.723 194.983 309.054 194.882 309.393 194.881C309.838 194.876 310.266 195.046 310.585 195.355C310.904 195.664 311.088 196.087 311.096 196.531Z" fill="white"/>
<path d="M308.438 197.457C308.562 197.588 308.712 197.693 308.879 197.764C309.045 197.836 309.225 197.872 309.406 197.872C309.583 197.873 309.76 197.84 309.924 197.773C310.089 197.707 310.238 197.608 310.365 197.484C310.491 197.359 310.592 197.211 310.661 197.048C310.731 196.884 310.767 196.709 310.768 196.531C310.762 196.215 310.641 195.913 310.428 195.68C309.727 196.229 309.062 196.822 308.438 197.457Z" fill="#263238"/>
<path d="M317.735 196.531C317.744 196.867 317.652 197.199 317.471 197.483C317.29 197.766 317.029 197.99 316.721 198.124C316.412 198.259 316.071 198.299 315.74 198.238C315.409 198.178 315.103 198.02 314.863 197.785C314.622 197.551 314.456 197.249 314.387 196.92C314.319 196.59 314.349 196.248 314.476 195.936C314.603 195.625 314.82 195.358 315.099 195.17C315.378 194.982 315.707 194.882 316.043 194.881C316.263 194.879 316.48 194.919 316.684 195C316.888 195.082 317.074 195.203 317.231 195.356C317.388 195.509 317.514 195.692 317.6 195.893C317.687 196.095 317.733 196.312 317.735 196.531Z" fill="white"/>
<path d="M315.07 197.457C315.256 197.652 315.496 197.788 315.76 197.845C316.023 197.903 316.298 197.881 316.548 197.781C316.799 197.682 317.014 197.51 317.166 197.287C317.318 197.064 317.4 196.801 317.401 196.531C317.4 196.214 317.278 195.91 317.06 195.68C316.36 196.229 315.695 196.822 315.07 197.457Z" fill="#263238"/>
<path d="M324.368 196.531C324.377 196.867 324.285 197.199 324.104 197.483C323.923 197.766 323.662 197.99 323.354 198.124C323.045 198.259 322.704 198.299 322.373 198.238C322.042 198.178 321.736 198.02 321.495 197.785C321.254 197.55 321.089 197.249 321.02 196.92C320.951 196.59 320.982 196.248 321.109 195.936C321.236 195.625 321.452 195.358 321.732 195.17C322.011 194.982 322.34 194.882 322.676 194.881C322.895 194.879 323.113 194.919 323.317 195C323.521 195.082 323.707 195.203 323.864 195.356C324.021 195.509 324.146 195.692 324.233 195.893C324.319 196.095 324.365 196.312 324.368 196.531Z" fill="white"/>
<path d="M321.738 197.457C321.926 197.651 322.166 197.785 322.43 197.842C322.693 197.898 322.968 197.876 323.219 197.777C323.469 197.678 323.685 197.506 323.838 197.285C323.991 197.063 324.076 196.801 324.08 196.531C324.074 196.215 323.952 195.913 323.739 195.68C323.035 196.229 322.367 196.822 321.738 197.457Z" fill="#263238"/>
<path d="M331.001 196.531C331.01 196.867 330.917 197.199 330.737 197.483C330.556 197.766 330.295 197.99 329.986 198.124C329.678 198.259 329.337 198.299 329.006 198.238C328.675 198.178 328.369 198.02 328.128 197.785C327.887 197.55 327.722 197.249 327.653 196.92C327.584 196.59 327.615 196.248 327.742 195.936C327.869 195.625 328.085 195.358 328.364 195.17C328.644 194.982 328.972 194.882 329.309 194.881C329.528 194.879 329.746 194.919 329.95 195C330.154 195.082 330.339 195.203 330.497 195.356C330.654 195.509 330.779 195.692 330.866 195.893C330.952 196.095 330.998 196.312 331.001 196.531Z" fill="white"/>
<path d="M328.324 197.457C328.452 197.588 328.604 197.692 328.772 197.763C328.94 197.834 329.121 197.871 329.303 197.872C329.481 197.873 329.657 197.84 329.821 197.773C329.986 197.707 330.136 197.608 330.262 197.484C330.389 197.359 330.489 197.211 330.559 197.048C330.628 196.884 330.664 196.709 330.666 196.531C330.659 196.215 330.538 195.913 330.325 195.68C329.621 196.229 328.953 196.822 328.324 197.457Z" fill="#263238"/>
<path d="M232.773 177.8H181.464C180.35 177.8 179.28 177.363 178.484 176.583C177.688 175.803 177.229 174.742 177.207 173.628V149.959C177.207 133.814 190.627 120.67 207.124 120.67C223.62 120.67 237.051 133.814 237.051 149.959V173.628C237.029 174.746 236.567 175.81 235.767 176.591C234.966 177.371 233.891 177.806 232.773 177.8ZM185.721 169.499H228.505V149.959C228.505 144.285 226.251 138.844 222.239 134.832C218.228 130.82 212.787 128.567 207.113 128.567C201.44 128.567 195.998 130.82 191.987 134.832C187.975 138.844 185.721 144.285 185.721 149.959V169.499Z" fill="white" stroke="#263238" stroke-width="0.373549" stroke-linecap="round" stroke-linejoin="round"/>
<path d="M239.352 166.391H174.027V220.435H239.352V166.391Z" fill="#92E3A9" stroke="#263238" stroke-width="0.373549" stroke-linecap="round" stroke-linejoin="round"/>
<path d="M213.495 188.836C213.424 186.997 212.643 185.257 211.317 183.981C209.99 182.704 208.221 181.992 206.38 181.992C204.54 181.992 202.77 182.704 201.444 183.981C200.117 185.257 199.337 186.997 199.266 188.836C199.271 190.101 199.622 191.341 200.281 192.421C200.939 193.501 201.88 194.381 203.001 194.966L201.809 207.238H210.951L209.759 194.966C210.881 194.381 211.822 193.501 212.48 192.421C213.138 191.341 213.489 190.101 213.495 188.836Z" fill="#263238" stroke="#263238" stroke-width="0.373549" stroke-linecap="round" stroke-linejoin="round"/>
<path d="M58.8202 406.831C82.7129 406.831 102.082 402.549 102.082 397.268C102.082 391.986 82.7129 387.705 58.8202 387.705C34.9275 387.705 15.5586 391.986 15.5586 397.268C15.5586 402.549 34.9275 406.831 58.8202 406.831Z" fill="#92E3A9"/>
<path opacity="0.5" d="M58.8202 406.831C82.7129 406.831 102.082 402.549 102.082 397.268C102.082 391.986 82.7129 387.705 58.8202 387.705C34.9275 387.705 15.5586 391.986 15.5586 397.268C15.5586 402.549 34.9275 406.831 58.8202 406.831Z" fill="white"/>
<path d="M36.3397 387.486C36.3397 387.486 25.8477 393.388 25.8477 396.23C25.8477 399.071 32.3232 397.323 36.5674 395.319C40.8116 393.315 44.1541 391.822 44.1541 387.887C44.1541 383.952 36.3397 387.486 36.3397 387.486Z" fill="#92E3A9" stroke="#263238" stroke-width="0.319672" stroke-miterlimit="10"/>
<path d="M86.5957 387.486C86.5957 387.486 97.0877 393.388 97.0877 396.23C97.0877 399.071 90.6213 397.323 86.3771 395.319C82.1329 393.315 78.7812 391.822 78.7812 387.887C78.7812 383.952 86.5957 387.486 86.5957 387.486Z" fill="#92E3A9" stroke="#263238" stroke-width="0.319672" stroke-miterlimit="10"/>
<path d="M40.5878 290.881L36.125 388.616C36.7415 389.125 37.4549 389.503 38.222 389.729C38.989 389.954 39.7939 390.022 40.5878 389.927C41.9756 389.722 43.243 389.023 44.158 387.96L59.3405 308.185H62.4645L78.5396 389.49C79.5003 390.022 80.5675 390.333 81.6635 390.401C83.23 390.401 85.68 388.433 85.68 388.433L80.5433 290.981L40.5878 290.881Z" fill="#263238" stroke="#263238" stroke-width="0.319672" stroke-miterlimit="10"/>
<path d="M56.2138 231.653L35.8945 239.951L41.2499 287.165H80.1033L87.2438 238.202L65.1394 231.216L56.2138 231.653Z" fill="#92E3A9" stroke="#263238" stroke-width="0.319672" stroke-miterlimit="10"/>
<path d="M80.5505 286.29H40.5859V290.881H80.5505V286.29Z" fill="#263238" stroke="#263238" stroke-width="0.319672" stroke-miterlimit="10"/>
<path d="M39.9156 290.006L32.9937 292.848C32.8802 294.826 33.0303 296.811 33.44 298.75C34.114 301.373 35.0065 307.056 35.6805 308.149C36.3545 309.242 39.697 311.428 40.1433 310.772C40.5896 310.116 42.821 290.881 42.821 290.881L39.9156 290.006Z" fill="#263238" stroke="#263238" stroke-width="0.319672" stroke-miterlimit="10"/>
<path d="M55.5312 221.48V229.449L61.342 235.479L67.2711 229.331V221.362L55.5312 221.48Z" fill="white" stroke="#263238" stroke-width="0.319672" stroke-miterlimit="10"/>
<path d="M51.4592 214.085C51.4592 214.085 50.4118 211.689 49.7105 213.174C49.0092 214.658 49.8289 216.926 50.8763 217.837C51.6498 218.396 52.6071 218.64 53.554 218.52L52.9711 215.105L51.4592 214.085Z" fill="white" stroke="#263238" stroke-width="0.319672" stroke-miterlimit="10"/>
<path d="M70.406 214.085C70.406 214.085 71.4534 211.689 72.1547 213.174C72.8559 214.658 72.0363 216.926 70.9889 217.837C70.2185 218.396 69.2643 218.64 68.3203 218.52L68.8941 215.105L70.406 214.085Z" fill="white" stroke="#263238" stroke-width="0.319672" stroke-miterlimit="10"/>
<path d="M53.4364 198.265C53.4364 198.265 48.5547 200.314 48.5547 203.729C48.5547 207.145 49.2469 211.015 50.3762 212.5C51.5056 213.984 52.471 215.004 52.471 215.004L52.6987 210.105L56.0685 204.303C56.0685 204.303 61.6516 207.828 64.4385 207.828C65.9964 207.841 67.5529 207.729 69.0926 207.491L70.1399 213.292L71.6518 209.084V205.214C71.6518 205.214 74.4388 202.591 73.8559 200.888C73.273 199.184 63.8374 193.829 58.0449 195.195C52.2524 196.561 53.4364 198.265 53.4364 198.265Z" fill="#263238" stroke="#263238" stroke-width="0.319672" stroke-miterlimit="10"/>
<path d="M51.0781 209.758C51.0781 209.758 52.4807 218.292 53.6374 220.569C55.1889 223.101 57.0865 225.403 59.2751 227.409C60.0856 227.974 63.1094 227.518 64.2752 227.518C65.441 227.518 68.829 220.688 69.3937 219.44C69.9584 218.192 70.3045 207.49 70.3045 207.49L69.2935 205.551C69.2935 205.551 64.2934 206.807 60.3407 205.214C58.195 204.445 56.2758 203.152 54.7576 201.452C54.7576 201.452 54.4115 205.323 53.0181 207.6C51.6246 209.877 51.0781 209.758 51.0781 209.758Z" fill="white" stroke="#263238" stroke-width="0.319672" stroke-miterlimit="10"/>
<path d="M60.0574 210.669C58.651 209.935 57.0902 209.544 55.5035 209.531C54.1417 209.477 52.7866 209.749 51.5508 210.323C51.5508 210.323 51.5508 214.194 52.8259 215.679C54.1009 217.163 57.826 216.699 58.8734 215.451C59.9208 214.203 60.0574 210.669 60.0574 210.669Z" fill="#263238" stroke="#263238" stroke-width="0.319672" stroke-miterlimit="10"/>
<path d="M61.6914 210.669C63.0978 209.935 64.6586 209.544 66.2453 209.531C67.6071 209.477 68.9622 209.749 70.198 210.323C70.198 210.323 70.198 214.194 68.9138 215.679C67.6296 217.163 63.9228 216.699 62.8754 215.451C61.828 214.203 61.6914 210.669 61.6914 210.669Z" fill="#263238" stroke="#263238" stroke-width="0.319672" stroke-miterlimit="10"/>
<path d="M60.0586 210.669H61.6889" stroke="#263238" stroke-width="0.319672" stroke-miterlimit="10"/>
<path d="M58.4454 238.42L60.8954 242.355L56.8789 276.236L61.7971 283.449L66.0321 275.58L62.6896 241.918L65.5859 237.337L61.3417 235.479L58.4454 238.42Z" fill="#263238" stroke="#263238" stroke-width="0.319672" stroke-miterlimit="10"/>
<path d="M61.3447 235.478L58.0842 241.061L52.2734 233.32L55.534 229.449L61.3447 235.478Z" fill="#92E3A9" stroke="#263238" stroke-width="0.319672" stroke-miterlimit="10"/>
<path d="M61.3401 235.479L65.2928 241.626L70.0562 232.865L67.2692 229.331L61.3401 235.479Z" fill="#92E3A9" stroke="#263238" stroke-width="0.319672" stroke-miterlimit="10"/>
<path d="M35.8953 239.951L11.1133 272.52L32.99 288.258L36.123 282.793L29.4198 269.897L38.573 261.59L35.8953 239.951Z" fill="#92E3A9" stroke="#263238" stroke-width="0.319672" stroke-miterlimit="10"/>
<path d="M36.1227 282.793L43.4817 282.574L49.0647 287.602C49.0558 288.245 48.8203 288.864 48.3998 289.351C47.7259 290.006 45.9408 289.569 45.9408 289.569C45.9408 289.569 44.6019 292.848 42.1429 292.848C39.6838 292.848 33.0352 288.294 33.0352 288.294L36.1227 282.793Z" fill="white" stroke="#263238" stroke-width="0.319672" stroke-miterlimit="10"/>
<path d="M34.3332 279.077L30.5353 285.853" stroke="#263238" stroke-width="0.319672" stroke-linecap="round" stroke-linejoin="round"/>
<path d="M29.4236 269.897L26.5273 262.465" stroke="#263238" stroke-width="0.319672" stroke-linecap="round" stroke-linejoin="round"/>
<path d="M87.2432 238.202L112.244 272.52L90.3672 288.258L87.2432 282.793L93.9374 269.897L83.4453 261.372L87.2432 238.202Z" fill="#92E3A9" stroke="#263238" stroke-width="0.319672" stroke-miterlimit="10"/>
<path d="M87.2441 282.793L79.876 282.574L74.293 287.602C74.3044 288.246 74.5432 288.865 74.9669 289.351C75.6318 290.006 77.4169 289.569 77.4169 289.569C77.4169 289.569 78.7557 292.848 81.2148 292.848C83.6739 292.848 90.3225 288.294 90.3225 288.294L87.2441 282.793Z" fill="white" stroke="#263238" stroke-width="0.319672" stroke-miterlimit="10"/>
<path d="M89.0312 279.077L92.8292 285.853" stroke="#263238" stroke-width="0.319672" stroke-linecap="round" stroke-linejoin="round"/>
<path d="M93.9374 269.897L96.8428 262.465" stroke="#263238" stroke-width="0.319672" stroke-linecap="round" stroke-linejoin="round"/>
<path d="M53.4545 248.694H39.7656V253.357L46.6146 255.98L53.4545 253.066V248.694Z" fill="#92E3A9" stroke="#263238" stroke-width="0.319672" stroke-miterlimit="10"/>
<path d="M80.8412 248.694H67.1523V253.357L74.0013 255.98L80.8412 253.066V248.694Z" fill="#92E3A9" stroke="#263238" stroke-width="0.319672" stroke-miterlimit="10"/>
</svg>
