<svg width="133" height="98" viewBox="0 0 133 98" fill="none" xmlns="http://www.w3.org/2000/svg">
<path d="M132.128 86.0459H0.871582V86.1115H132.128V86.0459Z" fill="#EBEBEB"/>
<path d="M118.977 90.2698H110.282V90.3354H118.977V90.2698Z" fill="#EBEBEB"/>
<path d="M72.5947 89.4482H69.2109V89.5139H72.5947V89.4482Z" fill="#EBEBEB"/>
<path d="M92.6627 89.7263H85.5381V89.7919H92.6627V89.7263Z" fill="#EBEBEB"/>
<path d="M110.02 87.8337H95.29V87.8994H110.02V87.8337Z" fill="#EBEBEB"/>
<path d="M21.6066 90.8708H14.6421V90.9365H21.6066V90.8708Z" fill="#EBEBEB"/>
<path d="M29.9826 90.8708H23.9448V90.9365H29.9826V90.8708Z" fill="#EBEBEB"/>
<path d="M51.2237 89.4165H35.2603V89.4821H51.2237V89.4165Z" fill="#EBEBEB"/>
<path d="M63.0864 74.3379H12.3977C12.0006 74.3372 11.62 74.1789 11.3395 73.8979C11.0589 73.6169 10.9014 73.236 10.9014 72.8389V1.58495C10.9048 1.19013 11.0639 0.812626 11.3441 0.534425C11.6242 0.256224 12.0029 0.0997974 12.3977 0.0991211H63.0864C63.4839 0.0991211 63.8652 0.257046 64.1463 0.538154C64.4274 0.819261 64.5853 1.20053 64.5853 1.59807V72.8389C64.5853 73.2365 64.4274 73.6177 64.1463 73.8988C63.8652 74.1799 63.4839 74.3379 63.0864 74.3379ZM12.3977 0.151624C12.018 0.152319 11.6541 0.303636 11.3859 0.572361C11.1176 0.841085 10.967 1.20526 10.967 1.58495V72.8389C10.967 73.2186 11.1176 73.5828 11.3859 73.8515C11.6541 74.1202 12.018 74.2715 12.3977 74.2722H63.0864C63.4663 74.2715 63.8305 74.1203 64.0991 73.8517C64.3678 73.583 64.519 73.2188 64.5197 72.8389V1.58495C64.519 1.20502 64.3678 0.84085 64.0991 0.572201C63.8305 0.303551 63.4663 0.152318 63.0864 0.151624H12.3977Z" fill="#EBEBEB"/>
<path d="M119.871 74.3379H69.1796C68.7823 74.3372 68.4014 74.179 68.1205 73.8981C67.8395 73.6171 67.6814 73.2363 67.6807 72.8389V1.58495C67.6848 1.18989 67.8445 0.81239 68.1251 0.534261C68.4057 0.256133 68.7845 0.0997901 69.1796 0.0991211H119.871C120.265 0.100487 120.643 0.257219 120.923 0.535347C121.202 0.813474 121.361 1.19059 121.365 1.58495V72.8389C121.365 73.2356 121.207 73.616 120.927 73.897C120.647 74.1779 120.268 74.3365 119.871 74.3379ZM69.1796 0.151624C68.7997 0.152318 68.4355 0.303551 68.1669 0.572201C67.8982 0.84085 67.747 1.20502 67.7463 1.58495V72.8389C67.747 73.2188 67.8982 73.583 68.1669 73.8517C68.4355 74.1203 68.7997 74.2715 69.1796 74.2722H119.871C120.251 74.2715 120.615 74.1203 120.884 73.8517C121.152 73.583 121.304 73.2188 121.304 72.8389V1.58495C121.304 1.20502 121.152 0.84085 120.884 0.572201C120.615 0.303551 120.251 0.152318 119.871 0.151624H69.1796Z" fill="#EBEBEB"/>
<path d="M20.6146 38.9458L56.7837 38.9458L56.7837 5.56199L20.6146 5.56199L20.6146 38.9458Z" fill="#E6E6E6"/>
<path d="M19.5095 38.9458L56.2666 38.9458L56.2666 5.56199L19.5095 5.56199L19.5095 38.9458Z" fill="#F0F0F0"/>
<path d="M20.6146 40.4185L56.7837 40.4185V38.9458L20.6146 38.9458V40.4185Z" fill="#E6E6E6"/>
<path d="M17.6706 40.4185L54.4277 40.4185V38.9458L17.6706 38.9458V40.4185Z" fill="#F0F0F0"/>
<path d="M54.7222 37.4022V7.10815L21.0548 7.10815V37.4022H54.7222Z" fill="#FAFAFA"/>
<path d="M47.1314 37.4022L42.8314 7.10815H36.1216L40.4216 37.4022H47.1314Z" fill="white"/>
<path d="M54.0082 35.864C54.0375 35.864 54.0655 35.8524 54.0862 35.8317C54.1069 35.811 54.1185 35.783 54.1185 35.7537V8.11369C54.121 8.0976 54.1199 8.08117 54.1155 8.06552C54.111 8.04987 54.1032 8.03538 54.0926 8.02302C54.082 8.01067 54.0689 8.00076 54.0541 7.99396C54.0393 7.98716 54.0232 7.98364 54.0069 7.98364C53.9906 7.98364 53.9746 7.98716 53.9598 7.99396C53.945 8.00076 53.9318 8.01067 53.9212 8.02302C53.9107 8.03538 53.9029 8.04987 53.8984 8.06552C53.8939 8.08117 53.8929 8.0976 53.8954 8.11369V35.7537C53.8954 35.7684 53.8983 35.783 53.904 35.7965C53.9097 35.8101 53.9181 35.8223 53.9286 35.8326C53.9391 35.8429 53.9516 35.851 53.9652 35.8563C53.9789 35.8617 53.9935 35.8643 54.0082 35.864Z" fill="#F0F0F0"/>
<path d="M38.9792 37.4022L34.6793 7.10815H32.062L36.362 37.4022H38.9792Z" fill="white"/>
<path d="M21.2529 37.3995L21.2529 7.10547H21.056L21.056 37.3995H21.2529Z" fill="#E6E6E6"/>
<path opacity="0.6" d="M19.145 9.43675H55.3141L55.4585 7.70679H19.2894L19.145 9.43675Z" fill="#EBEBEB"/>
<path opacity="0.6" d="M19.145 10.4107H55.3141L55.4585 8.68335H19.2894L19.145 10.4107Z" fill="#EBEBEB"/>
<path opacity="0.6" d="M19.145 11.3872H55.3141L55.4585 9.65723H19.2894L19.145 11.3872Z" fill="#EBEBEB"/>
<path opacity="0.6" d="M19.145 12.3638H55.3141L55.4585 10.6338H19.2894L19.145 12.3638Z" fill="#EBEBEB"/>
<path opacity="0.6" d="M19.145 13.3376H55.3141L55.4585 11.6077H19.2894L19.145 13.3376Z" fill="#EBEBEB"/>
<path opacity="0.6" d="M19.145 14.3142H55.3141L55.4585 12.5842H19.2894L19.145 14.3142Z" fill="#EBEBEB"/>
<path d="M106.479 84.8542H114.103V42.5266H106.479V84.8542Z" fill="#F0F0F0"/>
<path d="M75.0463 86.0432H112.638V84.8514H75.0463V86.0432Z" fill="#F0F0F0"/>
<path d="M106.48 42.5239H73.5845V84.8516H106.48V42.5239Z" fill="#F5F5F5"/>
<path d="M103.484 58.8103H76.582V68.5679H103.484V58.8103Z" fill="#F0F0F0"/>
<path d="M103.484 70.7441H76.582V80.5018H103.484V70.7441Z" fill="#F0F0F0"/>
<path d="M86.9753 60.1174H93.0892C93.4793 60.1174 93.7954 59.8013 93.7954 59.4113V59.1881C93.7954 58.7981 93.4793 58.482 93.0892 58.482H86.9753C86.5853 58.482 86.2692 58.7981 86.2692 59.1881V59.4113C86.2692 59.8013 86.5853 60.1174 86.9753 60.1174Z" fill="#F5F5F5"/>
<path d="M103.484 46.8765H76.582V56.6341H103.484V46.8765Z" fill="#F0F0F0"/>
<path d="M86.9753 48.1863H93.0892C93.4793 48.1863 93.7954 47.8701 93.7954 47.4801V47.257C93.7954 46.867 93.4793 46.5508 93.0892 46.5508H86.9753C86.5853 46.5508 86.2692 46.867 86.2692 47.257V47.4801C86.2692 47.8701 86.5853 48.1863 86.9753 48.1863Z" fill="#F5F5F5"/>
<path d="M86.9753 72.0515H93.0892C93.4793 72.0515 93.7954 71.7354 93.7954 71.3454V71.1222C93.7954 70.7322 93.4793 70.4161 93.0892 70.4161H86.9753C86.5853 70.4161 86.2692 70.7322 86.2692 71.1222V71.3454C86.2692 71.7354 86.5853 72.0515 86.9753 72.0515Z" fill="#F5F5F5"/>
<path d="M72.57 42.5239L106.481 42.5239V40.9331L72.57 40.9331V42.5239Z" fill="#F0F0F0"/>
<path d="M115.171 40.9358H106.481V42.5266H115.171V40.9358Z" fill="#E6E6E6"/>
<path d="M33.7522 84.7019H37.1675L37.1675 45.8368H33.7522L33.7522 84.7019Z" fill="#F0F0F0"/>
<path d="M17.3506 86.0408H36.2646V84.6993H17.3506V86.0408Z" fill="#F0F0F0"/>
<path d="M33.7524 45.8342H16.4502V84.6993H33.7524V45.8342Z" fill="#F5F5F5"/>
<path d="M31.9057 66.074H18.2944V73.0148H31.9057V66.074Z" fill="#F0F0F0"/>
<path d="M31.9057 75.157H18.2944V82.0978H31.9057V75.157Z" fill="#F0F0F0"/>
<path d="M23.1818 70.0195H27.0276C27.2451 70.0195 27.4214 69.8432 27.4214 69.6258V69.4604C27.4214 69.2429 27.2451 69.0666 27.0276 69.0666H23.1818C22.9643 69.0666 22.788 69.2429 22.788 69.4604V69.6258C22.788 69.8432 22.9643 70.0195 23.1818 70.0195Z" fill="#F5F5F5"/>
<path d="M23.1818 79.1025H27.0276C27.2451 79.1025 27.4214 78.9262 27.4214 78.7088V78.5434C27.4214 78.3259 27.2451 78.1496 27.0276 78.1496H23.1818C22.9643 78.1496 22.788 78.3259 22.788 78.5434V78.7088C22.788 78.9262 22.9643 79.1025 23.1818 79.1025Z" fill="#F5F5F5"/>
<path d="M31.9057 47.979H18.2944V54.9199H31.9057V47.979Z" fill="#F0F0F0"/>
<path d="M31.9057 56.991H18.2944V63.9318H31.9057V56.991Z" fill="#F0F0F0"/>
<path d="M23.1818 51.9246H27.0276C27.2451 51.9246 27.4214 51.7483 27.4214 51.5308V51.3654C27.4214 51.1479 27.2451 50.9716 27.0276 50.9716H23.1818C22.9643 50.9716 22.788 51.1479 22.788 51.3654V51.5308C22.788 51.7483 22.9643 51.9246 23.1818 51.9246Z" fill="#F5F5F5"/>
<path d="M23.1818 60.9365H27.0276C27.2451 60.9365 27.4214 60.7602 27.4214 60.5428V60.3774C27.4214 60.1599 27.2451 59.9836 27.0276 59.9836H23.1818C22.9643 59.9836 22.788 60.1599 22.788 60.3774V60.5428C22.788 60.7602 22.9643 60.9365 23.1818 60.9365Z" fill="#F5F5F5"/>
<path d="M52.6842 84.7019H58.3335L58.3335 45.8368H52.6842L52.6842 84.7019Z" fill="#F0F0F0"/>
<path d="M36.2865 86.0408H57.2876V84.6993H36.2865V86.0408Z" fill="#F0F0F0"/>
<path d="M52.686 45.8342H35.3838V84.6993H52.686V45.8342Z" fill="#F5F5F5"/>
<path d="M50.8423 66.074H37.231V73.0148H50.8423V66.074Z" fill="#F0F0F0"/>
<path d="M50.8423 75.157H37.231V82.0978H50.8423V75.157Z" fill="#F0F0F0"/>
<path d="M42.11 70.0195H45.9558C46.1733 70.0195 46.3496 69.8432 46.3496 69.6258V69.4604C46.3496 69.2429 46.1733 69.0666 45.9558 69.0666H42.11C41.8925 69.0666 41.7163 69.2429 41.7163 69.4604V69.6258C41.7163 69.8432 41.8925 70.0195 42.11 70.0195Z" fill="#F5F5F5"/>
<path d="M42.11 79.1025H45.9558C46.1733 79.1025 46.3496 78.9262 46.3496 78.7088V78.5434C46.3496 78.3259 46.1733 78.1496 45.9558 78.1496H42.11C41.8925 78.1496 41.7163 78.3259 41.7163 78.5434V78.7088C41.7163 78.9262 41.8925 79.1025 42.11 79.1025Z" fill="#F5F5F5"/>
<path d="M50.8423 47.979H37.231V54.9199H50.8423V47.979Z" fill="#F0F0F0"/>
<path d="M50.8423 56.991H37.231V63.9318H50.8423V56.991Z" fill="#F0F0F0"/>
<path d="M42.11 51.9246H45.9558C46.1733 51.9246 46.3496 51.7483 46.3496 51.5308V51.3654C46.3496 51.1479 46.1733 50.9716 45.9558 50.9716H42.11C41.8925 50.9716 41.7163 51.1479 41.7163 51.3654V51.5308C41.7163 51.7483 41.8925 51.9246 42.11 51.9246Z" fill="#F5F5F5"/>
<path d="M42.11 60.9365H45.9558C46.1733 60.9365 46.3496 60.7602 46.3496 60.5428V60.3774C46.3496 60.1599 46.1733 59.9836 45.9558 59.9836H42.11C41.8925 59.9836 41.7163 60.1599 41.7163 60.3774V60.5428C41.7163 60.7602 41.8925 60.9365 42.11 60.9365Z" fill="#F5F5F5"/>
<path d="M101.789 26.4318H107.559L106.879 12.55H101.789V26.4318Z" fill="#F5F5F5"/>
<path d="M110.818 27.1826L112.062 31.3067H110.818L103.189 27.1826H110.818Z" fill="#F5F5F5"/>
<path d="M112.062 27.1826V31.3067L104.434 27.1826H112.062Z" fill="#E6E6E6"/>
<path d="M80.9021 27.1826L82.1464 31.3067H80.9021L73.2734 27.1826H80.9021Z" fill="#F5F5F5"/>
<path d="M82.1462 27.1826V31.3067L74.5176 27.1826H82.1462Z" fill="#E6E6E6"/>
<path d="M114.273 26.4529H107.111V27.3428H114.273V26.4529Z" fill="#E6E6E6"/>
<path d="M71.5067 27.3428L107.111 27.3428V26.4529L71.5067 26.4529V27.3428Z" fill="#F5F5F5"/>
<path d="M93.3164 26.4317H105.699L107.232 9.60986H94.8469L93.3164 26.4317Z" fill="#E0E0E0"/>
<path d="M92.6753 26.4317H105.058L106.588 9.60986H94.2057L92.6753 26.4317Z" fill="#E6E6E6"/>
<path d="M104.02 24.5706L105.419 11.4712H95.2468L93.8477 24.5706H104.02Z" fill="#F5F5F5"/>
<path d="M87.7734 26.4319H91.7453L91.2754 16.8738H87.7734V26.4319Z" fill="#E0E0E0"/>
<path d="M81.938 26.4319H90.4644L91.5171 14.8499H82.9907L81.938 26.4319Z" fill="#F0F0F0"/>
<path d="M81.4951 26.4319H90.0242L91.0768 14.8499H82.5504L81.4951 26.4319Z" fill="#F5F5F5"/>
<path d="M89.3081 25.1508L90.2715 16.1309H83.2676L82.3042 25.1508H89.3081Z" fill="#EBEBEB"/>
<path d="M66.4959 97.9011C94.6064 97.9011 117.395 96.5706 117.395 94.9294C117.395 93.2882 94.6064 91.9578 66.4959 91.9578C38.3853 91.9578 15.5972 93.2882 15.5972 94.9294C15.5972 96.5706 38.3853 97.9011 66.4959 97.9011Z" fill="#F5F5F5"/>
<path d="M85.1651 91.3724L83.1753 90.8263L83.9156 86.0696L85.9054 86.6182L85.1651 91.3724Z" fill="#FFC3BD"/>
<path d="M99.8535 92.6954H97.7875L97.2729 87.915H99.3389L99.8535 92.6954Z" fill="#FFC3BD"/>
<path d="M97.6172 92.4565H100.132C100.173 92.4568 100.213 92.4709 100.245 92.4966C100.277 92.5224 100.299 92.5582 100.308 92.5983L100.718 94.4359C100.727 94.4808 100.726 94.5273 100.715 94.5718C100.704 94.6164 100.683 94.6579 100.654 94.6932C100.625 94.7286 100.588 94.7569 100.546 94.7759C100.504 94.795 100.459 94.8044 100.413 94.8034C99.6045 94.7903 99.0138 94.7404 97.9926 94.7404C97.3652 94.7404 95.4751 94.806 94.6088 94.806C93.7425 94.806 93.627 93.9502 93.9814 93.8715C95.5723 93.525 96.772 93.0446 97.2812 92.5878C97.3729 92.5037 97.4928 92.4568 97.6172 92.4565Z" fill="#263238"/>
<path d="M83.2513 90.5979L85.4249 91.1964C85.4643 91.2076 85.4988 91.2319 85.5226 91.2653C85.5465 91.2987 85.5583 91.3392 85.5561 91.3802L85.4616 93.2571C85.4599 93.3026 85.4478 93.3471 85.4262 93.3872C85.4047 93.4273 85.3743 93.462 85.3373 93.4886C85.3004 93.5151 85.2578 93.5329 85.2129 93.5406C85.1681 93.5483 85.122 93.5456 85.0784 93.5328C84.2908 93.3018 83.1778 92.9447 82.1907 92.6744C81.0383 92.3567 80.025 92.1493 78.6757 91.7713C77.8592 91.5456 77.8592 90.6583 78.2215 90.6766C79.8727 90.7659 81.1538 91.0809 82.7262 90.6215C82.8956 90.5648 83.0775 90.5567 83.2513 90.5979Z" fill="#263238"/>
<path opacity="0.2" d="M83.9135 86.0723L83.5303 88.5215L85.5227 89.0702L85.9034 86.6209L83.9135 86.0723Z" fill="black"/>
<path opacity="0.2" d="M99.3389 87.9177H97.2729L97.5407 90.3827H99.6041L99.3389 87.9177Z" fill="black"/>
<path d="M75.1788 27.285L75.0003 25.3057L73.063 26.2481C73.063 26.2481 73.5723 28.0043 74.5331 27.8232L75.1788 27.285Z" fill="#FFC3BD"/>
<path d="M74.5645 24.3738L72.3804 24.8253L73.0682 26.2481L75.0003 25.3057L74.5645 24.3738Z" fill="#FFC3BD"/>
<path d="M87.8923 27.5843C86.8608 27.993 85.8665 28.4901 84.9206 29.0701C84.7185 29.1699 84.5164 29.2696 84.3116 29.3641C83.8128 29.5899 83.3062 29.7973 82.7969 29.9758C81.8448 30.3375 80.8403 30.5423 79.8226 30.5822C79.7124 30.5822 79.5995 30.5822 79.4945 30.5691H79.4183H79.3842C79.3568 30.5656 79.3296 30.5604 79.3028 30.5533C79.129 30.5199 78.9603 30.4634 78.8014 30.3853C78.3589 30.1557 77.9485 29.8688 77.5807 29.5321C76.7479 28.7785 75.9901 27.946 75.3179 27.0461L73.9712 27.8153C74.4975 28.9672 75.1443 30.0601 75.9007 31.0757C76.3169 31.6358 76.802 32.1411 77.3445 32.5799C77.6713 32.8446 78.037 33.0571 78.4287 33.21C78.5422 33.2512 78.6579 33.2863 78.7752 33.315L78.9616 33.357L79.106 33.3806C79.2923 33.4147 79.4787 33.4357 79.6625 33.4541C81.0252 33.5348 82.3919 33.3857 83.7052 33.0131C84.2512 32.8713 84.7815 32.7059 85.3039 32.5248C85.8657 32.4067 90.4859 31.3829 91.2761 29.7264C92.2972 27.5817 90.3494 26.7075 87.8923 27.5843Z" fill="#263238"/>
<path opacity="0.2" d="M87.0176 32.081C87.6668 31.8953 88.3049 31.6727 88.9287 31.4142L89.0862 29.7236C89.0862 29.7236 87.8524 30.2277 87.0176 32.081Z" fill="black"/>
<path d="M100.101 27.8836C100.161 27.8992 100.218 27.9265 100.267 27.964C100.317 28.0014 100.359 28.0484 100.39 28.102C100.422 28.1557 100.442 28.215 100.451 28.2766C100.459 28.3383 100.455 28.4009 100.439 28.4611C99.8997 30.5431 99.5023 32.6595 99.2503 34.7956C99.056 36.3943 98.9379 37.9195 98.867 39.3055C98.6937 42.5502 98.7646 45.0231 98.6701 45.8684C97.0557 45.7581 90.9732 45.3433 87.6446 45.1018C86.1456 33.3596 89.0096 27.3113 89.0096 27.3113C89.8771 27.1482 90.7538 27.0387 91.6348 26.9832C91.8211 26.9832 92.0102 26.9648 92.2044 26.9622C93.7705 26.9805 95.3341 27.0892 96.8877 27.2877C97.1817 27.3218 97.4783 27.3664 97.7697 27.4137C98.72 27.5581 99.5758 27.7576 100.101 27.8836Z" fill="#263238"/>
<path opacity="0.2" d="M98.6123 30.0256C98.3946 31.4155 98.6498 32.8381 99.3368 34.0657C99.4681 33.0918 99.6308 32.0969 99.8303 31.0914L98.6123 30.0256Z" fill="black"/>
<path d="M96.8054 21.9744C96.4038 23.4628 96.0179 26.1168 96.7844 27.306C95.9575 28.0463 94.9731 27.8599 94.1304 27.7287C93.104 27.5685 92.9675 27.3349 93.293 26.8545C93.4952 26.634 93.5319 26.4082 93.7235 25.8937C93.8784 25.3513 93.8911 24.7781 93.7603 24.2294L96.8054 21.9744Z" fill="#FFC3BD"/>
<path d="M93.2225 26.2192C93.3564 26.8939 92.5216 27.2535 92.7657 27.5475C93.0099 27.8415 95.1861 28.5818 96.1443 28.2327C97.1024 27.8835 97.0001 27.7969 96.9318 26.9516C96.8635 26.1063 97.4043 25.555 96.706 25.7808C96.349 25.8963 94.4957 25.5918 93.9628 25.5918C93.4299 25.5918 93.1149 25.6784 93.2225 26.2192Z" fill="#263238"/>
<path opacity="0.2" d="M95.5647 22.8958L93.7612 24.2267C93.8156 24.5044 93.8446 24.7864 93.8479 25.0694C94.4963 25.0221 95.4229 24.379 95.5437 23.7122C95.5995 23.4435 95.6066 23.167 95.5647 22.8958Z" fill="black"/>
<path d="M92.8162 17.0154C92.3568 17.228 91.6139 18.2203 92.2256 18.8766C92.8372 19.5329 93.4646 16.7188 92.8162 17.0154Z" fill="#263238"/>
<path d="M97.4096 19.8086C97.071 21.8299 96.9738 23.0296 95.8345 23.9668C94.1256 25.3739 91.7131 24.1768 91.4401 22.0951C91.1959 20.2233 91.7918 17.2333 93.8683 16.6348C94.3254 16.4996 94.8095 16.4835 95.2745 16.5883C95.7395 16.693 96.17 16.915 96.5249 17.2331C96.8799 17.5513 97.1475 17.9549 97.3024 18.4057C97.4572 18.8565 97.4942 19.3395 97.4096 19.8086Z" fill="#FFC3BD"/>
<path d="M96.8041 21.2577C96.0481 20.7773 96.0166 20.2208 96.245 19.722C96.9721 18.0366 96.77 17.1835 95.4784 17.3384C94.1869 17.4932 92.3467 17.6429 92.575 17.0522C92.8034 16.4616 94.4258 16.2122 95.804 16.3749C97.1822 16.5377 98.6601 17.6087 98.3661 19.2941C98.0826 20.9059 97.7387 21.3627 96.8041 21.2577Z" fill="#263238"/>
<path d="M98.1333 21.717C97.8754 22.1632 97.4518 22.4897 96.9546 22.6253C96.2931 22.7985 95.9754 22.2053 96.1671 21.5752C96.3403 21.0213 96.8942 20.2627 97.5531 20.3598C98.212 20.4569 98.443 21.1657 98.1333 21.717Z" fill="#FFC3BD"/>
<path d="M82.9136 87.8574L86.2816 88.7841C86.2816 88.7841 88.9356 75.4825 89.101 69.0536C89.1509 67.0979 89.9962 64.7851 90.642 61.8817C91.461 58.2249 92.4796 54.2688 93.3249 51.1712C94.2121 47.9081 94.8868 45.6006 94.8868 45.6006L87.6467 45.094C87.6467 45.094 83.9085 62.265 83.4596 68.5496C82.9897 75.0835 82.9136 87.8574 82.9136 87.8574Z" fill="#407BFF"/>
<path opacity="0.4" d="M82.9136 87.8574L86.2816 88.7841C86.2816 88.7841 88.9356 75.4825 89.101 69.0536C89.1509 67.0979 89.9962 64.7851 90.642 61.8817C91.461 58.2249 92.4796 54.2688 93.3249 51.1712C94.2121 47.9081 94.8868 45.6006 94.8868 45.6006L87.6467 45.094C87.6467 45.094 83.9085 62.265 83.4596 68.5496C82.9897 75.0835 82.9136 87.8574 82.9136 87.8574Z" fill="black"/>
<path opacity="0.2" d="M90.6517 61.8815C91.4708 58.2247 92.4893 54.2686 93.3346 51.171L92.5838 49.5513C90.7804 51.6855 90.2973 58.293 90.6517 61.8815Z" fill="black"/>
<path d="M91.5537 45.3669C91.5537 45.3669 92.0787 61.7898 92.9398 67.7751C93.8953 74.3379 96.5835 89.9049 96.5835 89.9049H100.364C100.364 89.9049 100.162 75.0729 98.9776 68.7227C97.6283 61.4931 98.6599 45.8631 98.6599 45.8631L91.5537 45.3669Z" fill="#407BFF"/>
<path opacity="0.4" d="M91.5537 45.3669C91.5537 45.3669 92.0787 61.7898 92.9398 67.7751C93.8953 74.3379 96.5835 89.9049 96.5835 89.9049H100.364C100.364 89.9049 100.162 75.0729 98.9776 68.7227C97.6283 61.4931 98.6599 45.8631 98.6599 45.8631L91.5537 45.3669Z" fill="black"/>
<path d="M96.1329 89.9862H100.585V88.6552L95.6079 88.5686L96.1329 89.9862Z" fill="#263238"/>
<path d="M82.4687 87.8179L86.4852 88.9257L86.8422 87.6289L82.3716 86.3242L82.4687 87.8179Z" fill="#263238"/>
<path d="M94.5291 19.9215C94.5134 20.0868 94.411 20.2129 94.3034 20.2024C94.1957 20.1919 94.1196 20.0475 94.138 19.8821C94.1564 19.7167 94.2561 19.5907 94.3664 19.6012C94.4766 19.6117 94.5475 19.7561 94.5291 19.9215Z" fill="#263238"/>
<path d="M92.4512 19.8558C92.4354 20.0212 92.333 20.1472 92.2228 20.1341C92.1125 20.1209 92.0416 19.9792 92.06 19.8138C92.0784 19.6484 92.1782 19.525 92.2884 19.5355C92.3987 19.546 92.4695 19.6904 92.4512 19.8558Z" fill="#263238"/>
<path d="M94.3809 21.1001C94.118 21.1196 93.8554 21.0595 93.6271 20.9276C93.3989 20.7957 93.2156 20.5982 93.1012 20.3607C92.9869 20.1233 92.9466 19.8569 92.9857 19.5962C93.0249 19.3355 93.1416 19.0927 93.3207 18.8993C93.4998 18.7059 93.7329 18.5709 93.9898 18.5118C94.2467 18.4528 94.5155 18.4725 94.761 18.5684C95.0066 18.6642 95.2176 18.8317 95.3665 19.0492C95.5155 19.2666 95.5956 19.5239 95.5963 19.7875C95.6077 20.1223 95.4864 20.4481 95.2587 20.6939C95.0311 20.9397 94.7156 21.0857 94.3809 21.1001ZM94.3809 18.593C94.1415 18.5708 93.901 18.6215 93.6909 18.7384C93.4808 18.8554 93.311 19.0331 93.2038 19.2483C93.0966 19.4636 93.057 19.7062 93.0902 19.9443C93.1234 20.1824 93.2279 20.4049 93.3898 20.5826C93.5518 20.7603 93.7637 20.8848 93.9977 20.9399C94.2318 20.9949 94.477 20.9779 94.7012 20.8911C94.9254 20.8042 95.1181 20.6516 95.2539 20.4532C95.3898 20.2549 95.4625 20.02 95.4624 19.7796C95.4738 19.4803 95.3666 19.1885 95.1641 18.9678C94.9616 18.7471 94.6801 18.6152 94.3809 18.6009V18.593Z" fill="white"/>
<path d="M91.7027 21.1001C91.4398 21.1196 91.1771 21.0595 90.9489 20.9276C90.7207 20.7957 90.5374 20.5982 90.423 20.3607C90.3086 20.1233 90.2684 19.8569 90.3075 19.5962C90.3467 19.3355 90.4634 19.0927 90.6425 18.8993C90.8216 18.7059 91.0547 18.5709 91.3116 18.5118C91.5685 18.4528 91.8372 18.4725 92.0828 18.5684C92.3283 18.6642 92.5393 18.8317 92.6883 19.0492C92.8373 19.2666 92.9174 19.5239 92.9181 19.7875C92.9295 20.1223 92.8081 20.4481 92.5805 20.6939C92.3529 20.9397 92.0374 21.0857 91.7027 21.1001ZM91.7027 18.593C91.4635 18.5698 91.2229 18.6193 91.0124 18.7352C90.8019 18.8511 90.6313 19.0279 90.5231 19.2425C90.4149 19.457 90.374 19.6993 90.4059 19.9374C90.4378 20.1756 90.5409 20.3986 90.7018 20.5771C90.8627 20.7556 91.0737 20.8813 91.3073 20.9377C91.5409 20.9942 91.786 20.9787 92.0107 20.8933C92.2353 20.8079 92.4288 20.6566 92.5659 20.4593C92.703 20.2619 92.7773 20.0278 92.779 19.7875C92.7925 19.4877 92.687 19.1947 92.4854 18.9724C92.2837 18.7501 92.0024 18.6166 91.7027 18.6009V18.593Z" fill="white"/>
<path d="M92.94 19.9634C92.7333 20.4683 92.4586 20.9425 92.1235 21.3731C92.2351 21.4558 92.3633 21.5132 92.4994 21.5413C92.6354 21.5694 92.7759 21.5676 92.9111 21.5358L92.94 19.9634Z" fill="#ED847E"/>
<path d="M95.0226 19.4149C95.0052 19.4187 94.9872 19.4175 94.9704 19.4114C94.9537 19.4054 94.9391 19.3948 94.9281 19.3808C94.8542 19.2822 94.7583 19.2024 94.6479 19.1477C94.5376 19.093 94.416 19.0649 94.2928 19.0658C94.2801 19.0668 94.2672 19.0653 94.2551 19.0614C94.2429 19.0574 94.2316 19.0512 94.2218 19.0429C94.2121 19.0346 94.2041 19.0245 94.1982 19.0131C94.1924 19.0017 94.1889 18.9893 94.1878 18.9765C94.1868 18.9637 94.1883 18.9509 94.1922 18.9387C94.1961 18.9265 94.2024 18.9153 94.2107 18.9055C94.219 18.8958 94.2291 18.8877 94.2405 18.8819C94.2519 18.8761 94.2643 18.8725 94.2771 18.8715C94.432 18.867 94.5858 18.8997 94.7256 18.9669C94.8653 19.034 94.987 19.1336 95.0804 19.2574C95.0965 19.278 95.1039 19.3041 95.101 19.3302C95.0981 19.3562 95.085 19.38 95.0646 19.3965C95.0519 19.4053 95.0377 19.4115 95.0226 19.4149Z" fill="#263238"/>
<path d="M93.5134 22.4128C93.7542 22.4163 93.9923 22.3621 94.2078 22.2547C94.4234 22.1474 94.6101 21.9901 94.7525 21.7959C94.7602 21.7841 94.7628 21.7697 94.7598 21.7559C94.7569 21.7421 94.7486 21.7301 94.7367 21.7224C94.7309 21.7186 94.7243 21.716 94.7175 21.7147C94.7106 21.7135 94.7036 21.7136 94.6967 21.715C94.6829 21.718 94.6709 21.7263 94.6632 21.7381C94.5295 21.9164 94.3558 22.0607 94.1561 22.1597C93.9564 22.2586 93.7363 22.3093 93.5134 22.3078C93.5065 22.3078 93.4997 22.3092 93.4933 22.3118C93.487 22.3144 93.4812 22.3183 93.4763 22.3232C93.4714 22.3281 93.4676 22.3338 93.4649 22.3402C93.4623 22.3466 93.4609 22.3534 93.4609 22.3603C93.4609 22.3672 93.4623 22.374 93.4649 22.3804C93.4676 22.3868 93.4714 22.3926 93.4763 22.3974C93.4812 22.4023 93.487 22.4062 93.4933 22.4088C93.4997 22.4114 93.5065 22.4128 93.5134 22.4128Z" fill="#263238"/>
<path d="M91.3067 19.4226C91.2856 19.4228 91.2647 19.4173 91.2463 19.4069C91.2249 19.3929 91.2097 19.3712 91.2038 19.3462C91.198 19.3213 91.2019 19.2951 91.2148 19.273C91.2939 19.1388 91.4041 19.0255 91.5362 18.9428C91.6682 18.8601 91.8182 18.8104 91.9735 18.7979C91.9995 18.7978 92.0245 18.808 92.0431 18.8261C92.0618 18.8443 92.0726 18.869 92.0733 18.895C92.0726 18.9208 92.0623 18.9454 92.0443 18.9639C92.0262 18.9824 92.0019 18.9934 91.9761 18.9947C91.8539 19.0059 91.7362 19.0463 91.633 19.1125C91.5297 19.1788 91.4439 19.2689 91.3828 19.3754C91.3746 19.3885 91.3634 19.3996 91.3502 19.4078C91.337 19.416 91.3222 19.421 91.3067 19.4226Z" fill="#263238"/>
<path d="M96.935 92.8188C96.794 92.8296 96.6535 92.7926 96.536 92.7138C96.4988 92.6818 96.4702 92.6411 96.4528 92.5952C96.4353 92.5494 96.4297 92.4999 96.4363 92.4513C96.4356 92.4232 96.4429 92.3955 96.4573 92.3713C96.4717 92.3472 96.4926 92.3276 96.5176 92.3148C96.7486 92.1966 97.4128 92.6062 97.4889 92.6534C97.4966 92.6584 97.5027 92.6655 97.5065 92.6739C97.5102 92.6823 97.5114 92.6916 97.5099 92.7007C97.5091 92.7107 97.505 92.7201 97.4984 92.7277C97.4918 92.7352 97.483 92.7405 97.4732 92.7427C97.2972 92.788 97.1167 92.8135 96.935 92.8188ZM96.6279 92.3909C96.6061 92.3891 96.5842 92.3936 96.5649 92.404C96.5491 92.404 96.536 92.4224 96.5334 92.4618C96.5288 92.4942 96.5324 92.5273 96.5439 92.558C96.5554 92.5888 96.5743 92.6161 96.599 92.6377C96.8296 92.7427 97.0915 92.7559 97.3314 92.6744C97.1172 92.5357 96.8784 92.4395 96.6279 92.3909Z" fill="#407BFF"/>
<path d="M97.4755 92.7454H97.4518C97.2392 92.6299 96.8244 92.1757 96.8691 91.9578C96.8763 91.9219 96.8956 91.8895 96.9238 91.8661C96.9519 91.8427 96.9873 91.8297 97.0239 91.8292C97.0614 91.8239 97.0996 91.8269 97.1358 91.8377C97.1721 91.8486 97.2055 91.8672 97.2339 91.8922C97.4728 92.0865 97.5227 92.6797 97.5227 92.7086C97.524 92.7173 97.5227 92.7262 97.5189 92.7341C97.5152 92.742 97.5092 92.7487 97.5017 92.7533C97.4924 92.7531 97.4833 92.7504 97.4755 92.7454ZM97.0581 91.908H97.0371C96.9741 91.908 96.9662 91.9447 96.9662 91.9578C96.9399 92.0917 97.2024 92.4356 97.4151 92.5957C97.4013 92.3607 97.3161 92.1354 97.1709 91.95C97.136 91.92 97.0908 91.905 97.0449 91.908H97.0581Z" fill="#407BFF"/>
<path d="M82.9832 90.8184C82.6446 90.7947 82.0539 90.716 81.8885 90.4613C81.8618 90.4236 81.8455 90.3794 81.8414 90.3333C81.8372 90.2872 81.8454 90.2408 81.8649 90.1988C81.8725 90.1732 81.8866 90.15 81.906 90.1316C81.9253 90.1131 81.9492 90.1001 81.9752 90.0938C82.2534 90.0308 82.9438 90.653 83.0252 90.7239C83.0326 90.7298 83.0381 90.7378 83.0409 90.7469C83.0436 90.756 83.0436 90.7657 83.0408 90.7748C83.0379 90.7839 83.0324 90.7919 83.025 90.7978C83.0175 90.8037 83.0085 90.8072 82.999 90.8079L82.9832 90.8184ZM82.0014 90.1988H81.9883C81.9778 90.2016 81.9683 90.2072 81.9609 90.2151C81.9535 90.223 81.9484 90.2328 81.9463 90.2435C81.9347 90.27 81.9298 90.2989 81.9321 90.3278C81.9344 90.3566 81.9438 90.3845 81.9594 90.4088C82.0539 90.5506 82.3742 90.6714 82.8336 90.7081C82.5579 90.4692 82.1642 90.1805 82.0014 90.1988Z" fill="#407BFF"/>
<path d="M82.9833 90.8184C82.9774 90.8209 82.9712 90.8221 82.9649 90.8221C82.9586 90.8221 82.9523 90.8209 82.9465 90.8184C82.7365 90.6452 82.3768 90.0834 82.4766 89.8681C82.5002 89.8182 82.5554 89.7631 82.6892 89.7841C82.7374 89.7926 82.7834 89.8107 82.8244 89.8373C82.8654 89.8639 82.9007 89.8985 82.9281 89.939C83.1224 90.2146 83.0279 90.7659 83.0253 90.7896C83.0241 90.7981 83.0205 90.806 83.0149 90.8126C83.0093 90.8191 83.002 90.8239 82.9937 90.8263L82.9833 90.8184ZM82.6157 89.8681C82.5764 89.8681 82.5685 89.8918 82.5659 89.8996C82.5055 90.0283 82.7365 90.4535 82.9413 90.6688C82.9815 90.4361 82.9485 90.1967 82.8467 89.9836C82.8267 89.9538 82.8008 89.9284 82.7705 89.9089C82.7403 89.8895 82.7063 89.8765 82.6709 89.8708C82.6522 89.8709 82.6337 89.8736 82.6157 89.8786V89.8681Z" fill="#407BFF"/>
<path d="M99.522 44.2329L97.4219 44.4429L98.6741 46.4301C98.6741 46.4301 100.375 45.7607 100.121 44.8209L99.522 44.2329Z" fill="#FFC3BD"/>
<path d="M96.04 45.4877L97.3316 47.2465L98.6835 46.4301L97.4314 44.4429L96.04 45.4877Z" fill="#FFC3BD"/>
<path d="M104.432 35.2128C104.243 34.6877 104.028 34.1627 103.8 33.6666C103.629 33.1179 102.185 28.6132 100.46 27.9779C98.2369 27.1589 97.5464 29.1802 98.6464 31.5455C99.1479 32.5353 99.7346 33.4795 100.4 34.3675C100.518 34.5591 100.636 34.7508 100.746 34.945C101.009 35.4228 101.272 35.9084 101.497 36.3993C101.946 37.3132 102.243 38.2937 102.377 39.3027C102.377 39.4156 102.392 39.5259 102.392 39.6335V39.7096C102.391 39.721 102.391 39.7324 102.392 39.7438C102.395 39.7708 102.395 39.7981 102.392 39.8251C102.377 40.0049 102.336 40.1816 102.272 40.3502C102.084 40.8116 101.837 41.2466 101.537 41.6443C100.863 42.5442 100.102 43.3759 99.2659 44.1277L100.158 45.3983C101.257 44.7677 102.286 44.0224 103.227 43.1748C103.747 42.7086 104.206 42.1795 104.595 41.5997C104.828 41.2493 105.005 40.865 105.12 40.4604C105.152 40.3439 105.176 40.2256 105.193 40.106L105.217 39.917V39.77C105.233 39.581 105.235 39.3946 105.238 39.2109C105.196 37.8424 104.923 36.4907 104.432 35.2128Z" fill="#263238"/>
<path d="M23.4663 51.7014H67.0671C67.6296 51.696 68.1686 51.4753 68.5734 51.0847C68.9781 50.6941 69.2179 50.1632 69.2434 49.6013L70.2199 21.7959C70.2305 21.5235 70.1859 21.2517 70.0888 20.9969C69.9916 20.7422 69.844 20.5097 69.6546 20.3135C69.4653 20.1173 69.2383 19.9615 68.9871 19.8553C68.736 19.7492 68.466 19.6949 68.1933 19.6958H24.5899C24.0272 19.7006 23.4878 19.9211 23.0829 20.3119C22.678 20.7026 22.4385 21.2338 22.4136 21.7959L21.4371 49.5987C21.4265 49.8715 21.4711 50.1436 21.5684 50.3987C21.6657 50.6538 21.8136 50.8865 22.0031 51.083C22.1927 51.2794 22.4201 51.4354 22.6715 51.5417C22.923 51.648 23.1933 51.7023 23.4663 51.7014Z" fill="#407BFF"/>
<path opacity="0.4" d="M23.4663 51.7014H67.0671C67.6296 51.696 68.1686 51.4753 68.5734 51.0847C68.9781 50.6941 69.2179 50.1632 69.2434 49.6013L70.2199 21.7959C70.2305 21.5235 70.1859 21.2517 70.0888 20.9969C69.9916 20.7422 69.844 20.5097 69.6546 20.3135C69.4653 20.1173 69.2383 19.9615 68.9871 19.8553C68.736 19.7492 68.466 19.6949 68.1933 19.6958H24.5899C24.0272 19.7006 23.4878 19.9211 23.0829 20.3119C22.678 20.7026 22.4385 21.2338 22.4136 21.7959L21.4371 49.5987C21.4265 49.8715 21.4711 50.1436 21.5684 50.3987C21.6657 50.6538 21.8136 50.8865 22.0031 51.083C22.1927 51.2794 22.4201 51.4354 22.6715 51.5417C22.923 51.648 23.1933 51.7023 23.4663 51.7014Z" fill="black"/>
<path d="M23.8822 51.7014H67.4857C68.048 51.6953 68.5866 51.4744 68.9912 51.084C69.3959 50.6935 69.6358 50.163 69.6619 49.6013L70.6385 21.7959C70.6491 21.5233 70.6044 21.2513 70.5071 20.9963C70.4098 20.7414 70.2619 20.5088 70.0723 20.3126C69.8827 20.1163 69.6553 19.9605 69.4039 19.8545C69.1524 19.7485 68.8821 19.6946 68.6093 19.6958H25.0058C24.4436 19.7013 23.9049 19.9221 23.5006 20.3128C23.0962 20.7034 22.857 21.2342 22.8322 21.7959L21.8556 49.5987C21.8447 49.8714 21.889 50.1434 21.986 50.3985C22.083 50.6536 22.2306 50.8863 22.4199 51.0828C22.6093 51.2793 22.8365 51.4354 23.0878 51.5417C23.3391 51.648 23.6094 51.7024 23.8822 51.7014Z" fill="#407BFF"/>
<path opacity="0.9" d="M67.0682 49.9506C67.2901 49.9481 67.5027 49.8608 67.6624 49.7066C67.822 49.5523 67.9165 49.3428 67.9266 49.121L68.8637 22.2712C68.8695 22.1643 68.8533 22.0574 68.8163 21.9569C68.7793 21.8564 68.7222 21.7646 68.6485 21.687C68.5748 21.6093 68.486 21.5475 68.3876 21.5054C68.2892 21.4632 68.1833 21.4415 68.0762 21.4417H25.4231C25.2013 21.4447 24.989 21.5323 24.8295 21.6864C24.67 21.8405 24.5753 22.0497 24.5646 22.2712L23.6222 49.121C23.6165 49.2279 23.6326 49.3349 23.6697 49.4353C23.7067 49.5358 23.7638 49.6276 23.8375 49.7053C23.9112 49.7829 24 49.8447 24.0983 49.8869C24.1967 49.9291 24.3027 49.9507 24.4098 49.9506H67.0682Z" fill="white"/>
<path opacity="0.3" d="M54.199 42.6842C55.5778 40.9473 56.3816 38.8242 56.4986 36.6096C56.6123 34.458 56.0145 32.3288 54.7975 30.5508V30.5193C54.7769 30.4889 54.7541 30.4599 54.7293 30.4327C53.8263 29.1604 52.6294 28.1249 51.2405 27.4142C49.8516 26.7036 48.3116 26.3387 46.7515 26.3506C45.1386 26.3629 43.5489 26.7356 42.0987 27.4414C40.6484 28.1473 39.3743 29.1684 38.3695 30.4301C38.3485 30.4537 38.3275 30.4747 38.3091 30.4983C38.3052 30.5073 38.3009 30.5161 38.296 30.5246C36.9155 32.2618 36.1108 34.386 35.9937 36.6018C35.8753 38.7608 36.4743 40.8984 37.6974 42.6816C37.6964 42.6894 37.6964 42.6974 37.6974 42.7052L37.7211 42.7341C38.6228 44.018 39.8227 45.0639 41.2178 45.7818C42.6129 46.4997 44.1614 46.8681 45.7303 46.8555C47.3406 46.8429 48.9277 46.4711 50.376 45.7672C51.8242 45.0633 53.0972 44.045 54.1019 42.7866C54.126 42.7607 54.1488 42.7335 54.1701 42.7052C54.1802 42.6988 54.1898 42.6918 54.199 42.6842ZM45.7986 45.6427C44.3311 45.6427 43.0947 43.9285 42.4673 41.4005C43.6384 41.1658 44.83 41.0488 46.0243 41.0514C47.2076 41.0487 48.388 41.1666 49.5473 41.4031C48.6705 43.939 47.266 45.6427 45.8012 45.6427H45.7986ZM46.0847 39.8281C44.7888 39.8254 43.4959 39.9538 42.2258 40.2113C42.07 39.2226 42.0014 38.2221 42.021 37.2213H50.4083C50.326 38.2302 50.1592 39.2304 49.9095 40.2113C48.652 39.9528 47.3712 39.8244 46.0874 39.8281H46.0847ZM37.2039 37.2213H40.8003C40.7748 38.3204 40.8486 39.4195 41.0208 40.5053C40.1256 40.7572 39.2617 41.1094 38.4456 41.5554C37.6536 40.247 37.2258 38.7506 37.2065 37.2213H37.2039ZM38.9365 31.6665C39.7151 32.1156 40.5455 32.4682 41.4094 32.7166C41.1326 33.7942 40.9507 34.8939 40.866 36.0032H37.2695C37.4535 34.4409 38.0266 32.9498 38.9365 31.6665ZM46.6938 27.5792C48.1612 27.5792 49.395 29.2934 50.025 31.8214C48.8529 32.0547 47.6605 32.1716 46.4654 32.1705C45.2823 32.1726 44.1021 32.0556 42.9424 31.8214C43.8192 29.2934 45.2368 27.5792 46.6911 27.5792H46.6938ZM46.4076 33.3912C47.7036 33.3937 48.9964 33.2653 50.2666 33.008C50.4212 33.9977 50.4897 34.999 50.4713 36.0006H42.0866C42.1674 34.9907 42.3343 33.9895 42.5854 33.008C43.8421 33.2666 45.122 33.395 46.405 33.3912H46.4076ZM55.2884 36.0006H51.692C51.7163 34.9007 51.6425 33.8008 51.4715 32.7139C52.3664 32.4612 53.2303 32.109 54.0467 31.6639C54.838 32.9736 55.2657 34.4706 55.2858 36.0006H55.2884ZM51.6316 37.2213H55.2281C55.0416 38.7818 54.4677 40.2708 53.5585 41.5528C52.7796 41.1043 51.9492 40.7517 51.0856 40.5027C51.3633 39.4271 51.5452 38.329 51.629 37.2213H51.6316ZM53.3511 30.6873C52.6736 31.0382 51.962 31.3188 51.2274 31.5248C50.9561 30.3022 50.4517 29.1435 49.7415 28.1121C51.151 28.6354 52.3958 29.5242 53.3485 30.6873H53.3511ZM43.5908 28.1173C42.7872 29.1386 42.1704 30.294 41.769 31.53C41.0611 31.3247 40.3773 31.0439 39.7293 30.6926C40.7887 29.5351 42.1128 28.6514 43.5882 28.1173H43.5908ZM39.1465 42.5346C39.8237 42.1844 40.5343 41.903 41.2676 41.6945C41.5394 42.9168 42.0439 44.0755 42.7534 45.1072C41.3434 44.5849 40.0977 43.697 39.1439 42.5346H39.1465ZM48.912 45.1019C49.7174 44.0818 50.3343 42.9261 50.7338 41.6893C51.442 41.895 52.1259 42.1767 52.7736 42.5293C51.7137 43.687 50.3885 44.5698 48.912 45.1019Z" fill="#407BFF"/>
<path opacity="0.6" d="M33.2853 21.4417L29.4946 49.9506H34.5401L38.3308 21.4417H33.2853Z" fill="white"/>
<path opacity="0.6" d="M40.0505 21.4417L36.2598 49.9506H38.3284L42.1217 21.4417H40.0505Z" fill="white"/>
<path opacity="0.3" d="M46.4524 20.6147C46.4506 20.6566 46.4574 20.6986 46.4724 20.7378C46.4873 20.7771 46.5101 20.813 46.5393 20.8432C46.5685 20.8734 46.6036 20.8973 46.6423 20.9136C46.6811 20.9298 46.7228 20.9379 46.7648 20.9375C46.8513 20.9369 46.9341 20.903 46.9962 20.8429C47.0583 20.7828 47.0948 20.701 47.0982 20.6147C47.1 20.5727 47.0932 20.5307 47.0783 20.4915C47.0633 20.4522 47.0406 20.4163 47.0113 20.3861C46.9821 20.3559 46.9471 20.332 46.9083 20.3158C46.8695 20.2995 46.8278 20.2914 46.7858 20.2918C46.6994 20.2924 46.6165 20.3263 46.5544 20.3864C46.4923 20.4465 46.4558 20.5283 46.4524 20.6147Z" fill="white"/>
<path d="M73.8785 80.7222H30.2725C29.6741 80.6937 29.1006 80.4744 28.6358 80.0966C28.1711 79.7187 27.8394 79.202 27.6893 78.6221L22.1083 54.2346C21.8458 53.0796 22.573 52.1345 23.728 52.1345H67.3315C67.9297 52.1635 68.503 52.3828 68.9677 52.7607C69.4324 53.1385 69.7642 53.6549 69.9146 54.2346L75.4956 78.6221C75.7634 79.7772 75.0336 80.7222 73.8785 80.7222Z" fill="#407BFF"/>
<path opacity="0.4" d="M73.8785 80.7222H30.2725C29.6741 80.6937 29.1006 80.4744 28.6358 80.0966C28.1711 79.7187 27.8394 79.202 27.6893 78.6221L22.1083 54.2346C21.8458 53.0796 22.573 52.1345 23.728 52.1345H67.3315C67.9297 52.1635 68.503 52.3828 68.9677 52.7607C69.4324 53.1385 69.7642 53.6549 69.9146 54.2346L75.4956 78.6221C75.7634 79.7772 75.0336 80.7222 73.8785 80.7222Z" fill="black"/>
<path d="M74.2973 80.7224H30.6939C30.0954 80.6943 29.5217 80.4752 29.0568 80.0973C28.592 79.7193 28.2604 79.2024 28.1107 78.6223L22.5297 54.2322C22.2672 53.0771 22.9943 52.1321 24.1494 52.1321H67.7528C68.3511 52.161 68.9244 52.3804 69.3891 52.7582C69.8538 53.136 70.1855 53.6525 70.336 54.2322L75.917 78.6197C76.1821 79.7773 75.4524 80.7224 74.2973 80.7224Z" fill="#407BFF"/>
<path opacity="0.2" d="M28.3852 68.5494C28.149 68.5383 27.9226 68.4517 27.7393 68.3024C27.5559 68.1531 27.4253 67.9489 27.3666 67.7199L24.3897 54.7018C24.3616 54.605 24.3567 54.5028 24.3755 54.4037C24.3943 54.3046 24.4362 54.2114 24.4979 54.1315C24.5595 54.0517 24.6392 53.9876 24.7303 53.9444C24.8215 53.9011 24.9215 53.88 25.0224 53.8828H67.6729C67.9092 53.8935 68.1358 53.98 68.3192 54.1293C68.5026 54.2787 68.6331 54.4831 68.6914 54.7124L71.671 67.7199C71.7008 67.818 71.7067 67.9219 71.6882 68.0228C71.6697 68.1236 71.6273 68.2186 71.5646 68.2998C71.5019 68.381 71.4207 68.446 71.3278 68.4894C71.2349 68.5329 71.1329 68.5534 71.0304 68.5494H28.3852Z" fill="black"/>
<path opacity="0.2" d="M45.9588 78.7822C45.821 78.7756 45.6889 78.7251 45.5817 78.6383C45.4746 78.5514 45.3979 78.4326 45.3629 78.2992L43.6276 70.7152C43.6105 70.6581 43.6072 70.5977 43.6181 70.539C43.6289 70.4804 43.6536 70.4252 43.69 70.378C43.7265 70.3308 43.7736 70.2929 43.8276 70.2676C43.8816 70.2422 43.9408 70.2301 44.0004 70.2322H56.1863C56.3251 70.2373 56.4586 70.2871 56.5669 70.3741C56.6752 70.4611 56.7525 70.5807 56.7874 70.7152L58.5253 78.2992C58.5424 78.3563 58.5457 78.4167 58.5348 78.4753C58.524 78.534 58.4993 78.5892 58.4629 78.6364C58.4265 78.6836 58.3793 78.7215 58.3253 78.7468C58.2713 78.7722 58.2121 78.7843 58.1525 78.7822H45.9588Z" fill="black"/>
<path d="M75.4867 61.7635L76.7993 27.1721C76.8084 26.9557 76.7739 26.7396 76.6977 26.5368C76.6214 26.334 76.5051 26.1486 76.3556 25.9918C76.2061 25.835 76.0266 25.7099 75.8277 25.624C75.6288 25.5381 75.4146 25.4933 75.1979 25.492L53.1468 25.3057C52.7008 25.3058 52.272 25.4778 51.9494 25.7857C51.6268 26.0936 51.4351 26.514 51.4142 26.9595L50.1017 61.5482C50.0921 61.7649 50.1264 61.9813 50.2025 62.1844C50.2785 62.3875 50.3948 62.5732 50.5443 62.7303C50.6938 62.8874 50.8735 63.0127 51.0726 63.0988C51.2717 63.1848 51.4861 63.2298 51.703 63.231L73.7541 63.4173C74.1999 63.4165 74.6283 63.2444 74.9508 62.9366C75.2733 62.6288 75.4651 62.2088 75.4867 61.7635Z" fill="#407BFF"/>
<path opacity="0.4" d="M75.4867 61.7635L76.7993 27.1721C76.8084 26.9557 76.7739 26.7396 76.6977 26.5368C76.6214 26.334 76.5051 26.1486 76.3556 25.9918C76.2061 25.835 76.0266 25.7099 75.8277 25.624C75.6288 25.5381 75.4146 25.4933 75.1979 25.492L53.1468 25.3057C52.7008 25.3058 52.272 25.4778 51.9494 25.7857C51.6268 26.0936 51.4351 26.514 51.4142 26.9595L50.1017 61.5482C50.0921 61.7649 50.1264 61.9813 50.2025 62.1844C50.2785 62.3875 50.3948 62.5732 50.5443 62.7303C50.6938 62.8874 50.8735 63.0127 51.0726 63.0988C51.2717 63.1848 51.4861 63.2298 51.703 63.231L73.7541 63.4173C74.1999 63.4165 74.6283 63.2444 74.9508 62.9366C75.2733 62.6288 75.4651 62.2088 75.4867 61.7635Z" fill="black"/>
<path d="M75.9712 61.7636L77.2969 27.1723C77.3057 26.9557 77.2708 26.7395 77.1943 26.5367C77.1178 26.3339 77.0012 26.1486 76.8515 25.9918C76.7018 25.835 76.5221 25.7099 76.323 25.6241C76.124 25.5383 75.9097 25.4934 75.6929 25.4922L53.6366 25.3005C53.1906 25.3007 52.7618 25.4726 52.4392 25.7806C52.1165 26.0885 51.9249 26.5089 51.904 26.9544L50.5914 61.5431C50.5819 61.7598 50.6161 61.9762 50.6922 62.1793C50.7683 62.3824 50.8845 62.5681 51.0341 62.7252C51.1836 62.8823 51.3633 63.0076 51.5623 63.0936C51.7614 63.1797 51.9759 63.2246 52.1927 63.2258L74.2438 63.4122C74.6881 63.4107 75.1148 63.239 75.4362 62.9323C75.7575 62.6256 75.949 62.2073 75.9712 61.7636Z" fill="#407BFF"/>
<path opacity="0.9" d="M75.8933 27.5397C75.8968 27.4543 75.8831 27.3691 75.8529 27.2891C75.8227 27.2092 75.7767 27.1361 75.7177 27.0744C75.6586 27.0126 75.5877 26.9634 75.5091 26.9297C75.4306 26.896 75.3461 26.8784 75.2606 26.8782L53.9682 26.697C53.7922 26.6975 53.6232 26.7657 53.4962 26.8873C53.3691 27.009 53.2937 27.1749 53.2856 27.3507L51.9888 61.1808C51.9853 61.2663 51.999 61.3516 52.0292 61.4317C52.0593 61.5118 52.1053 61.585 52.1643 61.647C52.2233 61.709 52.2942 61.7584 52.3728 61.7924C52.4513 61.8264 52.5359 61.8443 52.6215 61.8449L73.9139 62.0234C74.0896 62.0236 74.2586 61.9561 74.3857 61.8348C74.5129 61.7135 74.5884 61.5479 74.5965 61.3724L75.8933 27.5397Z" fill="white"/>
<path opacity="0.3" d="M71.8588 50.3049C73.138 48.6913 73.8839 46.7198 73.9931 44.6635C74.1024 42.6619 73.5488 40.68 72.418 39.0248V38.9985C72.3997 38.9686 72.3776 38.9413 72.3523 38.9171C71.5139 37.7407 70.4042 36.7837 69.1174 36.127C67.8306 35.4704 66.4046 35.1334 64.96 35.1448C63.4624 35.1566 61.9863 35.5029 60.6397 36.1583C59.293 36.8137 58.1098 37.7616 57.1764 38.9329C57.1567 38.9535 57.1383 38.9755 57.1213 38.9985L57.1082 39.0221C55.8174 40.6311 55.0628 42.6039 54.9503 44.6635C54.8378 46.6672 55.3916 48.6517 56.5254 50.3076C56.5264 50.3154 56.5264 50.3234 56.5254 50.3312L56.549 50.3575C57.3886 51.5512 58.506 52.5228 59.8049 53.1882C61.1038 53.8537 62.5451 54.193 64.0044 54.177C65.4996 54.1658 66.9733 53.8208 68.3181 53.1673C69.6629 52.5137 70.8448 51.5681 71.7774 50.3995C71.8007 50.3762 71.8226 50.3517 71.8431 50.326L71.8588 50.3049ZM64.0595 53.0508C62.6997 53.0508 61.5525 51.4574 60.9671 49.1131C62.0545 48.8959 63.1607 48.7869 64.2696 48.7876C65.3714 48.7845 66.4708 48.8927 67.551 49.1105C66.7267 51.4574 65.422 53.0508 64.0595 53.0508ZM64.3221 47.6536C63.1187 47.6508 61.9182 47.7695 60.7388 48.008C60.594 47.0895 60.5299 46.1602 60.5471 45.2306H68.3385C68.2621 46.1678 68.1066 47.0969 67.8739 48.008C66.707 47.7684 65.5185 47.6497 64.3273 47.6536H64.3221ZM56.0765 45.2306H59.4131C59.3878 46.2515 59.4563 47.2726 59.6178 48.281C58.7867 48.5139 57.9845 48.8397 57.2263 49.2523C56.4944 48.0372 56.0993 46.649 56.0818 45.2306H56.0765ZM57.6805 40.0748C58.4037 40.491 59.1751 40.8172 59.9775 41.0461C59.7188 42.0468 59.5493 43.0685 59.4708 44.0991H56.1369C56.3077 42.6491 56.8403 41.2652 57.6857 40.0748H57.6805ZM64.8812 36.2789C66.2437 36.2789 67.3908 37.8697 67.9762 40.2166C66.8882 40.435 65.781 40.544 64.6712 40.5421C63.5727 40.5453 62.4767 40.4362 61.4003 40.2166C62.222 37.8697 63.524 36.2789 64.8865 36.2789H64.8812ZM64.6187 41.6761C65.8232 41.6776 67.0247 41.5562 68.2046 41.3139C68.3484 42.2333 68.4116 43.1635 68.3936 44.0939H60.6101C60.6846 43.1557 60.8392 42.2257 61.0721 41.3139C62.2395 41.5572 63.4289 41.6786 64.6213 41.6761H64.6187ZM72.8642 44.0991H69.5277C69.5504 43.0774 69.4818 42.0557 69.3229 41.0461C70.1544 40.8143 70.9568 40.4885 71.7144 40.0748C72.4491 41.2901 72.8469 42.6792 72.8669 44.0991H72.8642ZM69.4699 45.2306H72.8012C72.628 46.6792 72.0956 48.0617 71.2524 49.2523C70.5284 48.8378 69.7572 48.5117 68.9554 48.281C69.2163 47.2812 69.3894 46.2605 69.4726 45.2306H69.4699ZM71.066 39.1639C70.4373 39.4926 69.7767 39.7564 69.0946 39.9514C68.8425 38.8183 68.3746 37.7443 67.7164 36.7881C69.0243 37.2695 70.1811 38.0893 71.0686 39.1639H71.066ZM62.0041 36.7803C61.2569 37.7258 60.6844 38.797 60.3135 39.9436C59.6556 39.7513 59.0209 39.4872 58.4208 39.156C59.4065 38.0859 60.637 37.2708 62.0067 36.7803H62.0041ZM57.8774 50.1684C58.5052 49.8397 59.1649 49.5759 59.8462 49.3809C60.1003 50.5138 60.569 51.5876 61.227 52.5442C59.9203 52.062 58.7652 51.2412 57.88 50.1658L57.8774 50.1684ZM66.9393 52.5521C67.6849 51.6055 68.2573 50.5346 68.6299 49.3888C69.2872 49.5826 69.9218 49.8467 70.5226 50.1763C69.5387 51.2455 68.3099 52.0598 66.9419 52.5494L66.9393 52.5521Z" fill="#407BFF"/>
<path opacity="0.6" d="M58.5704 26.7366L54.7876 61.8635L59.8279 61.9055L63.6107 26.7786L58.5704 26.7366Z" fill="white"/>
<path opacity="0.6" d="M65.3302 26.7942L61.5474 61.9211L63.616 61.9368L67.3988 26.8099L65.3302 26.7942Z" fill="white"/>
<path opacity="0.3" d="M64.1701 26.2824C64.2397 26.2824 64.3065 26.2547 64.3557 26.2055C64.405 26.1562 64.4326 26.0895 64.4326 26.0198C64.4348 25.9861 64.43 25.9523 64.4186 25.9206C64.4071 25.8888 64.3893 25.8597 64.3662 25.8351C64.343 25.8105 64.3151 25.7909 64.2841 25.7775C64.2531 25.7641 64.2196 25.7573 64.1859 25.7573C64.1162 25.7573 64.0495 25.785 64.0002 25.8342C63.951 25.8834 63.9234 25.9502 63.9234 26.0198C63.9212 26.0535 63.926 26.0873 63.9374 26.1191C63.9489 26.1509 63.9667 26.18 63.9898 26.2046C64.0129 26.2292 64.0409 26.2488 64.0719 26.2622C64.1029 26.2756 64.1363 26.2824 64.1701 26.2824Z" fill="white"/>
<path d="M82.1326 71.0354L83.4583 43.8862C83.4674 43.6697 83.4329 43.4534 83.3567 43.2505C83.2805 43.0475 83.1642 42.862 83.0148 42.705C82.8653 42.548 82.6858 42.4226 82.4869 42.3365C82.2879 42.2503 82.0737 42.2051 81.8569 42.2035L69.1067 42.0198C68.6611 42.0199 68.2327 42.1915 67.9101 42.4989C67.5876 42.8063 67.3956 43.2259 67.3741 43.671L66.0615 70.8227C66.0523 71.0392 66.0869 71.2553 66.1631 71.4581C66.2393 71.6609 66.3557 71.8462 66.5051 72.0031C66.6546 72.1599 66.8342 72.285 67.0331 72.3709C67.232 72.4567 67.4462 72.5016 67.6628 72.5028L80.4131 72.6892C80.8568 72.6857 81.2823 72.5123 81.6021 72.2047C81.922 71.8971 82.1118 71.4786 82.1326 71.0354Z" fill="#407BFF"/>
<path opacity="0.4" d="M82.1326 71.0354L83.4583 43.8862C83.4674 43.6697 83.4329 43.4534 83.3567 43.2505C83.2805 43.0475 83.1642 42.862 83.0148 42.705C82.8653 42.548 82.6858 42.4226 82.4869 42.3365C82.2879 42.2503 82.0737 42.2051 81.8569 42.2035L69.1067 42.0198C68.6611 42.0199 68.2327 42.1915 67.9101 42.4989C67.5876 42.8063 67.3956 43.2259 67.3741 43.671L66.0615 70.8227C66.0523 71.0392 66.0869 71.2553 66.1631 71.4581C66.2393 71.6609 66.3557 71.8462 66.5051 72.0031C66.6546 72.1599 66.8342 72.285 67.0331 72.3709C67.232 72.4567 67.4462 72.5016 67.6628 72.5028L80.4131 72.6892C80.8568 72.6857 81.2823 72.5123 81.6021 72.2047C81.922 71.8971 82.1118 71.4786 82.1326 71.0354Z" fill="black"/>
<path d="M82.6215 71.0354L83.9341 43.8862C83.9436 43.6696 83.9093 43.4532 83.8333 43.2501C83.7572 43.047 83.6409 42.8613 83.4914 42.7042C83.3419 42.5471 83.1622 42.4218 82.9631 42.3357C82.764 42.2497 82.5496 42.2047 82.3328 42.2035L69.5825 42.0198C69.1372 42.02 68.7091 42.1916 68.3869 42.499C68.0648 42.8065 67.8734 43.2262 67.8525 43.671L66.5268 70.8227C66.5177 71.0392 66.5522 71.2553 66.6284 71.4581C66.7047 71.6609 66.821 71.8462 66.9705 72.0031C67.1199 72.1599 67.2995 72.285 67.4984 72.3709C67.6973 72.4567 67.9115 72.5016 68.1282 72.5028L80.8784 72.6892C81.326 72.6911 81.7571 72.5202 82.0819 72.2121C82.4066 71.904 82.5999 71.4825 82.6215 71.0354Z" fill="#407BFF"/>
<path opacity="0.9" d="M82.5412 44.2536C82.5443 44.1682 82.5304 44.083 82.5001 44.0031C82.4698 43.9231 82.4238 43.85 82.3649 43.7882C82.3059 43.7263 82.2351 43.6768 82.1568 43.6427C82.0784 43.6085 81.994 43.5905 81.9085 43.5895L69.9117 43.4136C69.7357 43.4141 69.5667 43.4822 69.4397 43.6039C69.3126 43.7256 69.2372 43.8915 69.2291 44.0672L67.9376 70.4524C67.934 70.538 67.9478 70.6233 67.9779 70.7034C68.008 70.7835 68.054 70.8567 68.113 70.9187C68.1721 70.9807 68.243 71.0301 68.3215 71.0641C68.4 71.0981 68.4846 71.116 68.5702 71.1166L80.5618 71.2951C80.7375 71.2953 80.9065 71.2277 81.0336 71.1065C81.1608 70.9852 81.2362 70.8196 81.2444 70.6441L82.5412 44.2536Z" fill="white"/>
<path opacity="0.3" d="M79.7719 61.0021C80.558 60.012 81.0167 58.8019 81.0845 57.5395C81.1508 56.3102 80.8103 55.0934 80.1158 54.077C80.1158 54.077 80.1158 54.077 80.1158 54.0612C80.105 54.0435 80.0927 54.0268 80.079 54.0113C79.5634 53.2893 78.8815 52.702 78.0911 52.299C77.3006 51.896 76.4248 51.6892 75.5375 51.696C74.6185 51.703 73.7127 51.9155 72.8865 52.3179C72.0602 52.7204 71.3345 53.3025 70.7624 54.0218L70.7257 54.0612V54.077C69.9383 55.0663 69.4794 56.2768 69.4131 57.5395C69.3438 58.7699 69.6845 59.9886 70.3818 61.0047V61.0178C70.3818 61.0178 70.3818 61.0178 70.3949 61.0336C70.9094 61.7617 71.5928 62.3541 72.3866 62.7601C73.1803 63.1661 74.0606 63.3736 74.9521 63.3647C75.8696 63.3577 76.7739 63.1459 77.5991 62.7449C78.4243 62.3439 79.1496 61.7637 79.722 61.0467C79.7374 61.0322 79.7514 61.0164 79.764 60.9994L79.7719 61.0021ZM74.9863 62.6874C74.1488 62.6874 73.4453 61.7108 73.0883 60.2696C73.7556 60.1365 74.4344 60.0697 75.1149 60.0701C75.7893 60.069 76.4621 60.1358 77.1231 60.2696C76.6217 61.6977 75.8211 62.6743 74.9863 62.6743V62.6874ZM75.149 59.3745C74.4103 59.373 73.6733 59.446 72.9492 59.5924C72.8614 59.0289 72.8227 58.4588 72.8337 57.8887H77.6114C77.566 58.4637 77.4712 59.0337 77.3279 59.5924C76.6157 59.4418 75.89 59.3644 75.1622 59.3614L75.149 59.3745ZM70.0878 57.8887H72.138C72.1236 58.5151 72.1657 59.1415 72.264 59.7604C71.7531 59.903 71.26 60.1029 70.7939 60.3563C70.3416 59.6071 70.0978 58.7506 70.0878 57.8755V57.8887ZM71.0722 54.7017C71.5166 54.9561 71.9898 55.1561 72.4819 55.2976C72.3235 55.9121 72.2198 56.5393 72.1721 57.172H70.1219C70.2271 56.2821 70.5538 55.4327 71.0722 54.7017ZM75.4929 52.3706C76.3303 52.3706 77.0339 53.3472 77.3935 54.7884C76.7255 54.9227 76.0457 54.9895 75.3643 54.9879C74.6898 54.9903 74.0169 54.9235 73.3561 54.7884C73.8496 53.355 74.6581 52.3785 75.4929 52.3785V52.3706ZM75.3302 55.6835C76.0689 55.6851 76.8059 55.6121 77.53 55.4657C77.6179 56.03 77.6566 56.6009 77.6455 57.172H72.8678C72.9142 56.5963 73.0091 56.0255 73.1513 55.4657C73.8679 55.6154 74.5981 55.691 75.3302 55.6914V55.6835ZM80.3914 57.172H78.3412C78.3556 56.5447 78.3134 55.9174 78.2152 55.2976C78.7261 55.155 79.2192 54.9551 79.6853 54.7017C80.137 55.4502 80.3808 56.3057 80.3914 57.1799V57.172ZM78.3123 57.8755H80.3625C80.2569 58.7645 79.9302 59.6129 79.4122 60.3431C78.9679 60.0888 78.4946 59.8888 78.0025 59.7472C78.1607 59.1337 78.2644 58.5073 78.3123 57.8755ZM79.2941 54.1505C78.9079 54.3503 78.5025 54.5103 78.0839 54.6282C77.9287 53.9322 77.6408 53.2727 77.236 52.6856C78.0379 52.9836 78.7463 53.4891 79.2889 54.1505H79.2941ZM73.7315 52.6856C73.269 53.2658 72.9134 53.9235 72.6814 54.6282C72.2775 54.512 71.8875 54.3517 71.5185 54.1505C72.1248 53.4905 72.8824 52.9878 73.7262 52.6856H73.7315ZM71.1982 60.9023C71.5838 60.7032 71.9883 60.5431 72.4058 60.4245C72.5621 61.1201 72.8499 61.7795 73.2537 62.3671C72.4484 62.0714 71.7369 61.5656 71.193 60.9023H71.1982ZM76.7582 62.3671C77.2207 61.787 77.5763 61.1292 77.8083 60.4245C78.2118 60.542 78.6017 60.7021 78.9712 60.9023C78.3619 61.5637 77.6005 62.0665 76.753 62.3671H76.7582Z" fill="#407BFF"/>
<path opacity="0.6" d="M72.1346 43.4453L69.1787 71.1247L73.1322 71.1851L76.1143 43.5031L72.1346 43.4453Z" fill="white"/>
<path opacity="0.6" d="M77.4699 43.5239L74.4878 71.2059L76.1206 71.2296L79.1028 43.5476L77.4699 43.5239Z" fill="white"/>
<path opacity="0.3" d="M70.7985 43.0358C70.8681 43.0358 70.9349 43.0081 70.9842 42.9589C71.0334 42.9096 71.061 42.8429 71.061 42.7733C71.0612 42.7063 71.0357 42.6418 70.9898 42.593C70.9439 42.5442 70.8811 42.5148 70.8143 42.5107C70.7446 42.5107 70.6779 42.5384 70.6287 42.5876C70.5794 42.6369 70.5518 42.7036 70.5518 42.7733C70.5516 42.8402 70.5771 42.9047 70.623 42.9535C70.6689 43.0023 70.7317 43.0318 70.7985 43.0358Z" fill="white"/>
</svg>
